Titillium Math Sans Pro Zanichelli-Black.ufo
<glyph name="quotedbl" format="2">
  <advance width="542"/>
  <unicode hex="0022"/>
  <note>
quotedbl
</note>
  <outline>
    <contour>
      <point x="255" y="730" type="line"/>
      <point x="17" y="730" type="line"/>
      <point x="48" y="420" type="line"/>
      <point x="224" y="420" type="line"/>
    </contour>
    <contour>
      <point x="525" y="730" type="line"/>
      <point x="287" y="730" type="line"/>
      <point x="318" y="420" type="line"/>
      <point x="494" y="420" type="line"/>
    </contour>
  </outline>
</glyph>
<glyph name="dollar" format="2">
  <advance width="555"/>
  <unicode hex="0024"/>
  <note>
dollar
</note>
  <outline>
    <contour>
      <point x="497" y="484" type="curve"/>
      <point x="512" y="653" type="line"/>
      <point x="512" y="653"/>
      <point x="426" y="667"/>
      <point x="340" y="674" type="curve"/>
      <point x="354" y="800" type="line"/>
      <point x="284" y="800" type="line"/>
      <point x="270" y="677" type="line"/>
      <point x="266" y="677" type="line" smooth="yes"/>
      <point x="115" y="677"/>
      <point x="21" y="619"/>
      <point x="21" y="455" type="curve" smooth="yes"/>
      <point x="21" y="345"/>
      <point x="67" y="290"/>
      <point x="158" y="269" type="curve" smooth="yes"/>
      <point x="264" y="244" type="line" smooth="yes"/>
      <point x="311" y="233"/>
      <point x="319" y="226"/>
      <point x="319" y="204" type="curve" smooth="yes"/>
      <point x="319" y="186"/>
      <point x="308" y="174"/>
      <point x="252" y="174" type="curve" smooth="yes"/>
      <point x="178" y="174"/>
      <point x="41" y="187"/>
      <point x="41" y="187" type="curve"/>
      <point x="21" y="21" type="line"/>
      <point x="21" y="21"/>
      <point x="110" y="2"/>
      <point x="213" y="-4" type="curve"/>
      <point x="197" y="-142" type="line"/>
      <point x="267" y="-142" type="line"/>
      <point x="283" y="-6" type="line"/>
      <point x="447" y="-3"/>
      <point x="541" y="54"/>
      <point x="541" y="235" type="curve" smooth="yes"/>
      <point x="541" y="327"/>
      <point x="513" y="377"/>
      <point x="385" y="415" type="curve" smooth="yes"/>
      <point x="290" y="443" type="line" smooth="yes"/>
      <point x="246" y="456"/>
      <point x="241" y="458"/>
      <point x="241" y="473" type="curve" smooth="yes"/>
      <point x="241" y="495"/>
      <point x="250" y="498"/>
      <point x="294" y="498" type="curve" smooth="yes"/>
      <point x="381" y="498"/>
      <point x="497" y="484"/>
    </contour>
  </outline>
</glyph>
<glyph name="percent" format="2">
  <advance width="719"/>
  <unicode hex="0025"/>
  <note>
percent
</note>
  <outline>
    <contour>
      <point x="162" y="725" type="curve" smooth="yes"/>
      <point x="51" y="725"/>
      <point x="10" y="673"/>
      <point x="10" y="552" type="curve" smooth="yes"/>
      <point x="10" y="423"/>
      <point x="49" y="371"/>
      <point x="162" y="371" type="curve" smooth="yes"/>
      <point x="274" y="371"/>
      <point x="312" y="423"/>
      <point x="312" y="552" type="curve" smooth="yes"/>
      <point x="312" y="673"/>
      <point x="275" y="725"/>
    </contour>
    <contour>
      <point x="144" y="552" type="curve" smooth="yes"/>
      <point x="144" y="615"/>
      <point x="152" y="615"/>
      <point x="162" y="615" type="curve" smooth="yes"/>
      <point x="171" y="615"/>
      <point x="178" y="615"/>
      <point x="178" y="552" type="curve" smooth="yes"/>
      <point x="178" y="481"/>
      <point x="171" y="481"/>
      <point x="162" y="481" type="curve" smooth="yes"/>
      <point x="152" y="481"/>
      <point x="144" y="481"/>
    </contour>
    <contour>
      <point x="437" y="752" type="line"/>
      <point x="237" y="-43" type="line"/>
      <point x="280" y="-51" type="line"/>
      <point x="481" y="743" type="line"/>
    </contour>
    <contour>
      <point x="406" y="167" type="curve" smooth="yes"/>
      <point x="406" y="38"/>
      <point x="445" y="-14"/>
      <point x="558" y="-14" type="curve" smooth="yes"/>
      <point x="670" y="-14"/>
      <point x="708" y="38"/>
      <point x="708" y="167" type="curve" smooth="yes"/>
      <point x="708" y="288"/>
      <point x="671" y="340"/>
      <point x="558" y="340" type="curve" smooth="yes"/>
      <point x="447" y="340"/>
      <point x="406" y="288"/>
    </contour>
    <contour>
      <point x="540" y="167" type="curve" smooth="yes"/>
      <point x="540" y="230"/>
      <point x="548" y="230"/>
      <point x="558" y="230" type="curve" smooth="yes"/>
      <point x="567" y="230"/>
      <point x="574" y="230"/>
      <point x="574" y="167" type="curve" smooth="yes"/>
      <point x="574" y="96"/>
      <point x="567" y="96"/>
      <point x="558" y="96" type="curve" smooth="yes"/>
      <point x="548" y="96"/>
      <point x="540" y="96"/>
    </contour>
  </outline>
</glyph>
<glyph name="parenright" format="2">
  <advance width="349"/>
  <unicode hex="0029"/>
  <note>
parenright
</note>
  <outline>
    <contour>
      <point x="206" y="750" type="curve"/>
      <point x="11" y="750" type="line"/>
      <point x="11" y="750"/>
      <point x="101" y="540"/>
      <point x="101" y="301" type="curve" smooth="yes"/>
      <point x="101" y="62"/>
      <point x="11" y="-125"/>
      <point x="11" y="-125" type="curve"/>
      <point x="206" y="-125" type="line"/>
      <point x="206" y="-125"/>
      <point x="328" y="41"/>
      <point x="328" y="301" type="curve" smooth="yes"/>
      <point x="328" y="561"/>
      <point x="206" y="750"/>
    </contour>
  </outline>
</glyph>
<glyph name="hyphen" format="2">
  <advance width="360"/>
  <unicode hex="002D"/>
  <note>
hyphen
</note>
  <outline>
    <contour>
      <point x="329" y="374" type="line"/>
      <point x="31" y="374" type="line"/>
      <point x="31" y="194" type="line"/>
      <point x="329" y="194" type="line"/>
    </contour>
  </outline>
</glyph>
<glyph name="colon" format="2">
  <advance width="303"/>
  <unicode hex="003A"/>
  <note>
colon
</note>
  <outline>
    <contour>
      <point x="270" y="200" type="line"/>
      <point x="33" y="200" type="line"/>
      <point x="33" y="0" type="line"/>
      <point x="270" y="0" type="line"/>
    </contour>
    <contour>
      <point x="33" y="495" type="line"/>
      <point x="33" y="295" type="line"/>
      <point x="270" y="295" type="line"/>
      <point x="270" y="495" type="line"/>
    </contour>
  </outline>
</glyph>
<glyph name="semicolon" format="2">
  <advance width="313"/>
  <unicode hex="003B"/>
  <note>
semicolon
</note>
  <outline>
    <contour>
      <point x="280" y="200" type="line"/>
      <point x="38" y="200" type="line"/>
      <point x="16" y="-103" type="line"/>
      <point x="201" y="-103" type="line"/>
    </contour>
    <contour>
      <point x="48" y="495" type="line"/>
      <point x="48" y="295" type="line"/>
      <point x="285" y="295" type="line"/>
      <point x="285" y="495" type="line"/>
    </contour>
  </outline>
</glyph>
<glyph name="less" format="2">
  <advance width="560"/>
  <unicode hex="003C"/>
  <note>
less
</note>
  <outline>
    <contour>
      <point x="487" y="213" type="line"/>
      <point x="232" y="284" type="line"/>
      <point x="487" y="355" type="line"/>
      <point x="487" y="555" type="line"/>
      <point x="71" y="398" type="line"/>
      <point x="71" y="170" type="line"/>
      <point x="487" y="13" type="line"/>
    </contour>
  </outline>
</glyph>
<glyph name="backslash" format="2">
  <advance width="495"/>
  <unicode hex="005C"/>
  <note>
backslash
</note>
  <outline>
    <contour>
      <point x="488" y="24" type="line"/>
      <point x="192" y="734" type="line"/>
      <point x="6" y="654" type="line"/>
      <point x="302" y="-56" type="line"/>
    </contour>
  </outline>
</glyph>
<glyph name="bracketright" format="2">
  <advance width="361"/>
  <unicode hex="005D"/>
  <note>
bracketright
</note>
  <outline>
    <contour>
      <point x="25" y="750" type="line"/>
      <point x="25" y="570" type="line"/>
      <point x="99" y="570" type="line"/>
      <point x="99" y="55" type="line"/>
      <point x="25" y="55" type="line"/>
      <point x="25" y="-125" type="line"/>
      <point x="324" y="-125" type="line"/>
      <point x="324" y="750" type="line"/>
    </contour>
  </outline>
</glyph>
<glyph name="grave" format="2">
  <advance width="446"/>
  <unicode hex="0060"/>
  <note>
grave
</note>
  <outline>
    <contour>
      <point x="396" y="680" type="line"/>
      <point x="109" y="800" type="line"/>
      <point x="50" y="640" type="line"/>
      <point x="356" y="561" type="line"/>
    </contour>
  </outline>
</glyph>
<glyph name="i" format="2">
  <advance width="284"/>
  <unicode hex="0069"/>
  <note>
i
</note>
  <anchor x="142" y="0" name="bottom"/>
  <anchor x="254" y="0" name="ogonek"/>
  <anchor x="142" y="730" name="top"/>
  <outline>
    <contour>
      <point x="254" y="520" type="line"/>
      <point x="30" y="520" type="line"/>
      <point x="30" y="0" type="line"/>
      <point x="254" y="0" type="line"/>
    </contour>
    <contour>
      <point x="29" y="730" type="line"/>
      <point x="29" y="566" type="line"/>
      <point x="255" y="566" type="line"/>
      <point x="255" y="730" type="line"/>
    </contour>
  </outline>
</glyph>
<glyph name="braceright" format="2">
  <advance width="372"/>
  <unicode hex="007D"/>
  <note>
braceright
</note>
  <outline>
    <contour>
      <point x="90" y="201" type="curve" smooth="yes"/>
      <point x="90" y="172"/>
      <point x="93" y="147"/>
      <point x="93" y="114" type="curve" smooth="yes"/>
      <point x="93" y="64"/>
      <point x="83" y="52"/>
      <point x="22" y="47" type="curve"/>
      <point x="22" y="-133" type="line"/>
      <point x="202" y="-133"/>
      <point x="320" y="-116"/>
      <point x="320" y="39" type="curve" smooth="yes"/>
      <point x="320" y="78"/>
      <point x="307" y="166"/>
      <point x="307" y="190" type="curve" smooth="yes"/>
      <point x="307" y="210"/>
      <point x="322" y="224"/>
      <point x="351" y="230" type="curve"/>
      <point x="351" y="399" type="line"/>
      <point x="322" y="404"/>
      <point x="307" y="417"/>
      <point x="307" y="433" type="curve" smooth="yes"/>
      <point x="307" y="469"/>
      <point x="320" y="546"/>
      <point x="320" y="583" type="curve" smooth="yes"/>
      <point x="320" y="745"/>
      <point x="200" y="758"/>
      <point x="22" y="758" type="curve"/>
      <point x="22" y="578" type="line"/>
      <point x="83" y="573"/>
      <point x="93" y="565"/>
      <point x="93" y="515" type="curve" smooth="yes"/>
      <point x="93" y="482"/>
      <point x="90" y="454"/>
      <point x="90" y="417" type="curve" smooth="yes"/>
      <point x="90" y="347"/>
      <point x="103" y="335"/>
      <point x="146" y="311" type="curve"/>
      <point x="103" y="289"/>
      <point x="90" y="269"/>
    </contour>
  </outline>
</glyph>
<glyph name="exclamdown" format="2">
  <advance width="296"/>
  <unicode hex="00A1"/>
  <note>
exclamdown
</note>
  <outline>
    <contour>
      <point x="34" y="520" type="line"/>
      <point x="34" y="330" type="line"/>
      <point x="262" y="330" type="line"/>
      <point x="262" y="520" type="line"/>
    </contour>
    <contour>
      <point x="48" y="266" type="line"/>
      <point x="27" y="-180" type="line"/>
      <point x="269" y="-180" type="line"/>
      <point x="248" y="266" type="line"/>
    </contour>
  </outline>
</glyph>
<glyph name="dieresis" format="2">
  <advance width="498"/>
  <unicode hex="00A8"/>
  <note>
dieresis
</note>
  <outline>
    <contour>
      <point x="448" y="730" type="line"/>
      <point x="274" y="730" type="line"/>
      <point x="274" y="576" type="line"/>
      <point x="448" y="576" type="line"/>
    </contour>
    <contour>
      <point x="50" y="730" type="line"/>
      <point x="50" y="576" type="line"/>
      <point x="224" y="576" type="line"/>
      <point x="224" y="730" type="line"/>
    </contour>
  </outline>
</glyph>
<glyph name="guillemotleft" format="2">
  <advance width="710"/>
  <unicode hex="00AB"/>
  <note>
guillemotleft
</note>
  <outline>
    <contour>
      <point x="368" y="136" type="line"/>
      <point x="232" y="259" type="line"/>
      <point x="368" y="382" type="line"/>
      <point x="257" y="519" type="line"/>
      <point x="27" y="339" type="line"/>
      <point x="27" y="179" type="line"/>
      <point x="257" y="-1" type="line"/>
    </contour>
    <contour>
      <point x="362" y="338" type="line"/>
      <point x="362" y="181" type="line"/>
      <point x="588" y="5" type="line"/>
      <point x="697" y="139" type="line"/>
      <point x="563" y="260" type="line"/>
      <point x="697" y="381" type="line"/>
      <point x="588" y="515" type="line"/>
    </contour>
  </outline>
</glyph>
<glyph name="uni00AD" format="2">
  <advance width="0"/>
  <unicode hex="00AD"/>
  <note>
uni00AD
</note>
  <outline>
    <contour>
      <point x="149" y="374" type="line"/>
      <point x="-149" y="374" type="line"/>
      <point x="-149" y="194" type="line"/>
      <point x="149" y="194" type="line"/>
    </contour>
  </outline>
</glyph>
<glyph name="uni00B2" format="2">
  <advance width="301"/>
  <unicode hex="00B2"/>
  <note>
uni00B2
</note>
  <outline>
    <contour>
      <point x="18" y="507" type="line"/>
      <point x="18" y="407" type="line"/>
      <point x="283" y="407" type="line"/>
      <point x="283" y="516" type="line"/>
      <point x="182" y="516" type="line"/>
      <point x="226" y="541" type="line" smooth="yes"/>
      <point x="267" y="564"/>
      <point x="281" y="596"/>
      <point x="281" y="643" type="curve" smooth="yes"/>
      <point x="281" y="713"/>
      <point x="241" y="747"/>
      <point x="146" y="747" type="curve" smooth="yes"/>
      <point x="101" y="747"/>
      <point x="18" y="736"/>
      <point x="18" y="736" type="curve"/>
      <point x="23" y="623" type="line"/>
      <point x="23" y="623"/>
      <point x="66" y="628"/>
      <point x="96" y="628" type="curve" smooth="yes"/>
      <point x="121" y="628"/>
      <point x="125" y="621"/>
      <point x="125" y="609" type="curve" smooth="yes"/>
      <point x="125" y="594"/>
      <point x="118" y="583"/>
      <point x="87" y="559" type="curve" smooth="yes"/>
    </contour>
  </outline>
</glyph>
<glyph name="uni00B3" format="2">
  <advance width="311"/>
  <unicode hex="00B3"/>
  <note>
uni00B3
</note>
  <outline>
    <contour>
      <point x="18" y="739" type="curve"/>
      <point x="24" y="638" type="line"/>
      <point x="24" y="638"/>
      <point x="96" y="644"/>
      <point x="113" y="644" type="curve" smooth="yes"/>
      <point x="131" y="644"/>
      <point x="140" y="643"/>
      <point x="140" y="632" type="curve" smooth="yes"/>
      <point x="140" y="620"/>
      <point x="131" y="617"/>
      <point x="116" y="617" type="curve" smooth="yes"/>
      <point x="47" y="617" type="line"/>
      <point x="47" y="522" type="line"/>
      <point x="120" y="522" type="line" smooth="yes"/>
      <point x="136" y="522"/>
      <point x="143" y="520"/>
      <point x="143" y="510" type="curve" smooth="yes"/>
      <point x="143" y="497"/>
      <point x="134" y="497"/>
      <point x="114" y="497" type="curve" smooth="yes"/>
      <point x="99" y="497"/>
      <point x="21" y="503"/>
      <point x="21" y="503" type="curve"/>
      <point x="14" y="402" type="line"/>
      <point x="14" y="402"/>
      <point x="102" y="393"/>
      <point x="156" y="393" type="curve" smooth="yes"/>
      <point x="241" y="393"/>
      <point x="296" y="418"/>
      <point x="296" y="500" type="curve" smooth="yes"/>
      <point x="296" y="542"/>
      <point x="281" y="559"/>
      <point x="247" y="576" type="curve"/>
      <point x="277" y="590"/>
      <point x="289" y="614"/>
      <point x="289" y="649" type="curve" smooth="yes"/>
      <point x="289" y="724"/>
      <point x="230" y="747"/>
      <point x="148" y="747" type="curve" smooth="yes"/>
      <point x="104" y="747"/>
      <point x="18" y="739"/>
    </contour>
  </outline>
</glyph>
<glyph name="acute" format="2">
  <advance width="446"/>
  <unicode hex="00B4"/>
  <note>
acute
</note>
  <outline>
    <contour>
      <point x="396" y="640" type="line"/>
      <point x="337" y="800" type="line"/>
      <point x="50" y="680" type="line"/>
      <point x="90" y="561" type="line"/>
    </contour>
  </outline>
</glyph>
<glyph name="uni00B9" format="2">
  <advance width="272"/>
  <unicode hex="00B9"/>
  <note>
uni00B9
</note>
  <outline>
    <contour>
      <point x="249" y="738" type="line"/>
      <point x="125" y="738" type="line"/>
      <point x="-1" y="665" type="line"/>
      <point x="42" y="552" type="line"/>
      <point x="101" y="582" type="line"/>
      <point x="101" y="407" type="line"/>
      <point x="249" y="407" type="line"/>
    </contour>
  </outline>
</glyph>
<glyph name="guillemotright" format="2">
  <advance width="710"/>
  <unicode hex="00BB"/>
  <note>
guillemotright
</note>
  <outline>
    <contour>
      <point x="342" y="382" type="line"/>
      <point x="478" y="259" type="line"/>
      <point x="342" y="136" type="line"/>
      <point x="453" y="-1" type="line"/>
      <point x="683" y="179" type="line"/>
      <point x="683" y="339" type="line"/>
      <point x="453" y="519" type="line"/>
    </contour>
    <contour>
      <point x="147" y="260" type="line"/>
      <point x="13" y="139" type="line"/>
      <point x="122" y="5" type="line"/>
      <point x="348" y="181" type="line"/>
      <point x="348" y="338" type="line"/>
      <point x="122" y="515" type="line"/>
      <point x="13" y="381" type="line"/>
    </contour>
  </outline>
</glyph>
<glyph name="onehalf" format="2">
  <advance width="665"/>
  <unicode hex="00BD"/>
  <note>
onehalf
</note>
  <outline>
    <contour>
      <point x="256" y="716" type="line"/>
      <point x="132" y="716" type="line"/>
      <point x="6" y="643" type="line"/>
      <point x="49" y="530" type="line"/>
      <point x="108" y="560" type="line"/>
      <point x="108" y="385" type="line"/>
      <point x="256" y="385" type="line"/>
    </contour>
    <contour>
      <point x="406" y="752" type="line"/>
      <point x="206" y="-43" type="line"/>
      <point x="249" y="-51" type="line"/>
      <point x="450" y="743" type="line"/>
    </contour>
    <contour>
      <point x="380" y="100" type="line"/>
      <point x="380" y="0" type="line"/>
      <point x="645" y="0" type="line"/>
      <point x="645" y="109" type="line"/>
      <point x="544" y="109" type="line"/>
      <point x="588" y="134" type="line" smooth="yes"/>
      <point x="629" y="157"/>
      <point x="643" y="189"/>
      <point x="643" y="236" type="curve" smooth="yes"/>
      <point x="643" y="306"/>
      <point x="603" y="340"/>
      <point x="508" y="340" type="curve" smooth="yes"/>
      <point x="463" y="340"/>
      <point x="380" y="329"/>
      <point x="380" y="329" type="curve"/>
      <point x="385" y="216" type="line"/>
      <point x="385" y="216"/>
      <point x="428" y="221"/>
      <point x="458" y="221" type="curve" smooth="yes"/>
      <point x="483" y="221"/>
      <point x="487" y="214"/>
      <point x="487" y="202" type="curve" smooth="yes"/>
      <point x="487" y="187"/>
      <point x="480" y="176"/>
      <point x="449" y="152" type="curve" smooth="yes"/>
    </contour>
  </outline>
</glyph>
<glyph name="threequarters" format="2">
  <advance width="707"/>
  <unicode hex="00BE"/>
  <note>
threequarters
</note>
  <outline>
    <contour>
      <point x="19" y="717" type="curve"/>
      <point x="25" y="616" type="line"/>
      <point x="25" y="616"/>
      <point x="97" y="622"/>
      <point x="114" y="622" type="curve" smooth="yes"/>
      <point x="132" y="622"/>
      <point x="141" y="621"/>
      <point x="141" y="610" type="curve" smooth="yes"/>
      <point x="141" y="598"/>
      <point x="132" y="595"/>
      <point x="117" y="595" type="curve" smooth="yes"/>
      <point x="48" y="595" type="line"/>
      <point x="48" y="500" type="line"/>
      <point x="121" y="500" type="line" smooth="yes"/>
      <point x="137" y="500"/>
      <point x="144" y="498"/>
      <point x="144" y="488" type="curve" smooth="yes"/>
      <point x="144" y="475"/>
      <point x="135" y="475"/>
      <point x="115" y="475" type="curve" smooth="yes"/>
      <point x="100" y="475"/>
      <point x="22" y="481"/>
      <point x="22" y="481" type="curve"/>
      <point x="15" y="380" type="line"/>
      <point x="15" y="380"/>
      <point x="103" y="371"/>
      <point x="157" y="371" type="curve" smooth="yes"/>
      <point x="242" y="371"/>
      <point x="297" y="396"/>
      <point x="297" y="478" type="curve" smooth="yes"/>
      <point x="297" y="520"/>
      <point x="282" y="537"/>
      <point x="248" y="554" type="curve"/>
      <point x="278" y="568"/>
      <point x="290" y="592"/>
      <point x="290" y="627" type="curve" smooth="yes"/>
      <point x="290" y="702"/>
      <point x="231" y="725"/>
      <point x="149" y="725" type="curve" smooth="yes"/>
      <point x="105" y="725"/>
      <point x="19" y="717"/>
    </contour>
    <contour>
      <point x="422" y="752" type="line"/>
      <point x="222" y="-43" type="line"/>
      <point x="265" y="-51" type="line"/>
      <point x="466" y="743" type="line"/>
    </contour>
    <contour>
      <point x="391" y="130" type="line"/>
      <point x="391" y="41" type="line"/>
      <point x="547" y="41" type="line"/>
      <point x="547" y="0" type="line"/>
      <point x="684" y="0" type="line"/>
      <point x="684" y="41" type="line"/>
      <point x="697" y="41" type="line"/>
      <point x="697" y="146" type="line"/>
      <point x="684" y="146" type="line"/>
      <point x="684" y="215" type="line"/>
      <point x="560" y="198" type="line"/>
      <point x="560" y="146" type="line"/>
      <point x="523" y="146" type="line"/>
      <point x="590" y="331" type="line"/>
      <point x="448" y="331" type="line"/>
    </contour>
  </outline>
</glyph>
<glyph name="questiondown" format="2">
  <advance width="462"/>
  <unicode hex="00BF"/>
  <note>
questiondown
</note>
  <outline>
    <contour>
      <point x="11" y="2" type="curve" smooth="yes"/>
      <point x="11" y="-149"/>
      <point x="78" y="-195"/>
      <point x="215" y="-195" type="curve" smooth="yes"/>
      <point x="337" y="-195"/>
      <point x="450" y="-163"/>
      <point x="450" y="-163" type="curve"/>
      <point x="443" y="-1" type="line"/>
      <point x="443" y="-1"/>
      <point x="367" y="-15"/>
      <point x="307" y="-15" type="curve" smooth="yes"/>
      <point x="253" y="-15"/>
      <point x="237" y="-6"/>
      <point x="237" y="25" type="curve" smooth="yes"/>
      <point x="237" y="46"/>
      <point x="244" y="57"/>
      <point x="290" y="91" type="curve" smooth="yes"/>
      <point x="362" y="144"/>
      <point x="375" y="169"/>
      <point x="375" y="203" type="curve" smooth="yes"/>
      <point x="375" y="247"/>
      <point x="354" y="266"/>
      <point x="354" y="266" type="curve"/>
      <point x="179" y="266" type="line"/>
      <point x="178" y="247" type="line" smooth="yes"/>
      <point x="177" y="230"/>
      <point x="160" y="213"/>
      <point x="99" y="176" type="curve" smooth="yes"/>
      <point x="32" y="135"/>
      <point x="11" y="87"/>
    </contour>
    <contour>
      <point x="146" y="520" type="line"/>
      <point x="146" y="330" type="line"/>
      <point x="374" y="330" type="line"/>
      <point x="374" y="520" type="line"/>
    </contour>
  </outline>
</glyph>
<glyph name="Agrave" format="2">
  <advance width="657"/>
  <unicode hex="00C0"/>
  <note>
Agrave
</note>
  <anchor x="329" y="0" name="bottom"/>
  <anchor x="654" y="0" name="ogonek"/>
  <anchor x="329" y="990" name="top"/>
  <outline>
    <contour>
      <point x="316" y="528" type="line"/>
      <point x="341" y="528" type="line"/>
      <point x="377" y="290" type="line"/>
      <point x="278" y="290" type="line"/>
    </contour>
    <contour>
      <point x="152" y="710" type="line"/>
      <point x="4" y="0" type="line"/>
      <point x="232" y="0" type="line"/>
      <point x="248" y="113" type="line"/>
      <point x="401" y="113" type="line"/>
      <point x="420" y="0" type="line"/>
      <point x="654" y="0" type="line"/>
      <point x="503" y="710" type="line"/>
    </contour>
    <contour>
      <point x="215" y="990" type="line"/>
      <point x="156" y="830" type="line"/>
      <point x="462" y="751" type="line"/>
      <point x="502" y="870" type="line"/>
    </contour>
  </outline>
</glyph>
<glyph name="Aacute" format="2">
  <advance width="657"/>
  <unicode hex="00C1"/>
  <note>
Aacute
</note>
  <anchor x="329" y="0" name="bottom"/>
  <anchor x="654" y="0" name="ogonek"/>
  <anchor x="329" y="990" name="top"/>
  <outline>
    <contour>
      <point x="316" y="528" type="line"/>
      <point x="341" y="528" type="line"/>
      <point x="377" y="290" type="line"/>
      <point x="278" y="290" type="line"/>
    </contour>
    <contour>
      <point x="152" y="710" type="line"/>
      <point x="4" y="0" type="line"/>
      <point x="232" y="0" type="line"/>
      <point x="248" y="113" type="line"/>
      <point x="401" y="113" type="line"/>
      <point x="420" y="0" type="line"/>
      <point x="654" y="0" type="line"/>
      <point x="503" y="710" type="line"/>
    </contour>
    <contour>
      <point x="443" y="990" type="line"/>
      <point x="156" y="870" type="line"/>
      <point x="196" y="751" type="line"/>
      <point x="502" y="830" type="line"/>
    </contour>
  </outline>
</glyph>
<glyph name="Atilde" format="2">
  <advance width="657"/>
  <unicode hex="00C3"/>
  <note>
Atilde
</note>
  <anchor x="329" y="0" name="bottom"/>
  <anchor x="654" y="0" name="ogonek"/>
  <anchor x="329" y="945" name="top"/>
  <outline>
    <contour>
      <point x="316" y="528" type="line"/>
      <point x="341" y="528" type="line"/>
      <point x="377" y="290" type="line"/>
      <point x="278" y="290" type="line"/>
    </contour>
    <contour>
      <point x="152" y="710" type="line"/>
      <point x="4" y="0" type="line"/>
      <point x="232" y="0" type="line"/>
      <point x="248" y="113" type="line"/>
      <point x="401" y="113" type="line"/>
      <point x="420" y="0" type="line"/>
      <point x="654" y="0" type="line"/>
      <point x="503" y="710" type="line"/>
    </contour>
    <contour>
      <point x="115" y="867" type="curve"/>
      <point x="179" y="764" type="line"/>
      <point x="179" y="764"/>
      <point x="231" y="801"/>
      <point x="259" y="801" type="curve" smooth="yes"/>
      <point x="292" y="801"/>
      <point x="336" y="757"/>
      <point x="388" y="757" type="curve" smooth="yes"/>
      <point x="442" y="757"/>
      <point x="543" y="839"/>
      <point x="543" y="839" type="curve"/>
      <point x="480" y="945" type="line"/>
      <point x="480" y="945"/>
      <point x="409" y="898"/>
      <point x="383" y="898" type="curve" smooth="yes"/>
      <point x="355" y="898"/>
      <point x="318" y="941"/>
      <point x="257" y="941" type="curve" smooth="yes"/>
      <point x="204" y="941"/>
      <point x="115" y="867"/>
    </contour>
  </outline>
</glyph>
<glyph name="Adieresis" format="2">
  <advance width="657"/>
  <unicode hex="00C4"/>
  <note>
Adieresis
</note>
  <anchor x="329" y="0" name="bottom"/>
  <anchor x="654" y="0" name="ogonek"/>
  <anchor x="329" y="911" name="top"/>
  <outline>
    <contour>
      <point x="316" y="528" type="line"/>
      <point x="341" y="528" type="line"/>
      <point x="377" y="290" type="line"/>
      <point x="278" y="290" type="line"/>
    </contour>
    <contour>
      <point x="152" y="710" type="line"/>
      <point x="4" y="0" type="line"/>
      <point x="232" y="0" type="line"/>
      <point x="248" y="113" type="line"/>
      <point x="401" y="113" type="line"/>
      <point x="420" y="0" type="line"/>
      <point x="654" y="0" type="line"/>
      <point x="503" y="710" type="line"/>
    </contour>
    <contour>
      <point x="120" y="911" type="line"/>
      <point x="120" y="757" type="line"/>
      <point x="304" y="757" type="line"/>
      <point x="304" y="911" type="line"/>
    </contour>
    <contour>
      <point x="354" y="911" type="line"/>
      <point x="354" y="757" type="line"/>
      <point x="538" y="757" type="line"/>
      <point x="538" y="911" type="line"/>
    </contour>
  </outline>
</glyph>
<glyph name="Aring" format="2">
  <advance width="657"/>
  <unicode hex="00C5"/>
  <note>
Aring
</note>
  <anchor x="329" y="0" name="bottom"/>
  <anchor x="654" y="0" name="ogonek"/>
  <anchor x="329" y="930" name="top"/>
  <outline>
    <contour>
      <point x="316" y="528" type="line"/>
      <point x="341" y="528" type="line"/>
      <point x="377" y="290" type="line"/>
      <point x="278" y="290" type="line"/>
    </contour>
    <contour>
      <point x="152" y="710" type="line"/>
      <point x="4" y="0" type="line"/>
      <point x="232" y="0" type="line"/>
      <point x="248" y="113" type="line"/>
      <point x="401" y="113" type="line"/>
      <point x="420" y="0" type="line"/>
      <point x="654" y="0" type="line"/>
      <point x="503" y="710" type="line"/>
    </contour>
    <contour>
      <point x="175" y="831" type="curve" smooth="yes"/>
      <point x="175" y="762"/>
      <point x="230" y="732"/>
      <point x="329" y="732" type="curve" smooth="yes"/>
      <point x="428" y="732"/>
      <point x="483" y="762"/>
      <point x="483" y="831" type="curve" smooth="yes"/>
      <point x="483" y="900"/>
      <point x="428" y="930"/>
      <point x="329" y="930" type="curve" smooth="yes"/>
      <point x="230" y="930"/>
      <point x="175" y="900"/>
    </contour>
    <contour>
      <point x="299" y="831" type="curve" smooth="yes"/>
      <point x="299" y="843"/>
      <point x="309" y="847"/>
      <point x="329" y="847" type="curve" smooth="yes"/>
      <point x="348" y="847"/>
      <point x="359" y="843"/>
      <point x="359" y="831" type="curve" smooth="yes"/>
      <point x="359" y="818"/>
      <point x="348" y="814"/>
      <point x="329" y="814" type="curve" smooth="yes"/>
      <point x="309" y="814"/>
      <point x="299" y="818"/>
    </contour>
  </outline>
</glyph>
<glyph name="Ccedilla" format="2">
  <advance width="560"/>
  <unicode hex="00C7"/>
  <note>
Ccedilla
</note>
  <anchor x="312" y="-240" name="bottom"/>
  <anchor x="345" y="710" name="top"/>
  <outline>
    <contour>
      <point x="537" y="13" type="curve"/>
      <point x="534" y="189" type="line"/>
      <point x="534" y="189"/>
      <point x="443" y="183"/>
      <point x="387" y="183" type="curve" smooth="yes"/>
      <point x="282" y="183"/>
      <point x="262" y="202"/>
      <point x="262" y="355" type="curve" smooth="yes"/>
      <point x="262" y="512"/>
      <point x="281" y="530"/>
      <point x="375" y="530" type="curve" smooth="yes"/>
      <point x="443" y="530"/>
      <point x="531" y="520"/>
      <point x="531" y="520" type="curve"/>
      <point x="537" y="699" type="line"/>
      <point x="537" y="699"/>
      <point x="419" y="726"/>
      <point x="304" y="726" type="curve" smooth="yes"/>
      <point x="112" y="726"/>
      <point x="26" y="644"/>
      <point x="26" y="347" type="curve" smooth="yes"/>
      <point x="26" y="98"/>
      <point x="87" y="8"/>
      <point x="246" y="-10" type="curve"/>
      <point x="228" y="-109" type="line"/>
      <point x="237" y="-109" type="line" smooth="yes"/>
      <point x="266" y="-109"/>
      <point x="275" y="-112"/>
      <point x="275" y="-129" type="curve" smooth="yes"/>
      <point x="275" y="-144"/>
      <point x="267" y="-151"/>
      <point x="237" y="-151" type="curve" smooth="yes"/>
      <point x="220" y="-151"/>
      <point x="189" y="-150"/>
      <point x="189" y="-150" type="curve"/>
      <point x="185" y="-231" type="line"/>
      <point x="185" y="-231"/>
      <point x="245" y="-240"/>
      <point x="302" y="-240" type="curve" smooth="yes"/>
      <point x="406" y="-240"/>
      <point x="439" y="-210"/>
      <point x="439" y="-137" type="curve" smooth="yes"/>
      <point x="439" y="-59"/>
      <point x="401" y="-42"/>
      <point x="316" y="-41" type="curve"/>
      <point x="321" y="-13" type="line"/>
      <point x="437" y="-12"/>
      <point x="537" y="13"/>
    </contour>
  </outline>
</glyph>
<glyph name="Egrave" format="2">
  <advance width="571"/>
  <unicode hex="00C8"/>
  <note>
Egrave
</note>
  <anchor x="298" y="0" name="bottom"/>
  <anchor x="506" y="0" name="ogonek"/>
  <anchor x="301" y="990" name="top"/>
  <outline>
    <contour>
      <point x="542" y="710" type="line"/>
      <point x="40" y="710" type="line"/>
      <point x="40" y="0" type="line"/>
      <point x="542" y="0" type="line"/>
      <point x="542" y="185" type="line"/>
      <point x="272" y="185" type="line"/>
      <point x="272" y="276" type="line"/>
      <point x="482" y="276" type="line"/>
      <point x="482" y="446" type="line"/>
      <point x="272" y="446" type="line"/>
      <point x="272" y="525" type="line"/>
      <point x="542" y="525" type="line"/>
    </contour>
    <contour>
      <point x="187" y="990" type="line"/>
      <point x="128" y="830" type="line"/>
      <point x="434" y="751" type="line"/>
      <point x="474" y="870" type="line"/>
    </contour>
  </outline>
</glyph>
<glyph name="Eacute" format="2">
  <advance width="571"/>
  <unicode hex="00C9"/>
  <note>
Eacute
</note>
  <anchor x="298" y="0" name="bottom"/>
  <anchor x="506" y="0" name="ogonek"/>
  <anchor x="301" y="990" name="top"/>
  <outline>
    <contour>
      <point x="542" y="710" type="line"/>
      <point x="40" y="710" type="line"/>
      <point x="40" y="0" type="line"/>
      <point x="542" y="0" type="line"/>
      <point x="542" y="185" type="line"/>
      <point x="272" y="185" type="line"/>
      <point x="272" y="276" type="line"/>
      <point x="482" y="276" type="line"/>
      <point x="482" y="446" type="line"/>
      <point x="272" y="446" type="line"/>
      <point x="272" y="525" type="line"/>
      <point x="542" y="525" type="line"/>
    </contour>
    <contour>
      <point x="415" y="990" type="line"/>
      <point x="128" y="870" type="line"/>
      <point x="168" y="751" type="line"/>
      <point x="474" y="830" type="line"/>
    </contour>
  </outline>
</glyph>
<glyph name="Ecircumflex" format="2">
  <advance width="571"/>
  <unicode hex="00CA"/>
  <note>
Ecircumflex
</note>
  <anchor x="298" y="0" name="bottom"/>
  <anchor x="506" y="0" name="ogonek"/>
  <anchor x="301" y="937" name="top"/>
  <outline>
    <contour>
      <point x="542" y="710" type="line"/>
      <point x="40" y="710" type="line"/>
      <point x="40" y="0" type="line"/>
      <point x="542" y="0" type="line"/>
      <point x="542" y="185" type="line"/>
      <point x="272" y="185" type="line"/>
      <point x="272" y="276" type="line"/>
      <point x="482" y="276" type="line"/>
      <point x="482" y="446" type="line"/>
      <point x="272" y="446" type="line"/>
      <point x="272" y="525" type="line"/>
      <point x="542" y="525" type="line"/>
    </contour>
    <contour>
      <point x="189" y="937" type="line"/>
      <point x="108" y="757" type="line"/>
      <point x="270" y="757" type="line"/>
      <point x="301" y="840" type="line"/>
      <point x="332" y="757" type="line"/>
      <point x="494" y="757" type="line"/>
      <point x="413" y="937" type="line"/>
    </contour>
  </outline>
</glyph>
<glyph name="Edieresis" format="2">
  <advance width="571"/>
  <unicode hex="00CB"/>
  <note>
Edieresis
</note>
  <anchor x="298" y="0" name="bottom"/>
  <anchor x="506" y="0" name="ogonek"/>
  <anchor x="301" y="911" name="top"/>
  <outline>
    <contour>
      <point x="542" y="710" type="line"/>
      <point x="40" y="710" type="line"/>
      <point x="40" y="0" type="line"/>
      <point x="542" y="0" type="line"/>
      <point x="542" y="185" type="line"/>
      <point x="272" y="185" type="line"/>
      <point x="272" y="276" type="line"/>
      <point x="482" y="276" type="line"/>
      <point x="482" y="446" type="line"/>
      <point x="272" y="446" type="line"/>
      <point x="272" y="525" type="line"/>
      <point x="542" y="525" type="line"/>
    </contour>
    <contour>
      <point x="92" y="911" type="line"/>
      <point x="92" y="757" type="line"/>
      <point x="276" y="757" type="line"/>
      <point x="276" y="911" type="line"/>
    </contour>
    <contour>
      <point x="326" y="911" type="line"/>
      <point x="326" y="757" type="line"/>
      <point x="510" y="757" type="line"/>
      <point x="510" y="911" type="line"/>
    </contour>
  </outline>
</glyph>
<glyph name="Igrave" format="2">
  <advance width="312"/>
  <unicode hex="00CC"/>
  <note>
Igrave
</note>
  <anchor x="156" y="0" name="bottom"/>
  <anchor x="156" y="353" name="center"/>
  <anchor x="271" y="0" name="ogonek"/>
  <anchor x="156" y="990" name="top"/>
  <outline>
    <contour>
      <point x="272" y="710" type="line"/>
      <point x="40" y="710" type="line"/>
      <point x="40" y="0" type="line"/>
      <point x="272" y="0" type="line"/>
    </contour>
    <contour>
      <point x="42" y="990" type="line"/>
      <point x="-17" y="830" type="line"/>
      <point x="289" y="751" type="line"/>
      <point x="329" y="870" type="line"/>
    </contour>
  </outline>
</glyph>
<glyph name="Iacute" format="2">
  <advance width="312"/>
  <unicode hex="00CD"/>
  <note>
Iacute
</note>
  <anchor x="156" y="0" name="bottom"/>
  <anchor x="156" y="353" name="center"/>
  <anchor x="271" y="0" name="ogonek"/>
  <anchor x="156" y="990" name="top"/>
  <outline>
    <contour>
      <point x="272" y="710" type="line"/>
      <point x="40" y="710" type="line"/>
      <point x="40" y="0" type="line"/>
      <point x="272" y="0" type="line"/>
    </contour>
    <contour>
      <point x="270" y="990" type="line"/>
      <point x="-17" y="870" type="line"/>
      <point x="23" y="751" type="line"/>
      <point x="329" y="830" type="line"/>
    </contour>
  </outline>
</glyph>
<glyph name="Icircumflex" format="2">
  <advance width="312"/>
  <unicode hex="00CE"/>
  <note>
Icircumflex
</note>
  <anchor x="156" y="0" name="bottom"/>
  <anchor x="156" y="353" name="center"/>
  <anchor x="271" y="0" name="ogonek"/>
  <anchor x="156" y="937" name="top"/>
  <outline>
    <contour>
      <point x="272" y="710" type="line"/>
      <point x="40" y="710" type="line"/>
      <point x="40" y="0" type="line"/>
      <point x="272" y="0" type="line"/>
    </contour>
    <contour>
      <point x="44" y="937" type="line"/>
      <point x="-37" y="757" type="line"/>
      <point x="125" y="757" type="line"/>
      <point x="156" y="840" type="line"/>
      <point x="187" y="757" type="line"/>
      <point x="349" y="757" type="line"/>
      <point x="268" y="937" type="line"/>
    </contour>
  </outline>
</glyph>
<glyph name="Idieresis" format="2">
  <advance width="312"/>
  <unicode hex="00CF"/>
  <note>
Idieresis
</note>
  <anchor x="156" y="0" name="bottom"/>
  <anchor x="156" y="353" name="center"/>
  <anchor x="271" y="0" name="ogonek"/>
  <anchor x="156" y="911" name="top"/>
  <outline>
    <contour>
      <point x="272" y="710" type="line"/>
      <point x="40" y="710" type="line"/>
      <point x="40" y="0" type="line"/>
      <point x="272" y="0" type="line"/>
    </contour>
    <contour>
      <point x="-53" y="911" type="line"/>
      <point x="-53" y="757" type="line"/>
      <point x="131" y="757" type="line"/>
      <point x="131" y="911" type="line"/>
    </contour>
    <contour>
      <point x="181" y="911" type="line"/>
      <point x="181" y="757" type="line"/>
      <point x="365" y="757" type="line"/>
      <point x="365" y="911" type="line"/>
    </contour>
  </outline>
</glyph>
<glyph name="Eth" format="2">
  <advance width="694"/>
  <unicode hex="00D0"/>
  <note>
Eth
</note>
  <anchor x="335" y="0" name="bottom"/>
  <anchor x="156" y="350" name="center"/>
  <anchor x="356" y="710" name="top"/>
  <outline>
    <contour>
      <point x="68" y="274" type="line"/>
      <point x="68" y="0" type="line"/>
      <point x="401" y="0" type="line" smooth="yes"/>
      <point x="614" y="0"/>
      <point x="668" y="124"/>
      <point x="668" y="360" type="curve" smooth="yes"/>
      <point x="668" y="610"/>
      <point x="604" y="710"/>
      <point x="391" y="710" type="curve" smooth="yes"/>
      <point x="68" y="710" type="line"/>
      <point x="68" y="428" type="line"/>
      <point x="24" y="428" type="line"/>
      <point x="24" y="274" type="line"/>
    </contour>
    <contour>
      <point x="353" y="189" type="curve" smooth="yes"/>
      <point x="300" y="189" type="line"/>
      <point x="300" y="274" type="line"/>
      <point x="381" y="274" type="line"/>
      <point x="381" y="428" type="line"/>
      <point x="300" y="428" type="line"/>
      <point x="300" y="521" type="line"/>
      <point x="353" y="521" type="line" smooth="yes"/>
      <point x="416" y="521"/>
      <point x="432" y="496"/>
      <point x="432" y="360" type="curve" smooth="yes"/>
      <point x="432" y="220"/>
      <point x="416" y="189"/>
    </contour>
  </outline>
</glyph>
<glyph name="Ntilde" format="2">
  <advance width="729"/>
  <unicode hex="00D1"/>
  <note>
Ntilde
</note>
  <anchor x="365" y="0" name="bottom"/>
  <anchor x="365" y="945" name="top"/>
  <outline>
    <contour>
      <point x="260" y="710" type="line"/>
      <point x="40" y="710" type="line"/>
      <point x="40" y="0" type="line"/>
      <point x="272" y="0" type="line"/>
      <point x="272" y="313" type="line"/>
      <point x="297" y="313" type="line"/>
      <point x="469" y="0" type="line"/>
      <point x="689" y="0" type="line"/>
      <point x="689" y="710" type="line"/>
      <point x="457" y="710" type="line"/>
      <point x="457" y="406" type="line"/>
      <point x="432" y="406" type="line"/>
    </contour>
    <contour>
      <point x="151" y="867" type="curve"/>
      <point x="215" y="764" type="line"/>
      <point x="215" y="764"/>
      <point x="267" y="801"/>
      <point x="295" y="801" type="curve" smooth="yes"/>
      <point x="328" y="801"/>
      <point x="372" y="757"/>
      <point x="424" y="757" type="curve" smooth="yes"/>
      <point x="478" y="757"/>
      <point x="579" y="839"/>
      <point x="579" y="839" type="curve"/>
      <point x="516" y="945" type="line"/>
      <point x="516" y="945"/>
      <point x="445" y="898"/>
      <point x="419" y="898" type="curve" smooth="yes"/>
      <point x="391" y="898"/>
      <point x="354" y="941"/>
      <point x="293" y="941" type="curve" smooth="yes"/>
      <point x="240" y="941"/>
      <point x="151" y="867"/>
    </contour>
  </outline>
</glyph>
<glyph name="Ocircumflex" format="2">
  <advance width="684"/>
  <unicode hex="00D4"/>
  <note>
Ocircumflex
</note>
  <anchor x="342" y="0" name="bottom"/>
  <anchor x="342" y="350" name="center"/>
  <anchor x="459" y="0" name="ogonek"/>
  <anchor x="342" y="937" name="top"/>
  <anchor x="664" y="710" name="topright"/>
  <outline>
    <contour>
      <point x="342" y="538" type="curve" smooth="yes"/>
      <point x="412" y="538"/>
      <point x="423" y="487"/>
      <point x="423" y="358" type="curve" smooth="yes"/>
      <point x="423" y="222"/>
      <point x="412" y="175"/>
      <point x="342" y="175" type="curve" smooth="yes"/>
      <point x="272" y="175"/>
      <point x="261" y="222"/>
      <point x="261" y="358" type="curve" smooth="yes"/>
      <point x="261" y="487"/>
      <point x="272" y="538"/>
    </contour>
    <contour>
      <point x="25" y="358" type="curve" smooth="yes"/>
      <point x="25" y="90"/>
      <point x="115" y="-13"/>
      <point x="342" y="-13" type="curve" smooth="yes"/>
      <point x="569" y="-13"/>
      <point x="659" y="90"/>
      <point x="659" y="358" type="curve" smooth="yes"/>
      <point x="659" y="619"/>
      <point x="572" y="726"/>
      <point x="342" y="726" type="curve" smooth="yes"/>
      <point x="112" y="726"/>
      <point x="25" y="619"/>
    </contour>
    <contour>
      <point x="230" y="937" type="line"/>
      <point x="149" y="757" type="line"/>
      <point x="311" y="757" type="line"/>
      <point x="342" y="840" type="line"/>
      <point x="373" y="757" type="line"/>
      <point x="535" y="757" type="line"/>
      <point x="454" y="937" type="line"/>
    </contour>
  </outline>
</glyph>
<glyph name="Otilde" format="2">
  <advance width="684"/>
  <unicode hex="00D5"/>
  <note>
Otilde
</note>
  <anchor x="342" y="0" name="bottom"/>
  <anchor x="342" y="350" name="center"/>
  <anchor x="459" y="0" name="ogonek"/>
  <anchor x="342" y="945" name="top"/>
  <anchor x="664" y="710" name="topright"/>
  <outline>
    <contour>
      <point x="342" y="538" type="curve" smooth="yes"/>
      <point x="412" y="538"/>
      <point x="423" y="487"/>
      <point x="423" y="358" type="curve" smooth="yes"/>
      <point x="423" y="222"/>
      <point x="412" y="175"/>
      <point x="342" y="175" type="curve" smooth="yes"/>
      <point x="272" y="175"/>
      <point x="261" y="222"/>
      <point x="261" y="358" type="curve" smooth="yes"/>
      <point x="261" y="487"/>
      <point x="272" y="538"/>
    </contour>
    <contour>
      <point x="25" y="358" type="curve" smooth="yes"/>
      <point x="25" y="90"/>
      <point x="115" y="-13"/>
      <point x="342" y="-13" type="curve" smooth="yes"/>
      <point x="569" y="-13"/>
      <point x="659" y="90"/>
      <point x="659" y="358" type="curve" smooth="yes"/>
      <point x="659" y="619"/>
      <point x="572" y="726"/>
      <point x="342" y="726" type="curve" smooth="yes"/>
      <point x="112" y="726"/>
      <point x="25" y="619"/>
    </contour>
    <contour>
      <point x="128" y="867" type="curve"/>
      <point x="192" y="764" type="line"/>
      <point x="192" y="764"/>
      <point x="244" y="801"/>
      <point x="272" y="801" type="curve" smooth="yes"/>
      <point x="305" y="801"/>
      <point x="349" y="757"/>
      <point x="401" y="757" type="curve" smooth="yes"/>
      <point x="455" y="757"/>
      <point x="556" y="839"/>
      <point x="556" y="839" type="curve"/>
      <point x="493" y="945" type="line"/>
      <point x="493" y="945"/>
      <point x="422" y="898"/>
      <point x="396" y="898" type="curve" smooth="yes"/>
      <point x="368" y="898"/>
      <point x="331" y="941"/>
      <point x="270" y="941" type="curve" smooth="yes"/>
      <point x="217" y="941"/>
      <point x="128" y="867"/>
    </contour>
  </outline>
</glyph>
<glyph name="Ugrave" format="2">
  <advance width="638"/>
  <unicode hex="00D9"/>
  <note>
Ugrave
</note>
  <anchor x="319" y="0" name="bottom"/>
  <anchor x="445" y="0" name="ogonek"/>
  <anchor x="319" y="990" name="top"/>
  <anchor x="612" y="710" name="topright"/>
  <outline>
    <contour>
      <point x="268" y="230" type="curve" smooth="yes"/>
      <point x="268" y="710" type="line"/>
      <point x="36" y="710" type="line"/>
      <point x="36" y="239" type="line" smooth="yes"/>
      <point x="36" y="45"/>
      <point x="135" y="-14"/>
      <point x="319" y="-14" type="curve" smooth="yes"/>
      <point x="503" y="-14"/>
      <point x="602" y="45"/>
      <point x="602" y="239" type="curve" smooth="yes"/>
      <point x="602" y="710" type="line"/>
      <point x="370" y="710" type="line"/>
      <point x="370" y="230" type="line" smooth="yes"/>
      <point x="370" y="193"/>
      <point x="354" y="177"/>
      <point x="319" y="177" type="curve" smooth="yes"/>
      <point x="284" y="177"/>
      <point x="268" y="193"/>
    </contour>
    <contour>
      <point x="205" y="990" type="line"/>
      <point x="146" y="830" type="line"/>
      <point x="452" y="751" type="line"/>
      <point x="492" y="870" type="line"/>
    </contour>
  </outline>
</glyph>
<glyph name="Udieresis" format="2">
  <advance width="638"/>
  <unicode hex="00DC"/>
  <note>
Udieresis
</note>
  <anchor x="319" y="0" name="bottom"/>
  <anchor x="445" y="0" name="ogonek"/>
  <anchor x="319" y="911" name="top"/>
  <anchor x="612" y="710" name="topright"/>
  <outline>
    <contour>
      <point x="268" y="230" type="curve" smooth="yes"/>
      <point x="268" y="710" type="line"/>
      <point x="36" y="710" type="line"/>
      <point x="36" y="239" type="line" smooth="yes"/>
      <point x="36" y="45"/>
      <point x="135" y="-14"/>
      <point x="319" y="-14" type="curve" smooth="yes"/>
      <point x="503" y="-14"/>
      <point x="602" y="45"/>
      <point x="602" y="239" type="curve" smooth="yes"/>
      <point x="602" y="710" type="line"/>
      <point x="370" y="710" type="line"/>
      <point x="370" y="230" type="line" smooth="yes"/>
      <point x="370" y="193"/>
      <point x="354" y="177"/>
      <point x="319" y="177" type="curve" smooth="yes"/>
      <point x="284" y="177"/>
      <point x="268" y="193"/>
    </contour>
    <contour>
      <point x="110" y="911" type="line"/>
      <point x="110" y="757" type="line"/>
      <point x="294" y="757" type="line"/>
      <point x="294" y="911" type="line"/>
    </contour>
    <contour>
      <point x="344" y="911" type="line"/>
      <point x="344" y="757" type="line"/>
      <point x="528" y="757" type="line"/>
      <point x="528" y="911" type="line"/>
    </contour>
  </outline>
</glyph>
<glyph name="Thorn" format="2">
  <advance width="613"/>
  <unicode hex="00DE"/>
  <note>
Thorn
</note>
  <anchor x="156" y="0" name="bottom"/>
  <anchor x="156" y="353" name="center"/>
  <anchor x="271" y="0" name="ogonek"/>
  <anchor x="156" y="710" name="top"/>
  <outline>
    <contour>
      <point x="321" y="611" type="curve" smooth="yes"/>
      <point x="272" y="611" type="line"/>
      <point x="272" y="710" type="line"/>
      <point x="40" y="710" type="line"/>
      <point x="40" y="0" type="line"/>
      <point x="272" y="0" type="line"/>
      <point x="272" y="89" type="line"/>
      <point x="321" y="89" type="line" smooth="yes"/>
      <point x="509" y="89"/>
      <point x="591" y="163"/>
      <point x="591" y="355" type="curve" smooth="yes"/>
      <point x="591" y="543"/>
      <point x="509" y="611"/>
    </contour>
    <contour>
      <point x="310" y="269" type="curve" smooth="yes"/>
      <point x="272" y="269" type="line"/>
      <point x="272" y="431" type="line"/>
      <point x="309" y="431" type="line" smooth="yes"/>
      <point x="336" y="431"/>
      <point x="356" y="418"/>
      <point x="356" y="353" type="curve" smooth="yes"/>
      <point x="356" y="291"/>
      <point x="338" y="269"/>
    </contour>
  </outline>
</glyph>
<glyph name="atilde" format="2">
  <advance width="561"/>
  <unicode hex="00E3"/>
  <note>
atilde
</note>
  <anchor x="282" y="0" name="bottom"/>
  <anchor x="521" y="0" name="ogonek"/>
  <anchor x="276" y="766" name="top"/>
  <outline>
    <contour>
      <point x="521" y="166" type="curve" smooth="yes"/>
      <point x="521" y="359" type="line" smooth="yes"/>
      <point x="521" y="504"/>
      <point x="421" y="535"/>
      <point x="276" y="535" type="curve" smooth="yes"/>
      <point x="167" y="535"/>
      <point x="35" y="500"/>
      <point x="35" y="500" type="curve"/>
      <point x="40" y="348" type="line"/>
      <point x="40" y="348"/>
      <point x="165" y="361"/>
      <point x="254" y="361" type="curve" smooth="yes"/>
      <point x="280" y="361"/>
      <point x="297" y="356"/>
      <point x="297" y="333" type="curve" smooth="yes"/>
      <point x="297" y="316" type="line"/>
      <point x="205" y="311" type="line" smooth="yes"/>
      <point x="75" y="304"/>
      <point x="13" y="288"/>
      <point x="13" y="157" type="curve" smooth="yes"/>
      <point x="13" y="38"/>
      <point x="77" y="-13"/>
      <point x="193" y="-13" type="curve" smooth="yes"/>
      <point x="285" y="-13"/>
      <point x="332" y="28"/>
      <point x="332" y="28" type="curve"/>
      <point x="385" y="-9"/>
      <point x="452" y="-19"/>
      <point x="542" y="-12" type="curve"/>
      <point x="545" y="141" type="line"/>
      <point x="528" y="141"/>
      <point x="521" y="151"/>
    </contour>
    <contour>
      <point x="52" y="688" type="curve"/>
      <point x="116" y="585" type="line"/>
      <point x="116" y="585"/>
      <point x="168" y="622"/>
      <point x="196" y="622" type="curve" smooth="yes"/>
      <point x="229" y="622"/>
      <point x="293" y="578"/>
      <point x="345" y="578" type="curve" smooth="yes"/>
      <point x="399" y="578"/>
      <point x="500" y="660"/>
      <point x="500" y="660" type="curve"/>
      <point x="437" y="766" type="line"/>
      <point x="437" y="766"/>
      <point x="366" y="719"/>
      <point x="340" y="719" type="curve" smooth="yes"/>
      <point x="312" y="719"/>
      <point x="255" y="762"/>
      <point x="194" y="762" type="curve" smooth="yes"/>
      <point x="141" y="762"/>
      <point x="52" y="688"/>
    </contour>
    <contour>
      <point x="234" y="172" type="curve" smooth="yes"/>
      <point x="234" y="190"/>
      <point x="243" y="201"/>
      <point x="261" y="202" type="curve" smooth="yes"/>
      <point x="297" y="204" type="line"/>
      <point x="297" y="148" type="line"/>
      <point x="297" y="148"/>
      <point x="283" y="141"/>
      <point x="262" y="141" type="curve" smooth="yes"/>
      <point x="244" y="141"/>
      <point x="234" y="151"/>
    </contour>
  </outline>
</glyph>
<glyph name="ccedilla" format="2">
  <advance width="474"/>
  <unicode hex="00E7"/>
  <note>
ccedilla
</note>
  <anchor x="256" y="-240" name="bottom"/>
  <anchor x="260" y="520" name="top"/>
  <outline>
    <contour>
      <point x="254" y="535" type="curve" smooth="yes"/>
      <point x="101" y="535"/>
      <point x="19" y="477"/>
      <point x="19" y="256" type="curve" smooth="yes"/>
      <point x="19" y="89"/>
      <point x="60" y="8"/>
      <point x="190" y="-9" type="curve"/>
      <point x="172" y="-109" type="line"/>
      <point x="181" y="-109" type="line" smooth="yes"/>
      <point x="210" y="-109"/>
      <point x="219" y="-112"/>
      <point x="219" y="-129" type="curve" smooth="yes"/>
      <point x="219" y="-144"/>
      <point x="211" y="-151"/>
      <point x="181" y="-151" type="curve" smooth="yes"/>
      <point x="164" y="-151"/>
      <point x="133" y="-150"/>
      <point x="133" y="-150" type="curve"/>
      <point x="129" y="-231" type="line"/>
      <point x="129" y="-231"/>
      <point x="189" y="-240"/>
      <point x="246" y="-240" type="curve" smooth="yes"/>
      <point x="350" y="-240"/>
      <point x="383" y="-210"/>
      <point x="383" y="-137" type="curve" smooth="yes"/>
      <point x="383" y="-59"/>
      <point x="345" y="-42"/>
      <point x="260" y="-41" type="curve"/>
      <point x="265" y="-13" type="line"/>
      <point x="366" y="-10"/>
      <point x="453" y="15"/>
      <point x="453" y="15" type="curve"/>
      <point x="446" y="190" type="line"/>
      <point x="446" y="190"/>
      <point x="341" y="183"/>
      <point x="302" y="183" type="curve" smooth="yes"/>
      <point x="259" y="183"/>
      <point x="245" y="196"/>
      <point x="245" y="256" type="curve" smooth="yes"/>
      <point x="245" y="318"/>
      <point x="260" y="340"/>
      <point x="302" y="340" type="curve" smooth="yes"/>
      <point x="340" y="340"/>
      <point x="443" y="332"/>
      <point x="443" y="332" type="curve"/>
      <point x="450" y="509" type="line"/>
      <point x="450" y="509"/>
      <point x="356" y="535"/>
    </contour>
  </outline>
</glyph>
<glyph name="igrave" format="2">
  <advance width="284"/>
  <unicode hex="00EC"/>
  <note>
igrave
</note>
  <anchor x="142" y="0" name="bottom"/>
  <anchor x="254" y="0" name="ogonek"/>
  <anchor x="142" y="810" name="top"/>
  <outline>
    <contour>
      <point x="254" y="520" type="line"/>
      <point x="30" y="520" type="line"/>
      <point x="30" y="0" type="line"/>
      <point x="254" y="0" type="line"/>
    </contour>
    <contour>
      <point x="26" y="800" type="line"/>
      <point x="-33" y="640" type="line"/>
      <point x="273" y="561" type="line"/>
      <point x="313" y="680" type="line"/>
    </contour>
  </outline>
</glyph>
<glyph name="iacute" format="2">
  <advance width="284"/>
  <unicode hex="00ED"/>
  <note>
iacute
</note>
  <anchor x="142" y="0" name="bottom"/>
  <anchor x="254" y="0" name="ogonek"/>
  <anchor x="152" y="810" name="top"/>
  <outline>
    <contour>
      <point x="254" y="520" type="line"/>
      <point x="30" y="520" type="line"/>
      <point x="30" y="0" type="line"/>
      <point x="254" y="0" type="line"/>
    </contour>
    <contour>
      <point x="262" y="800" type="line"/>
      <point x="-25" y="680" type="line"/>
      <point x="15" y="561" type="line"/>
      <point x="321" y="640" type="line"/>
    </contour>
  </outline>
</glyph>
<glyph name="idieresis" format="2">
  <advance width="284"/>
  <unicode hex="00EF"/>
  <note>
idieresis
</note>
  <anchor x="142" y="0" name="bottom"/>
  <anchor x="254" y="0" name="ogonek"/>
  <anchor x="142" y="730" name="top"/>
  <outline>
    <contour>
      <point x="254" y="520" type="line"/>
      <point x="30" y="520" type="line"/>
      <point x="30" y="0" type="line"/>
      <point x="254" y="0" type="line"/>
    </contour>
    <contour>
      <point x="-57" y="730" type="line"/>
      <point x="-57" y="576" type="line"/>
      <point x="117" y="576" type="line"/>
      <point x="117" y="730" type="line"/>
    </contour>
    <contour>
      <point x="167" y="730" type="line"/>
      <point x="167" y="576" type="line"/>
      <point x="341" y="576" type="line"/>
      <point x="341" y="730" type="line"/>
    </contour>
  </outline>
</glyph>
<glyph name="ntilde" format="2">
  <advance width="583"/>
  <unicode hex="00F1"/>
  <note>
ntilde
</note>
  <anchor x="291" y="0" name="bottom"/>
  <anchor x="311" y="766" name="top"/>
  <outline>
    <contour>
      <point x="30" y="520" type="line"/>
      <point x="30" y="0" type="line"/>
      <point x="254" y="0" type="line"/>
      <point x="254" y="335" type="line"/>
      <point x="254" y="335"/>
      <point x="278" y="342"/>
      <point x="297" y="342" type="curve" smooth="yes"/>
      <point x="321" y="342"/>
      <point x="333" y="316"/>
      <point x="333" y="255" type="curve" smooth="yes"/>
      <point x="333" y="0" type="line"/>
      <point x="557" y="0" type="line"/>
      <point x="557" y="270" type="line" smooth="yes"/>
      <point x="557" y="468"/>
      <point x="506" y="535"/>
      <point x="399" y="535" type="curve" smooth="yes"/>
      <point x="316" y="535"/>
      <point x="253" y="494"/>
      <point x="253" y="494" type="curve"/>
      <point x="253" y="520" type="line"/>
    </contour>
    <contour>
      <point x="87" y="688" type="curve"/>
      <point x="151" y="585" type="line"/>
      <point x="151" y="585"/>
      <point x="203" y="622"/>
      <point x="231" y="622" type="curve" smooth="yes"/>
      <point x="264" y="622"/>
      <point x="328" y="578"/>
      <point x="380" y="578" type="curve" smooth="yes"/>
      <point x="434" y="578"/>
      <point x="535" y="660"/>
      <point x="535" y="660" type="curve"/>
      <point x="472" y="766" type="line"/>
      <point x="472" y="766"/>
      <point x="401" y="719"/>
      <point x="375" y="719" type="curve" smooth="yes"/>
      <point x="347" y="719"/>
      <point x="290" y="762"/>
      <point x="229" y="762" type="curve" smooth="yes"/>
      <point x="176" y="762"/>
      <point x="87" y="688"/>
    </contour>
  </outline>
</glyph>
<glyph name="otilde" format="2">
  <advance width="566"/>
  <unicode hex="00F5"/>
  <note>
otilde
</note>
  <anchor x="285" y="0" name="bottom"/>
  <anchor x="285" y="260" name="center"/>
  <anchor x="389" y="0" name="ogonek"/>
  <anchor x="285" y="766" name="top"/>
  <anchor x="547" y="520" name="topright"/>
  <outline>
    <contour>
      <point x="283" y="168" type="curve" smooth="yes"/>
      <point x="254" y="169"/>
      <point x="244" y="189"/>
      <point x="244" y="261" type="curve" smooth="yes"/>
      <point x="244" y="333"/>
      <point x="254" y="353"/>
      <point x="283" y="354" type="curve" smooth="yes"/>
      <point x="312" y="353"/>
      <point x="322" y="333"/>
      <point x="322" y="261" type="curve" smooth="yes"/>
      <point x="322" y="189"/>
      <point x="312" y="169"/>
    </contour>
    <contour>
      <point x="18" y="261" type="curve" smooth="yes"/>
      <point x="18" y="59"/>
      <point x="111" y="-13"/>
      <point x="283" y="-14" type="curve" smooth="yes"/>
      <point x="455" y="-13"/>
      <point x="548" y="59"/>
      <point x="548" y="261" type="curve" smooth="yes"/>
      <point x="548" y="461"/>
      <point x="455" y="534"/>
      <point x="283" y="535" type="curve" smooth="yes"/>
      <point x="111" y="534"/>
      <point x="18" y="461"/>
    </contour>
    <contour>
      <point x="61" y="688" type="curve"/>
      <point x="125" y="585" type="line"/>
      <point x="125" y="585"/>
      <point x="177" y="622"/>
      <point x="205" y="622" type="curve" smooth="yes"/>
      <point x="238" y="622"/>
      <point x="302" y="578"/>
      <point x="354" y="578" type="curve" smooth="yes"/>
      <point x="408" y="578"/>
      <point x="509" y="660"/>
      <point x="509" y="660" type="curve"/>
      <point x="446" y="766" type="line"/>
      <point x="446" y="766"/>
      <point x="375" y="719"/>
      <point x="349" y="719" type="curve" smooth="yes"/>
      <point x="321" y="719"/>
      <point x="264" y="762"/>
      <point x="203" y="762" type="curve" smooth="yes"/>
      <point x="150" y="762"/>
      <point x="61" y="688"/>
    </contour>
  </outline>
</glyph>
<glyph name="odieresis" format="2">
  <advance width="566"/>
  <unicode hex="00F6"/>
  <note>
odieresis
</note>
  <anchor x="285" y="0" name="bottom"/>
  <anchor x="285" y="260" name="center"/>
  <anchor x="389" y="0" name="ogonek"/>
  <anchor x="285" y="730" name="top"/>
  <anchor x="547" y="520" name="topright"/>
  <outline>
    <contour>
      <point x="283" y="168" type="curve" smooth="yes"/>
      <point x="254" y="169"/>
      <point x="244" y="189"/>
      <point x="244" y="261" type="curve" smooth="yes"/>
      <point x="244" y="333"/>
      <point x="254" y="353"/>
      <point x="283" y="354" type="curve" smooth="yes"/>
      <point x="312" y="353"/>
      <point x="322" y="333"/>
      <point x="322" y="261" type="curve" smooth="yes"/>
      <point x="322" y="189"/>
      <point x="312" y="169"/>
    </contour>
    <contour>
      <point x="18" y="261" type="curve" smooth="yes"/>
      <point x="18" y="59"/>
      <point x="111" y="-13"/>
      <point x="283" y="-14" type="curve" smooth="yes"/>
      <point x="455" y="-13"/>
      <point x="548" y="59"/>
      <point x="548" y="261" type="curve" smooth="yes"/>
      <point x="548" y="461"/>
      <point x="455" y="534"/>
      <point x="283" y="535" type="curve" smooth="yes"/>
      <point x="111" y="534"/>
      <point x="18" y="461"/>
    </contour>
    <contour>
      <point x="86" y="730" type="line"/>
      <point x="86" y="576" type="line"/>
      <point x="260" y="576" type="line"/>
      <point x="260" y="730" type="line"/>
    </contour>
    <contour>
      <point x="310" y="730" type="line"/>
      <point x="310" y="576" type="line"/>
      <point x="484" y="576" type="line"/>
      <point x="484" y="730" type="line"/>
    </contour>
  </outline>
</glyph>
<glyph name="yacute" format="2">
  <advance width="559"/>
  <unicode hex="00FD"/>
  <note>
yacute
</note>
  <anchor x="280" y="0" name="bottom"/>
  <anchor x="296" y="810" name="top"/>
  <outline>
    <contour>
      <point x="245" y="520" type="line"/>
      <point x="7" y="520" type="line"/>
      <point x="92" y="0" type="line"/>
      <point x="245" y="0" type="line"/>
      <point x="201" y="-200" type="line"/>
      <point x="437" y="-200" type="line"/>
      <point x="552" y="520" type="line"/>
      <point x="327" y="520" type="line"/>
      <point x="296" y="187" type="line"/>
      <point x="271" y="187" type="line"/>
    </contour>
    <contour>
      <point x="406" y="800" type="line"/>
      <point x="119" y="680" type="line"/>
      <point x="159" y="561" type="line"/>
      <point x="465" y="640" type="line"/>
    </contour>
  </outline>
</glyph>
<glyph name="ydieresis" format="2">
  <advance width="559"/>
  <unicode hex="00FF"/>
  <note>
ydieresis
</note>
  <anchor x="280" y="0" name="bottom"/>
  <anchor x="286" y="730" name="top"/>
  <outline>
    <contour>
      <point x="245" y="520" type="line"/>
      <point x="7" y="520" type="line"/>
      <point x="92" y="0" type="line"/>
      <point x="245" y="0" type="line"/>
      <point x="201" y="-200" type="line"/>
      <point x="437" y="-200" type="line"/>
      <point x="552" y="520" type="line"/>
      <point x="327" y="520" type="line"/>
      <point x="296" y="187" type="line"/>
      <point x="271" y="187" type="line"/>
    </contour>
    <contour>
      <point x="87" y="730" type="line"/>
      <point x="87" y="576" type="line"/>
      <point x="261" y="576" type="line"/>
      <point x="261" y="730" type="line"/>
    </contour>
    <contour>
      <point x="311" y="730" type="line"/>
      <point x="311" y="576" type="line"/>
      <point x="485" y="576" type="line"/>
      <point x="485" y="730" type="line"/>
    </contour>
  </outline>
</glyph>
<glyph name="Amacron" format="2">
  <advance width="657"/>
  <unicode hex="0100"/>
  <note>
Amacron
</note>
  <anchor x="329" y="0" name="bottom"/>
  <anchor x="654" y="0" name="ogonek"/>
  <anchor x="329" y="896" name="top"/>
  <outline>
    <contour>
      <point x="316" y="528" type="line"/>
      <point x="341" y="528" type="line"/>
      <point x="377" y="290" type="line"/>
      <point x="278" y="290" type="line"/>
    </contour>
    <contour>
      <point x="152" y="710" type="line"/>
      <point x="4" y="0" type="line"/>
      <point x="232" y="0" type="line"/>
      <point x="248" y="113" type="line"/>
      <point x="401" y="113" type="line"/>
      <point x="420" y="0" type="line"/>
      <point x="654" y="0" type="line"/>
      <point x="503" y="710" type="line"/>
    </contour>
    <contour>
      <point x="165" y="896" type="line"/>
      <point x="165" y="766" type="line"/>
      <point x="492" y="766" type="line"/>
      <point x="492" y="896" type="line"/>
    </contour>
  </outline>
</glyph>
<glyph name="Abreve" format="2">
  <advance width="657"/>
  <unicode hex="0102"/>
  <note>
Abreve
</note>
  <anchor x="329" y="0" name="bottom"/>
  <anchor x="654" y="0" name="ogonek"/>
  <anchor x="329" y="937" name="top"/>
  <outline>
    <contour>
      <point x="316" y="528" type="line"/>
      <point x="341" y="528" type="line"/>
      <point x="377" y="290" type="line"/>
      <point x="278" y="290" type="line"/>
    </contour>
    <contour>
      <point x="152" y="710" type="line"/>
      <point x="4" y="0" type="line"/>
      <point x="232" y="0" type="line"/>
      <point x="248" y="113" type="line"/>
      <point x="401" y="113" type="line"/>
      <point x="420" y="0" type="line"/>
      <point x="654" y="0" type="line"/>
      <point x="503" y="710" type="line"/>
    </contour>
    <contour>
      <point x="285" y="937" type="curve"/>
      <point x="159" y="937" type="line"/>
      <point x="159" y="817"/>
      <point x="199" y="752"/>
      <point x="329" y="752" type="curve" smooth="yes"/>
      <point x="459" y="752"/>
      <point x="499" y="817"/>
      <point x="499" y="937" type="curve"/>
      <point x="373" y="937" type="line"/>
      <point x="370" y="897"/>
      <point x="359" y="883"/>
      <point x="329" y="883" type="curve" smooth="yes"/>
      <point x="299" y="883"/>
      <point x="288" y="897"/>
    </contour>
  </outline>
</glyph>
<glyph name="Aogonek" format="2">
  <advance width="657"/>
  <unicode hex="0104"/>
  <note>
Aogonek
</note>
  <anchor x="329" y="0" name="bottom"/>
  <anchor x="654" y="0" name="ogonek"/>
  <anchor x="329" y="710" name="top"/>
  <outline>
    <contour>
      <point x="316" y="528" type="line"/>
      <point x="341" y="528" type="line"/>
      <point x="377" y="290" type="line"/>
      <point x="278" y="290" type="line"/>
    </contour>
    <contour>
      <point x="152" y="710" type="line"/>
      <point x="4" y="0" type="line"/>
      <point x="232" y="0" type="line"/>
      <point x="248" y="113" type="line"/>
      <point x="401" y="113" type="line"/>
      <point x="420" y="0" type="line"/>
      <point x="499" y="0" type="line"/>
      <point x="471" y="-28"/>
      <point x="428" y="-81"/>
      <point x="428" y="-133" type="curve" smooth="yes"/>
      <point x="428" y="-199"/>
      <point x="482" y="-230"/>
      <point x="577" y="-230" type="curve" smooth="yes"/>
      <point x="638" y="-230"/>
      <point x="687" y="-215"/>
      <point x="687" y="-215" type="curve"/>
      <point x="674" y="-107" type="line"/>
      <point x="674" y="-107"/>
      <point x="649" y="-111"/>
      <point x="628" y="-111" type="curve" smooth="yes"/>
      <point x="612" y="-111"/>
      <point x="606" y="-102"/>
      <point x="606" y="-89" type="curve" smooth="yes"/>
      <point x="606" y="-54"/>
      <point x="654" y="0"/>
      <point x="654" y="0" type="curve"/>
      <point x="503" y="710" type="line"/>
    </contour>
  </outline>
</glyph>
<glyph name="aogonek" format="2">
  <advance width="561"/>
  <unicode hex="0105"/>
  <note>
aogonek
</note>
  <anchor x="282" y="0" name="bottom"/>
  <anchor x="521" y="0" name="ogonek"/>
  <anchor x="276" y="520" name="top"/>
  <outline>
    <contour>
      <point x="521" y="166" type="curve" smooth="yes"/>
      <point x="521" y="359" type="line" smooth="yes"/>
      <point x="521" y="504"/>
      <point x="421" y="535"/>
      <point x="276" y="535" type="curve" smooth="yes"/>
      <point x="167" y="535"/>
      <point x="35" y="500"/>
      <point x="35" y="500" type="curve"/>
      <point x="40" y="348" type="line"/>
      <point x="40" y="348"/>
      <point x="165" y="361"/>
      <point x="254" y="361" type="curve" smooth="yes"/>
      <point x="280" y="361"/>
      <point x="297" y="356"/>
      <point x="297" y="333" type="curve" smooth="yes"/>
      <point x="297" y="316" type="line"/>
      <point x="205" y="311" type="line" smooth="yes"/>
      <point x="75" y="304"/>
      <point x="13" y="288"/>
      <point x="13" y="157" type="curve" smooth="yes"/>
      <point x="13" y="38"/>
      <point x="77" y="-13"/>
      <point x="193" y="-13" type="curve" smooth="yes"/>
      <point x="285" y="-13"/>
      <point x="332" y="28"/>
      <point x="332" y="28" type="curve"/>
      <point x="345" y="19"/>
      <point x="358" y="12"/>
      <point x="372" y="6" type="curve"/>
      <point x="345" y="-20"/>
      <point x="295" y="-77"/>
      <point x="295" y="-133" type="curve" smooth="yes"/>
      <point x="295" y="-199"/>
      <point x="349" y="-230"/>
      <point x="444" y="-230" type="curve" smooth="yes"/>
      <point x="505" y="-230"/>
      <point x="554" y="-215"/>
      <point x="554" y="-215" type="curve"/>
      <point x="541" y="-107" type="line"/>
      <point x="541" y="-107"/>
      <point x="516" y="-111"/>
      <point x="495" y="-111" type="curve" smooth="yes"/>
      <point x="479" y="-111"/>
      <point x="473" y="-102"/>
      <point x="473" y="-89" type="curve" smooth="yes"/>
      <point x="473" y="-65"/>
      <point x="496" y="-32"/>
      <point x="510" y="-14" type="curve"/>
      <point x="520" y="-13"/>
      <point x="531" y="-13"/>
      <point x="542" y="-12" type="curve"/>
      <point x="545" y="141" type="line"/>
      <point x="528" y="141"/>
      <point x="521" y="151"/>
    </contour>
    <contour>
      <point x="234" y="172" type="curve" smooth="yes"/>
      <point x="234" y="190"/>
      <point x="243" y="201"/>
      <point x="261" y="202" type="curve" smooth="yes"/>
      <point x="297" y="204" type="line"/>
      <point x="297" y="148" type="line"/>
      <point x="297" y="148"/>
      <point x="283" y="141"/>
      <point x="262" y="141" type="curve" smooth="yes"/>
      <point x="244" y="141"/>
      <point x="234" y="151"/>
    </contour>
  </outline>
</glyph>
<glyph name="Ccircumflex" format="2">
  <advance width="560"/>
  <unicode hex="0108"/>
  <note>
Ccircumflex
</note>
  <anchor x="298" y="0" name="bottom"/>
  <anchor x="345" y="937" name="top"/>
  <outline>
    <contour>
      <point x="537" y="13" type="curve"/>
      <point x="534" y="189" type="line"/>
      <point x="534" y="189"/>
      <point x="443" y="183"/>
      <point x="387" y="183" type="curve" smooth="yes"/>
      <point x="282" y="183"/>
      <point x="262" y="202"/>
      <point x="262" y="355" type="curve" smooth="yes"/>
      <point x="262" y="512"/>
      <point x="281" y="530"/>
      <point x="375" y="530" type="curve" smooth="yes"/>
      <point x="443" y="530"/>
      <point x="531" y="520"/>
      <point x="531" y="520" type="curve"/>
      <point x="537" y="699" type="line"/>
      <point x="537" y="699"/>
      <point x="419" y="726"/>
      <point x="304" y="726" type="curve" smooth="yes"/>
      <point x="112" y="726"/>
      <point x="26" y="644"/>
      <point x="26" y="347" type="curve" smooth="yes"/>
      <point x="26" y="65"/>
      <point x="104" y="-13"/>
      <point x="314" y="-13" type="curve" smooth="yes"/>
      <point x="433" y="-13"/>
      <point x="537" y="13"/>
    </contour>
    <contour>
      <point x="233" y="937" type="line"/>
      <point x="152" y="757" type="line"/>
      <point x="314" y="757" type="line"/>
      <point x="345" y="840" type="line"/>
      <point x="376" y="757" type="line"/>
      <point x="538" y="757" type="line"/>
      <point x="457" y="937" type="line"/>
    </contour>
  </outline>
</glyph>
<glyph name="ccircumflex" format="2">
  <advance width="474"/>
  <unicode hex="0109"/>
  <note>
ccircumflex
</note>
  <anchor x="242" y="0" name="bottom"/>
  <anchor x="260" y="756" name="top"/>
  <outline>
    <contour>
      <point x="254" y="535" type="curve" smooth="yes"/>
      <point x="101" y="535"/>
      <point x="19" y="477"/>
      <point x="19" y="256" type="curve" smooth="yes"/>
      <point x="19" y="65"/>
      <point x="73" y="-13"/>
      <point x="250" y="-13" type="curve" smooth="yes"/>
      <point x="357" y="-13"/>
      <point x="453" y="15"/>
      <point x="453" y="15" type="curve"/>
      <point x="446" y="190" type="line"/>
      <point x="446" y="190"/>
      <point x="341" y="183"/>
      <point x="302" y="183" type="curve" smooth="yes"/>
      <point x="259" y="183"/>
      <point x="245" y="196"/>
      <point x="245" y="256" type="curve" smooth="yes"/>
      <point x="245" y="318"/>
      <point x="260" y="340"/>
      <point x="302" y="340" type="curve" smooth="yes"/>
      <point x="340" y="340"/>
      <point x="443" y="332"/>
      <point x="443" y="332" type="curve"/>
      <point x="450" y="509" type="line"/>
      <point x="450" y="509"/>
      <point x="356" y="535"/>
    </contour>
    <contour>
      <point x="148" y="756" type="line"/>
      <point x="67" y="576" type="line"/>
      <point x="229" y="576" type="line"/>
      <point x="260" y="659" type="line"/>
      <point x="291" y="576" type="line"/>
      <point x="453" y="576" type="line"/>
      <point x="372" y="756" type="line"/>
    </contour>
  </outline>
</glyph>
<glyph name="Cdotaccent" format="2">
  <advance width="560"/>
  <unicode hex="010A"/>
  <note>
Cdotaccent
</note>
  <anchor x="298" y="0" name="bottom"/>
  <anchor x="345" y="911" name="top"/>
  <outline>
    <contour>
      <point x="537" y="13" type="curve"/>
      <point x="534" y="189" type="line"/>
      <point x="534" y="189"/>
      <point x="443" y="183"/>
      <point x="387" y="183" type="curve" smooth="yes"/>
      <point x="282" y="183"/>
      <point x="262" y="202"/>
      <point x="262" y="355" type="curve" smooth="yes"/>
      <point x="262" y="512"/>
      <point x="281" y="530"/>
      <point x="375" y="530" type="curve" smooth="yes"/>
      <point x="443" y="530"/>
      <point x="531" y="520"/>
      <point x="531" y="520" type="curve"/>
      <point x="537" y="699" type="line"/>
      <point x="537" y="699"/>
      <point x="419" y="726"/>
      <point x="304" y="726" type="curve" smooth="yes"/>
      <point x="112" y="726"/>
      <point x="26" y="644"/>
      <point x="26" y="347" type="curve" smooth="yes"/>
      <point x="26" y="65"/>
      <point x="104" y="-13"/>
      <point x="314" y="-13" type="curve" smooth="yes"/>
      <point x="433" y="-13"/>
      <point x="537" y="13"/>
    </contour>
    <contour>
      <point x="245" y="911" type="line"/>
      <point x="245" y="757" type="line"/>
      <point x="445" y="757" type="line"/>
      <point x="445" y="911" type="line"/>
    </contour>
  </outline>
</glyph>
<glyph name="Dcaron" format="2">
  <advance width="666"/>
  <unicode hex="010E"/>
  <note>
Dcaron
</note>
  <anchor x="307" y="0" name="bottom"/>
  <anchor x="128" y="350" name="center"/>
  <anchor x="328" y="937" name="top"/>
  <outline>
    <contour>
      <point x="40" y="710" type="line"/>
      <point x="40" y="0" type="line"/>
      <point x="373" y="0" type="line" smooth="yes"/>
      <point x="586" y="0"/>
      <point x="640" y="124"/>
      <point x="640" y="360" type="curve" smooth="yes"/>
      <point x="640" y="610"/>
      <point x="576" y="710"/>
      <point x="363" y="710" type="curve" smooth="yes"/>
    </contour>
    <contour>
      <point x="297" y="937" type="line"/>
      <point x="135" y="937" type="line"/>
      <point x="216" y="757" type="line"/>
      <point x="440" y="757" type="line"/>
      <point x="521" y="937" type="line"/>
      <point x="359" y="937" type="line"/>
      <point x="328" y="854" type="line"/>
    </contour>
    <contour>
      <point x="325" y="189" type="curve" smooth="yes"/>
      <point x="272" y="189" type="line"/>
      <point x="272" y="521" type="line"/>
      <point x="325" y="521" type="line" smooth="yes"/>
      <point x="388" y="521"/>
      <point x="404" y="496"/>
      <point x="404" y="360" type="curve" smooth="yes"/>
      <point x="404" y="220"/>
      <point x="388" y="189"/>
    </contour>
  </outline>
</glyph>
<glyph name="dcaron" format="2">
  <advance width="595"/>
  <unicode hex="010F"/>
  <note>
dcaron
</note>
  <anchor x="290" y="0" name="bottom"/>
  <anchor x="290" y="260" name="center"/>
  <anchor x="431" y="617" name="center_"/>
  <anchor x="432" y="730" name="top"/>
  <anchor x="590" y="730" name="topright"/>
  <outline>
    <contour>
      <point x="290" y="172" type="curve" smooth="yes"/>
      <point x="258" y="172"/>
      <point x="245" y="192"/>
      <point x="245" y="264" type="curve" smooth="yes"/>
      <point x="245" y="338"/>
      <point x="260" y="358"/>
      <point x="289" y="358" type="curve" smooth="yes"/>
      <point x="307" y="358"/>
      <point x="321" y="351"/>
      <point x="321" y="351" type="curve"/>
      <point x="321" y="175" type="line"/>
      <point x="321" y="175"/>
      <point x="307" y="172"/>
    </contour>
    <contour>
      <point x="19" y="252" type="curve" smooth="yes"/>
      <point x="19" y="91"/>
      <point x="62" y="-13"/>
      <point x="217" y="-13" type="curve" smooth="yes"/>
      <point x="267" y="-13"/>
      <point x="322" y="22"/>
      <point x="322" y="22" type="curve"/>
      <point x="324" y="0" type="line"/>
      <point x="545" y="0" type="line"/>
      <point x="545" y="730" type="line"/>
      <point x="321" y="730" type="line"/>
      <point x="321" y="519" type="line"/>
      <point x="321" y="519"/>
      <point x="268" y="535"/>
      <point x="220" y="535" type="curve" smooth="yes"/>
      <point x="75" y="535"/>
      <point x="19" y="450"/>
    </contour>
    <contour>
      <point x="580" y="574" type="curve"/>
      <point x="730" y="546" type="line"/>
      <point x="730" y="546"/>
      <point x="785" y="603"/>
      <point x="785" y="648" type="curve" smooth="yes"/>
      <point x="785" y="679"/>
      <point x="782" y="730"/>
      <point x="782" y="730" type="curve"/>
      <point x="601" y="730" type="line"/>
      <point x="601" y="730"/>
      <point x="604" y="675"/>
      <point x="604" y="659" type="curve" smooth="yes"/>
      <point x="604" y="637"/>
      <point x="580" y="574"/>
    </contour>
  </outline>
</glyph>
<glyph name="Emacron" format="2">
  <advance width="571"/>
  <unicode hex="0112"/>
  <note>
Emacron
</note>
  <anchor x="298" y="0" name="bottom"/>
  <anchor x="506" y="0" name="ogonek"/>
  <anchor x="301" y="896" name="top"/>
  <outline>
    <contour>
      <point x="542" y="710" type="line"/>
      <point x="40" y="710" type="line"/>
      <point x="40" y="0" type="line"/>
      <point x="542" y="0" type="line"/>
      <point x="542" y="185" type="line"/>
      <point x="272" y="185" type="line"/>
      <point x="272" y="276" type="line"/>
      <point x="482" y="276" type="line"/>
      <point x="482" y="446" type="line"/>
      <point x="272" y="446" type="line"/>
      <point x="272" y="525" type="line"/>
      <point x="542" y="525" type="line"/>
    </contour>
    <contour>
      <point x="137" y="896" type="line"/>
      <point x="137" y="766" type="line"/>
      <point x="464" y="766" type="line"/>
      <point x="464" y="896" type="line"/>
    </contour>
  </outline>
</glyph>
<glyph name="Ebreve" format="2">
  <advance width="571"/>
  <unicode hex="0114"/>
  <note>
Ebreve
</note>
  <anchor x="298" y="0" name="bottom"/>
  <anchor x="506" y="0" name="ogonek"/>
  <anchor x="301" y="937" name="top"/>
  <outline>
    <contour>
      <point x="542" y="710" type="line"/>
      <point x="40" y="710" type="line"/>
      <point x="40" y="0" type="line"/>
      <point x="542" y="0" type="line"/>
      <point x="542" y="185" type="line"/>
      <point x="272" y="185" type="line"/>
      <point x="272" y="276" type="line"/>
      <point x="482" y="276" type="line"/>
      <point x="482" y="446" type="line"/>
      <point x="272" y="446" type="line"/>
      <point x="272" y="525" type="line"/>
      <point x="542" y="525" type="line"/>
    </contour>
    <contour>
      <point x="257" y="937" type="curve"/>
      <point x="131" y="937" type="line"/>
      <point x="131" y="817"/>
      <point x="171" y="752"/>
      <point x="301" y="752" type="curve" smooth="yes"/>
      <point x="431" y="752"/>
      <point x="471" y="817"/>
      <point x="471" y="937" type="curve"/>
      <point x="345" y="937" type="line"/>
      <point x="342" y="897"/>
      <point x="331" y="883"/>
      <point x="301" y="883" type="curve" smooth="yes"/>
      <point x="271" y="883"/>
      <point x="260" y="897"/>
    </contour>
  </outline>
</glyph>
<glyph name="Eogonek" format="2">
  <advance width="571"/>
  <unicode hex="0118"/>
  <note>
Eogonek
</note>
  <anchor x="298" y="0" name="bottom"/>
  <anchor x="506" y="0" name="ogonek"/>
  <anchor x="301" y="710" name="top"/>
  <outline>
    <contour>
      <point x="542" y="710" type="line"/>
      <point x="40" y="710" type="line"/>
      <point x="40" y="0" type="line"/>
      <point x="351" y="0" type="line"/>
      <point x="323" y="-28"/>
      <point x="280" y="-81"/>
      <point x="280" y="-133" type="curve" smooth="yes"/>
      <point x="280" y="-199"/>
      <point x="334" y="-230"/>
      <point x="429" y="-230" type="curve" smooth="yes"/>
      <point x="490" y="-230"/>
      <point x="539" y="-215"/>
      <point x="539" y="-215" type="curve"/>
      <point x="526" y="-107" type="line"/>
      <point x="526" y="-107"/>
      <point x="501" y="-111"/>
      <point x="480" y="-111" type="curve" smooth="yes"/>
      <point x="464" y="-111"/>
      <point x="458" y="-102"/>
      <point x="458" y="-89" type="curve" smooth="yes"/>
      <point x="458" y="-54"/>
      <point x="506" y="0"/>
      <point x="506" y="0" type="curve"/>
      <point x="542" y="0" type="line"/>
      <point x="542" y="185" type="line"/>
      <point x="272" y="185" type="line"/>
      <point x="272" y="276" type="line"/>
      <point x="482" y="276" type="line"/>
      <point x="482" y="446" type="line"/>
      <point x="272" y="446" type="line"/>
      <point x="272" y="525" type="line"/>
      <point x="542" y="525" type="line"/>
    </contour>
  </outline>
</glyph>
<glyph name="eogonek" format="2">
  <advance width="560"/>
  <unicode hex="0119"/>
  <note>
eogonek
</note>
  <anchor x="297" y="0" name="bottom"/>
  <anchor x="436" y="0" name="ogonek"/>
  <anchor x="280" y="520" name="top"/>
  <outline>
    <contour>
      <point x="310" y="152" type="curve" smooth="yes"/>
      <point x="242" y="152"/>
      <point x="239" y="163"/>
      <point x="238" y="205" type="curve"/>
      <point x="531" y="205" type="line"/>
      <point x="541" y="303" type="line"/>
      <point x="541" y="462"/>
      <point x="449" y="535"/>
      <point x="281" y="535" type="curve" smooth="yes"/>
      <point x="90" y="535"/>
      <point x="18" y="441"/>
      <point x="18" y="253" type="curve" smooth="yes"/>
      <point x="18" y="77"/>
      <point x="81" y="-8"/>
      <point x="264" y="-13" type="curve"/>
      <point x="237" y="-43"/>
      <point x="205" y="-88"/>
      <point x="205" y="-133" type="curve" smooth="yes"/>
      <point x="205" y="-199"/>
      <point x="259" y="-230"/>
      <point x="354" y="-230" type="curve" smooth="yes"/>
      <point x="415" y="-230"/>
      <point x="464" y="-215"/>
      <point x="464" y="-215" type="curve"/>
      <point x="451" y="-107" type="line"/>
      <point x="451" y="-107"/>
      <point x="426" y="-111"/>
      <point x="405" y="-111" type="curve" smooth="yes"/>
      <point x="389" y="-111"/>
      <point x="383" y="-102"/>
      <point x="383" y="-89" type="curve" smooth="yes"/>
      <point x="383" y="-57"/>
      <point x="422" y="-10"/>
      <point x="430" y="-1" type="curve"/>
      <point x="488" y="7"/>
      <point x="531" y="16"/>
      <point x="531" y="16" type="curve"/>
      <point x="526" y="161" type="line"/>
      <point x="526" y="161"/>
      <point x="372" y="152"/>
    </contour>
    <contour>
      <point x="323" y="325" type="curve"/>
      <point x="239" y="325" type="line"/>
      <point x="240" y="370"/>
      <point x="248" y="387"/>
      <point x="282" y="387" type="curve" smooth="yes"/>
      <point x="313" y="387"/>
      <point x="323" y="371"/>
    </contour>
  </outline>
</glyph>
<glyph name="Ecaron" format="2">
  <advance width="571"/>
  <unicode hex="011A"/>
  <note>
Ecaron
</note>
  <anchor x="298" y="0" name="bottom"/>
  <anchor x="506" y="0" name="ogonek"/>
  <anchor x="301" y="937" name="top"/>
  <outline>
    <contour>
      <point x="542" y="710" type="line"/>
      <point x="40" y="710" type="line"/>
      <point x="40" y="0" type="line"/>
      <point x="542" y="0" type="line"/>
      <point x="542" y="185" type="line"/>
      <point x="272" y="185" type="line"/>
      <point x="272" y="276" type="line"/>
      <point x="482" y="276" type="line"/>
      <point x="482" y="446" type="line"/>
      <point x="272" y="446" type="line"/>
      <point x="272" y="525" type="line"/>
      <point x="542" y="525" type="line"/>
    </contour>
    <contour>
      <point x="270" y="937" type="line"/>
      <point x="108" y="937" type="line"/>
      <point x="189" y="757" type="line"/>
      <point x="413" y="757" type="line"/>
      <point x="494" y="937" type="line"/>
      <point x="332" y="937" type="line"/>
      <point x="301" y="854" type="line"/>
    </contour>
  </outline>
</glyph>
<glyph name="Gbreve" format="2">
  <advance width="639"/>
  <unicode hex="011E"/>
  <note>
Gbreve
</note>
  <anchor x="331" y="0" name="bottom"/>
  <anchor x="352" y="937" name="top"/>
  <outline>
    <contour>
      <point x="603" y="409" type="line"/>
      <point x="346" y="409" type="line"/>
      <point x="347" y="247" type="line"/>
      <point x="387" y="247" type="line"/>
      <point x="387" y="181" type="line"/>
      <point x="387" y="181"/>
      <point x="366" y="180"/>
      <point x="353" y="180" type="curve" smooth="yes"/>
      <point x="280" y="180"/>
      <point x="262" y="218"/>
      <point x="262" y="344" type="curve" smooth="yes"/>
      <point x="262" y="484"/>
      <point x="270" y="530"/>
      <point x="361" y="530" type="curve" smooth="yes"/>
      <point x="444" y="530"/>
      <point x="598" y="517"/>
      <point x="598" y="517" type="curve"/>
      <point x="598" y="692" type="line"/>
      <point x="598" y="692"/>
      <point x="438" y="726"/>
      <point x="323" y="726" type="curve" smooth="yes"/>
      <point x="98" y="726"/>
      <point x="26" y="640"/>
      <point x="26" y="336" type="curve" smooth="yes"/>
      <point x="26" y="93"/>
      <point x="88" y="-14"/>
      <point x="307" y="-14" type="curve" smooth="yes"/>
      <point x="422" y="-14"/>
      <point x="603" y="15"/>
      <point x="603" y="15" type="curve"/>
    </contour>
    <contour>
      <point x="308" y="937" type="curve"/>
      <point x="182" y="937" type="line"/>
      <point x="182" y="817"/>
      <point x="222" y="752"/>
      <point x="352" y="752" type="curve" smooth="yes"/>
      <point x="482" y="752"/>
      <point x="522" y="817"/>
      <point x="522" y="937" type="curve"/>
      <point x="396" y="937" type="line"/>
      <point x="393" y="897"/>
      <point x="382" y="883"/>
      <point x="352" y="883" type="curve" smooth="yes"/>
      <point x="322" y="883"/>
      <point x="311" y="897"/>
    </contour>
  </outline>
</glyph>
<glyph name="Hcircumflex" format="2">
  <advance width="687"/>
  <unicode hex="0124"/>
  <note>
Hcircumflex
</note>
  <anchor x="344" y="0" name="bottom"/>
  <anchor x="344" y="615" name="center"/>
  <anchor x="344" y="937" name="top"/>
  <outline>
    <contour>
      <point x="272" y="267" type="line"/>
      <point x="415" y="267" type="line"/>
      <point x="415" y="0" type="line"/>
      <point x="647" y="0" type="line"/>
      <point x="647" y="710" type="line"/>
      <point x="415" y="710" type="line"/>
      <point x="415" y="457" type="line"/>
      <point x="272" y="457" type="line"/>
      <point x="272" y="710" type="line"/>
      <point x="40" y="710" type="line"/>
      <point x="40" y="0" type="line"/>
      <point x="272" y="0" type="line"/>
    </contour>
    <contour>
      <point x="232" y="937" type="line"/>
      <point x="151" y="757" type="line"/>
      <point x="313" y="757" type="line"/>
      <point x="344" y="840" type="line"/>
      <point x="375" y="757" type="line"/>
      <point x="537" y="757" type="line"/>
      <point x="456" y="937" type="line"/>
    </contour>
  </outline>
</glyph>
<glyph name="Hbar" format="2">
  <advance width="757"/>
  <unicode hex="0126"/>
  <note>
Hbar
</note>
  <anchor x="379" y="0" name="bottom"/>
  <anchor x="379" y="615" name="center"/>
  <anchor x="379" y="710" name="top"/>
  <outline>
    <contour>
      <point x="307" y="267" type="line"/>
      <point x="450" y="267" type="line"/>
      <point x="450" y="0" type="line"/>
      <point x="682" y="0" type="line"/>
      <point x="682" y="522" type="line"/>
      <point x="737" y="522" type="line"/>
      <point x="737" y="657" type="line"/>
      <point x="682" y="657" type="line"/>
      <point x="682" y="710" type="line"/>
      <point x="450" y="710" type="line"/>
      <point x="450" y="657" type="line"/>
      <point x="307" y="657" type="line"/>
      <point x="307" y="710" type="line"/>
      <point x="75" y="710" type="line"/>
      <point x="75" y="657" type="line"/>
      <point x="20" y="657" type="line"/>
      <point x="20" y="522" type="line"/>
      <point x="75" y="522" type="line"/>
      <point x="75" y="0" type="line"/>
      <point x="307" y="0" type="line"/>
    </contour>
    <contour>
      <point x="450" y="457" type="line"/>
      <point x="307" y="457" type="line"/>
      <point x="307" y="522" type="line"/>
      <point x="450" y="522" type="line"/>
    </contour>
  </outline>
</glyph>
<glyph name="hbar" format="2">
  <advance width="583"/>
  <unicode hex="0127"/>
  <note>
hbar
</note>
  <anchor x="290" y="0" name="bottom"/>
  <anchor x="204" y="617" name="center"/>
  <anchor x="142" y="730" name="top"/>
  <outline>
    <contour>
      <point x="30" y="568" type="line"/>
      <point x="30" y="0" type="line"/>
      <point x="254" y="0" type="line"/>
      <point x="254" y="336" type="line"/>
      <point x="254" y="336"/>
      <point x="278" y="342"/>
      <point x="295" y="342" type="curve" smooth="yes"/>
      <point x="322" y="342"/>
      <point x="333" y="316"/>
      <point x="333" y="255" type="curve" smooth="yes"/>
      <point x="333" y="0" type="line"/>
      <point x="557" y="0" type="line"/>
      <point x="557" y="278" type="line" smooth="yes"/>
      <point x="557" y="468"/>
      <point x="506" y="535"/>
      <point x="361" y="535" type="curve" smooth="yes"/>
      <point x="324" y="535"/>
      <point x="254" y="518"/>
      <point x="254" y="518" type="curve"/>
      <point x="254" y="568" type="line"/>
      <point x="348" y="568" type="line"/>
      <point x="348" y="684" type="line"/>
      <point x="254" y="684" type="line"/>
      <point x="254" y="730" type="line"/>
      <point x="30" y="730" type="line"/>
      <point x="30" y="684" type="line"/>
      <point x="-18" y="684" type="line"/>
      <point x="-18" y="568" type="line"/>
    </contour>
  </outline>
</glyph>
<glyph name="Itilde" format="2">
  <advance width="312"/>
  <unicode hex="0128"/>
  <note>
Itilde
</note>
  <anchor x="156" y="0" name="bottom"/>
  <anchor x="156" y="353" name="center"/>
  <anchor x="271" y="0" name="ogonek"/>
  <anchor x="156" y="945" name="top"/>
  <outline>
    <contour>
      <point x="272" y="710" type="line"/>
      <point x="40" y="710" type="line"/>
      <point x="40" y="0" type="line"/>
      <point x="272" y="0" type="line"/>
    </contour>
    <contour>
      <point x="-58" y="867" type="curve"/>
      <point x="6" y="764" type="line"/>
      <point x="6" y="764"/>
      <point x="58" y="801"/>
      <point x="86" y="801" type="curve" smooth="yes"/>
      <point x="119" y="801"/>
      <point x="163" y="757"/>
      <point x="215" y="757" type="curve" smooth="yes"/>
      <point x="269" y="757"/>
      <point x="370" y="839"/>
      <point x="370" y="839" type="curve"/>
      <point x="307" y="945" type="line"/>
      <point x="307" y="945"/>
      <point x="236" y="898"/>
      <point x="210" y="898" type="curve" smooth="yes"/>
      <point x="182" y="898"/>
      <point x="145" y="941"/>
      <point x="84" y="941" type="curve" smooth="yes"/>
      <point x="31" y="941"/>
      <point x="-58" y="867"/>
    </contour>
  </outline>
</glyph>
<glyph name="itilde" format="2">
  <advance width="284"/>
  <unicode hex="0129"/>
  <note>
itilde
</note>
  <anchor x="142" y="0" name="bottom"/>
  <anchor x="254" y="0" name="ogonek"/>
  <anchor x="142" y="766" name="top"/>
  <outline>
    <contour>
      <point x="254" y="520" type="line"/>
      <point x="30" y="520" type="line"/>
      <point x="30" y="0" type="line"/>
      <point x="254" y="0" type="line"/>
    </contour>
    <contour>
      <point x="-82" y="688" type="curve"/>
      <point x="-18" y="585" type="line"/>
      <point x="-18" y="585"/>
      <point x="34" y="622"/>
      <point x="62" y="622" type="curve" smooth="yes"/>
      <point x="95" y="622"/>
      <point x="159" y="578"/>
      <point x="211" y="578" type="curve" smooth="yes"/>
      <point x="265" y="578"/>
      <point x="366" y="660"/>
      <point x="366" y="660" type="curve"/>
      <point x="303" y="766" type="line"/>
      <point x="303" y="766"/>
      <point x="232" y="719"/>
      <point x="206" y="719" type="curve" smooth="yes"/>
      <point x="178" y="719"/>
      <point x="121" y="762"/>
      <point x="60" y="762" type="curve" smooth="yes"/>
      <point x="7" y="762"/>
      <point x="-82" y="688"/>
    </contour>
  </outline>
</glyph>
<glyph name="Imacron" format="2">
  <advance width="312"/>
  <unicode hex="012A"/>
  <note>
Imacron
</note>
  <anchor x="156" y="0" name="bottom"/>
  <anchor x="156" y="353" name="center"/>
  <anchor x="271" y="0" name="ogonek"/>
  <anchor x="156" y="896" name="top"/>
  <outline>
    <contour>
      <point x="272" y="710" type="line"/>
      <point x="40" y="710" type="line"/>
      <point x="40" y="0" type="line"/>
      <point x="272" y="0" type="line"/>
    </contour>
    <contour>
      <point x="-8" y="896" type="line"/>
      <point x="-8" y="766" type="line"/>
      <point x="319" y="766" type="line"/>
      <point x="319" y="896" type="line"/>
    </contour>
  </outline>
</glyph>
<glyph name="imacron" format="2">
  <advance width="284"/>
  <unicode hex="012B"/>
  <note>
imacron
</note>
  <anchor x="142" y="0" name="bottom"/>
  <anchor x="254" y="0" name="ogonek"/>
  <anchor x="142" y="736" name="top"/>
  <outline>
    <contour>
      <point x="254" y="520" type="line"/>
      <point x="30" y="520" type="line"/>
      <point x="30" y="0" type="line"/>
      <point x="254" y="0" type="line"/>
    </contour>
    <contour>
      <point x="-22" y="736" type="line"/>
      <point x="-22" y="606" type="line"/>
      <point x="305" y="606" type="line"/>
      <point x="305" y="736" type="line"/>
    </contour>
  </outline>
</glyph>
<glyph name="Ibreve" format="2">
  <advance width="312"/>
  <unicode hex="012C"/>
  <note>
Ibreve
</note>
  <anchor x="156" y="0" name="bottom"/>
  <anchor x="156" y="353" name="center"/>
  <anchor x="271" y="0" name="ogonek"/>
  <anchor x="156" y="937" name="top"/>
  <outline>
    <contour>
      <point x="272" y="710" type="line"/>
      <point x="40" y="710" type="line"/>
      <point x="40" y="0" type="line"/>
      <point x="272" y="0" type="line"/>
    </contour>
    <contour>
      <point x="112" y="937" type="curve"/>
      <point x="-14" y="937" type="line"/>
      <point x="-14" y="817"/>
      <point x="26" y="752"/>
      <point x="156" y="752" type="curve" smooth="yes"/>
      <point x="286" y="752"/>
      <point x="326" y="817"/>
      <point x="326" y="937" type="curve"/>
      <point x="200" y="937" type="line"/>
      <point x="197" y="897"/>
      <point x="186" y="883"/>
      <point x="156" y="883" type="curve" smooth="yes"/>
      <point x="126" y="883"/>
      <point x="115" y="897"/>
    </contour>
  </outline>
</glyph>
<glyph name="ibreve" format="2">
  <advance width="284"/>
  <unicode hex="012D"/>
  <note>
ibreve
</note>
  <anchor x="142" y="0" name="bottom"/>
  <anchor x="254" y="0" name="ogonek"/>
  <anchor x="142" y="756" name="top"/>
  <outline>
    <contour>
      <point x="254" y="520" type="line"/>
      <point x="30" y="520" type="line"/>
      <point x="30" y="0" type="line"/>
      <point x="254" y="0" type="line"/>
    </contour>
    <contour>
      <point x="98" y="756" type="curve"/>
      <point x="-28" y="756" type="line"/>
      <point x="-28" y="636"/>
      <point x="12" y="571"/>
      <point x="142" y="571" type="curve" smooth="yes"/>
      <point x="272" y="571"/>
      <point x="312" y="636"/>
      <point x="312" y="756" type="curve"/>
      <point x="186" y="756" type="line"/>
      <point x="183" y="716"/>
      <point x="172" y="702"/>
      <point x="142" y="702" type="curve" smooth="yes"/>
      <point x="112" y="702"/>
      <point x="101" y="716"/>
    </contour>
  </outline>
</glyph>
<glyph name="Iogonek" format="2">
  <advance width="312"/>
  <unicode hex="012E"/>
  <note>
Iogonek
</note>
  <anchor x="156" y="0" name="bottom"/>
  <anchor x="156" y="353" name="center"/>
  <anchor x="271" y="0" name="ogonek"/>
  <anchor x="156" y="710" name="top"/>
  <outline>
    <contour>
      <point x="272" y="710" type="line"/>
      <point x="40" y="710" type="line"/>
      <point x="40" y="0" type="line"/>
      <point x="116" y="0" type="line"/>
      <point x="88" y="-28"/>
      <point x="45" y="-81"/>
      <point x="45" y="-133" type="curve" smooth="yes"/>
      <point x="45" y="-199"/>
      <point x="99" y="-230"/>
      <point x="194" y="-230" type="curve" smooth="yes"/>
      <point x="255" y="-230"/>
      <point x="304" y="-215"/>
      <point x="304" y="-215" type="curve"/>
      <point x="291" y="-107" type="line"/>
      <point x="291" y="-107"/>
      <point x="266" y="-111"/>
      <point x="245" y="-111" type="curve" smooth="yes"/>
      <point x="229" y="-111"/>
      <point x="223" y="-102"/>
      <point x="223" y="-89" type="curve" smooth="yes"/>
      <point x="223" y="-54"/>
      <point x="271" y="0"/>
      <point x="271" y="0" type="curve"/>
      <point x="272" y="0" type="line"/>
    </contour>
  </outline>
</glyph>
<glyph name="iogonek" format="2">
  <advance width="284"/>
  <unicode hex="012F"/>
  <note>
iogonek
</note>
  <anchor x="142" y="0" name="bottom"/>
  <anchor x="254" y="0" name="ogonek"/>
  <anchor x="142" y="730" name="top"/>
  <outline>
    <contour>
      <point x="254" y="520" type="line"/>
      <point x="30" y="520" type="line"/>
      <point x="30" y="0" type="line"/>
      <point x="99" y="0" type="line"/>
      <point x="71" y="-28"/>
      <point x="28" y="-81"/>
      <point x="28" y="-133" type="curve" smooth="yes"/>
      <point x="28" y="-199"/>
      <point x="82" y="-230"/>
      <point x="177" y="-230" type="curve" smooth="yes"/>
      <point x="238" y="-230"/>
      <point x="287" y="-215"/>
      <point x="287" y="-215" type="curve"/>
      <point x="274" y="-107" type="line"/>
      <point x="274" y="-107"/>
      <point x="249" y="-111"/>
      <point x="228" y="-111" type="curve" smooth="yes"/>
      <point x="212" y="-111"/>
      <point x="206" y="-102"/>
      <point x="206" y="-89" type="curve" smooth="yes"/>
      <point x="206" y="-54"/>
      <point x="254" y="0"/>
      <point x="254" y="0" type="curve"/>
    </contour>
    <contour>
      <point x="29" y="730" type="line"/>
      <point x="29" y="566" type="line"/>
      <point x="255" y="566" type="line"/>
      <point x="255" y="730" type="line"/>
    </contour>
  </outline>
</glyph>
<glyph name="Idotaccent" format="2">
  <advance width="312"/>
  <unicode hex="0130"/>
  <note>
Idotaccent
</note>
  <anchor x="156" y="0" name="bottom"/>
  <anchor x="156" y="353" name="center"/>
  <anchor x="271" y="0" name="ogonek"/>
  <anchor x="156" y="911" name="top"/>
  <outline>
    <contour>
      <point x="272" y="710" type="line"/>
      <point x="40" y="710" type="line"/>
      <point x="40" y="0" type="line"/>
      <point x="272" y="0" type="line"/>
    </contour>
    <contour>
      <point x="56" y="911" type="line"/>
      <point x="56" y="757" type="line"/>
      <point x="256" y="757" type="line"/>
      <point x="256" y="911" type="line"/>
    </contour>
  </outline>
</glyph>
<glyph name="IJ" format="2">
  <advance width="649"/>
  <unicode hex="0132"/>
  <note>
IJ
</note>
  <anchor x="478" y="0" name="bottom"/>
  <anchor x="156" y="353" name="center"/>
  <anchor x="271" y="0" name="ogonek"/>
  <anchor x="492" y="710" name="top"/>
  <outline>
    <contour>
      <point x="272" y="710" type="line"/>
      <point x="40" y="710" type="line"/>
      <point x="40" y="0" type="line"/>
      <point x="272" y="0" type="line"/>
    </contour>
    <contour>
      <point x="322" y="184" type="curve"/>
      <point x="322" y="-7" type="line"/>
      <point x="555" y="-7"/>
      <point x="611" y="25"/>
      <point x="611" y="183" type="curve" smooth="yes"/>
      <point x="611" y="710" type="line"/>
      <point x="379" y="710" type="line"/>
      <point x="379" y="268" type="line" smooth="yes"/>
      <point x="379" y="187"/>
      <point x="375" y="184"/>
    </contour>
  </outline>
</glyph>
<glyph name="ij" format="2">
  <advance width="577"/>
  <unicode hex="0133"/>
  <note>
ij
</note>
  <anchor x="445" y="-210" name="bottom"/>
  <anchor x="254" y="0" name="ogonek"/>
  <anchor x="434" y="730" name="top"/>
  <outline>
    <contour>
      <point x="254" y="520" type="line"/>
      <point x="30" y="520" type="line"/>
      <point x="30" y="0" type="line"/>
      <point x="254" y="0" type="line"/>
    </contour>
    <contour>
      <point x="29" y="730" type="line"/>
      <point x="29" y="566" type="line"/>
      <point x="255" y="566" type="line"/>
      <point x="255" y="730" type="line"/>
    </contour>
    <contour>
      <point x="234" y="-40" type="curve"/>
      <point x="306" y="-210" type="line"/>
      <point x="504" y="-148"/>
      <point x="547" y="-118"/>
      <point x="547" y="83" type="curve" smooth="yes"/>
      <point x="547" y="520" type="line"/>
      <point x="323" y="520" type="line"/>
      <point x="323" y="76" type="line" smooth="yes"/>
      <point x="323" y="4"/>
      <point x="315" y="-2"/>
    </contour>
    <contour>
      <point x="321" y="730" type="line"/>
      <point x="321" y="566" type="line"/>
      <point x="547" y="566" type="line"/>
      <point x="547" y="730" type="line"/>
    </contour>
  </outline>
</glyph>
<glyph name="Jcircumflex" format="2">
  <advance width="351"/>
  <unicode hex="0134"/>
  <note>
Jcircumflex
</note>
  <anchor x="180" y="0" name="bottom"/>
  <anchor x="194" y="937" name="top"/>
  <outline>
    <contour>
      <point x="313" y="183" type="curve" smooth="yes"/>
      <point x="313" y="710" type="line"/>
      <point x="81" y="710" type="line"/>
      <point x="81" y="268" type="line" smooth="yes"/>
      <point x="81" y="187"/>
      <point x="77" y="184"/>
      <point x="24" y="184" type="curve"/>
      <point x="24" y="-7" type="line"/>
      <point x="257" y="-7"/>
      <point x="313" y="25"/>
    </contour>
    <contour>
      <point x="82" y="937" type="line"/>
      <point x="1" y="757" type="line"/>
      <point x="163" y="757" type="line"/>
      <point x="194" y="840" type="line"/>
      <point x="225" y="757" type="line"/>
      <point x="387" y="757" type="line"/>
      <point x="306" y="937" type="line"/>
    </contour>
  </outline>
</glyph>
<glyph name="jcircumflex" format="2">
  <advance width="288"/>
  <unicode hex="0135"/>
  <note>
jcircumflex
</note>
  <anchor x="156" y="-210" name="bottom"/>
  <anchor x="145" y="756" name="top"/>
  <outline>
    <contour>
      <point x="258" y="520" type="line"/>
      <point x="34" y="520" type="line"/>
      <point x="34" y="76" type="line" smooth="yes"/>
      <point x="34" y="4"/>
      <point x="26" y="-2"/>
      <point x="-55" y="-40" type="curve"/>
      <point x="17" y="-210" type="line"/>
      <point x="215" y="-148"/>
      <point x="258" y="-118"/>
      <point x="258" y="83" type="curve" smooth="yes"/>
    </contour>
    <contour>
      <point x="33" y="756" type="line"/>
      <point x="-48" y="576" type="line"/>
      <point x="114" y="576" type="line"/>
      <point x="145" y="659" type="line"/>
      <point x="176" y="576" type="line"/>
      <point x="338" y="576" type="line"/>
      <point x="257" y="756" type="line"/>
    </contour>
  </outline>
</glyph>
<glyph name="uni0136" format="2">
  <advance width="629"/>
  <unicode hex="0136"/>
  <note>
uni0136
</note>
  <anchor x="316" y="-327" name="bottom"/>
  <anchor x="320" y="710" name="top"/>
  <outline>
    <contour>
      <point x="272" y="251" type="line"/>
      <point x="313" y="251" type="line"/>
      <point x="386" y="0" type="line"/>
      <point x="627" y="0" type="line"/>
      <point x="510" y="374" type="line"/>
      <point x="617" y="710" type="line"/>
      <point x="387" y="710" type="line"/>
      <point x="312" y="461" type="line"/>
      <point x="272" y="461" type="line"/>
      <point x="272" y="710" type="line"/>
      <point x="40" y="710" type="line"/>
      <point x="40" y="0" type="line"/>
      <point x="272" y="0" type="line"/>
    </contour>
    <contour>
      <point x="301" y="-54" type="line"/>
      <point x="189" y="-242" type="line"/>
      <point x="309" y="-327" type="line"/>
      <point x="446" y="-160" type="line"/>
    </contour>
  </outline>
</glyph>
<glyph name="uni0137" format="2">
  <advance width="558"/>
  <unicode hex="0137"/>
  <note>
uni0137
</note>
  <anchor x="279" y="-327" name="bottom"/>
  <anchor x="141" y="730" name="top"/>
  <outline>
    <contour>
      <point x="30" y="730" type="line"/>
      <point x="30" y="0" type="line"/>
      <point x="254" y="0" type="line"/>
      <point x="254" y="172" type="line"/>
      <point x="284" y="172" type="line"/>
      <point x="331" y="0" type="line"/>
      <point x="558" y="0" type="line"/>
      <point x="480" y="285" type="line"/>
      <point x="552" y="520" type="line"/>
      <point x="328" y="520" type="line"/>
      <point x="283" y="367" type="line"/>
      <point x="254" y="367" type="line"/>
      <point x="254" y="730" type="line"/>
    </contour>
    <contour>
      <point x="264" y="-54" type="line"/>
      <point x="152" y="-242" type="line"/>
      <point x="272" y="-327" type="line"/>
      <point x="409" y="-160" type="line"/>
    </contour>
  </outline>
</glyph>
<glyph name="Lacute" format="2">
  <advance width="504"/>
  <unicode hex="0139"/>
  <note>
Lacute
</note>
  <anchor x="250" y="0" name="bottom"/>
  <anchor x="150" y="400" name="center"/>
  <anchor x="160" y="990" name="top"/>
  <anchor x="330" y="710" name="topright"/>
  <outline>
    <contour>
      <point x="40" y="710" type="line"/>
      <point x="40" y="0" type="line"/>
      <point x="490" y="0" type="line"/>
      <point x="490" y="190" type="line"/>
      <point x="272" y="190" type="line"/>
      <point x="272" y="710" type="line"/>
    </contour>
    <contour>
      <point x="274" y="990" type="line"/>
      <point x="-13" y="870" type="line"/>
      <point x="27" y="751" type="line"/>
      <point x="333" y="830" type="line"/>
    </contour>
  </outline>
</glyph>
<glyph name="lacute" format="2">
  <advance width="324"/>
  <unicode hex="013A"/>
  <note>
lacute
</note>
  <anchor x="175" y="0" name="bottom"/>
  <anchor x="167" y="365" name="center"/>
  <anchor x="157" y="1010" name="top"/>
  <anchor x="295" y="730" name="topright"/>
  <outline>
    <contour>
      <point x="252" y="205" type="curve" smooth="yes"/>
      <point x="252" y="730" type="line"/>
      <point x="28" y="730" type="line"/>
      <point x="28" y="157" type="line" smooth="yes"/>
      <point x="28" y="35"/>
      <point x="68" y="-14"/>
      <point x="192" y="-14" type="curve" smooth="yes"/>
      <point x="267" y="-14"/>
      <point x="315" y="0"/>
      <point x="315" y="0" type="curve"/>
      <point x="309" y="174" type="line"/>
      <point x="309" y="174"/>
      <point x="293" y="173"/>
      <point x="283" y="173" type="curve" smooth="yes"/>
      <point x="261" y="173"/>
      <point x="252" y="180"/>
    </contour>
    <contour>
      <point x="271" y="1010" type="line"/>
      <point x="-16" y="890" type="line"/>
      <point x="24" y="771" type="line"/>
      <point x="330" y="850" type="line"/>
    </contour>
  </outline>
</glyph>
<glyph name="uni013B" format="2">
  <advance width="504"/>
  <unicode hex="013B"/>
  <note>
uni013B
</note>
  <anchor x="250" y="-327" name="bottom"/>
  <anchor x="150" y="400" name="center"/>
  <anchor x="160" y="710" name="top"/>
  <anchor x="330" y="710" name="topright"/>
  <outline>
    <contour>
      <point x="40" y="710" type="line"/>
      <point x="40" y="0" type="line"/>
      <point x="490" y="0" type="line"/>
      <point x="490" y="190" type="line"/>
      <point x="272" y="190" type="line"/>
      <point x="272" y="710" type="line"/>
    </contour>
    <contour>
      <point x="235" y="-54" type="line"/>
      <point x="123" y="-242" type="line"/>
      <point x="243" y="-327" type="line"/>
      <point x="380" y="-160" type="line"/>
    </contour>
  </outline>
</glyph>
<glyph name="Lcaron" format="2">
  <advance width="534"/>
  <unicode hex="013D"/>
  <note>
Lcaron
</note>
  <anchor x="250" y="0" name="bottom"/>
  <anchor x="150" y="400" name="center"/>
  <anchor x="160" y="710" name="top"/>
  <anchor x="330" y="710" name="topright"/>
  <outline>
    <contour>
      <point x="40" y="710" type="line"/>
      <point x="40" y="0" type="line"/>
      <point x="490" y="0" type="line"/>
      <point x="490" y="190" type="line"/>
      <point x="272" y="190" type="line"/>
      <point x="272" y="710" type="line"/>
    </contour>
    <contour>
      <point x="320" y="554" type="curve"/>
      <point x="470" y="526" type="line"/>
      <point x="470" y="526"/>
      <point x="525" y="583"/>
      <point x="525" y="628" type="curve" smooth="yes"/>
      <point x="525" y="659"/>
      <point x="522" y="710"/>
      <point x="522" y="710" type="curve"/>
      <point x="341" y="710" type="line"/>
      <point x="341" y="710"/>
      <point x="344" y="655"/>
      <point x="344" y="639" type="curve" smooth="yes"/>
      <point x="344" y="617"/>
      <point x="320" y="554"/>
    </contour>
  </outline>
</glyph>
<glyph name="lcaron" format="2">
  <advance width="324"/>
  <unicode hex="013E"/>
  <note>
lcaron
</note>
  <anchor x="175" y="0" name="bottom"/>
  <anchor x="167" y="365" name="center"/>
  <anchor x="157" y="730" name="top"/>
  <anchor x="295" y="730" name="topright"/>
  <outline>
    <contour>
      <point x="252" y="205" type="curve" smooth="yes"/>
      <point x="252" y="730" type="line"/>
      <point x="28" y="730" type="line"/>
      <point x="28" y="157" type="line" smooth="yes"/>
      <point x="28" y="35"/>
      <point x="68" y="-14"/>
      <point x="192" y="-14" type="curve" smooth="yes"/>
      <point x="267" y="-14"/>
      <point x="315" y="0"/>
      <point x="315" y="0" type="curve"/>
      <point x="309" y="174" type="line"/>
      <point x="309" y="174"/>
      <point x="293" y="173"/>
      <point x="283" y="173" type="curve" smooth="yes"/>
      <point x="261" y="173"/>
      <point x="252" y="180"/>
    </contour>
    <contour>
      <point x="285" y="574" type="curve"/>
      <point x="435" y="546" type="line"/>
      <point x="435" y="546"/>
      <point x="490" y="603"/>
      <point x="490" y="648" type="curve" smooth="yes"/>
      <point x="490" y="679"/>
      <point x="487" y="730"/>
      <point x="487" y="730" type="curve"/>
      <point x="306" y="730" type="line"/>
      <point x="306" y="730"/>
      <point x="309" y="675"/>
      <point x="309" y="659" type="curve" smooth="yes"/>
      <point x="309" y="637"/>
      <point x="285" y="574"/>
    </contour>
  </outline>
</glyph>
<glyph name="Ldot" format="2">
  <advance width="513"/>
  <unicode hex="013F"/>
  <note>
Ldot
</note>
  <anchor x="250" y="0" name="bottom"/>
  <anchor x="150" y="400" name="center"/>
  <anchor x="160" y="710" name="top"/>
  <anchor x="330" y="710" name="topright"/>
  <outline>
    <contour>
      <point x="40" y="710" type="line"/>
      <point x="40" y="0" type="line"/>
      <point x="490" y="0" type="line"/>
      <point x="490" y="190" type="line"/>
      <point x="272" y="190" type="line"/>
      <point x="272" y="710" type="line"/>
    </contour>
    <contour>
      <point x="330" y="489" type="line"/>
      <point x="330" y="289" type="line"/>
      <point x="490" y="289" type="line"/>
      <point x="490" y="489" type="line"/>
    </contour>
  </outline>
</glyph>
<glyph name="Lslash" format="2">
  <advance width="572"/>
  <unicode hex="0141"/>
  <note>
Lslash
</note>
  <anchor x="317" y="0" name="bottom"/>
  <anchor x="217" y="400" name="center"/>
  <anchor x="227" y="710" name="top"/>
  <anchor x="397" y="710" name="topright"/>
  <outline>
    <contour>
      <point x="107" y="248" type="line"/>
      <point x="107" y="0" type="line"/>
      <point x="557" y="0" type="line"/>
      <point x="557" y="190" type="line"/>
      <point x="339" y="190" type="line"/>
      <point x="339" y="331" type="line"/>
      <point x="505" y="416" type="line"/>
      <point x="442" y="544" type="line"/>
      <point x="339" y="487" type="line"/>
      <point x="339" y="710" type="line"/>
      <point x="107" y="710" type="line"/>
      <point x="107" y="404" type="line"/>
      <point x="-8" y="346" type="line"/>
      <point x="52" y="220" type="line"/>
    </contour>
  </outline>
</glyph>
<glyph name="lslash" format="2">
  <advance width="432"/>
  <unicode hex="0142"/>
  <note>
lslash
</note>
  <anchor x="242" y="0" name="bottom"/>
  <anchor x="234" y="365" name="center"/>
  <anchor x="224" y="730" name="top"/>
  <anchor x="362" y="730" name="topright"/>
  <outline>
    <contour>
      <point x="319" y="205" type="curve" smooth="yes"/>
      <point x="319" y="324" type="line"/>
      <point x="439" y="386" type="line"/>
      <point x="377" y="514" type="line"/>
      <point x="319" y="481" type="line"/>
      <point x="319" y="730" type="line"/>
      <point x="95" y="730" type="line"/>
      <point x="95" y="401" type="line"/>
      <point x="-11" y="349" type="line"/>
      <point x="48" y="223" type="line"/>
      <point x="95" y="246" type="line"/>
      <point x="95" y="157" type="line" smooth="yes"/>
      <point x="95" y="35"/>
      <point x="135" y="-14"/>
      <point x="259" y="-14" type="curve" smooth="yes"/>
      <point x="334" y="-14"/>
      <point x="382" y="0"/>
      <point x="382" y="0" type="curve"/>
      <point x="376" y="174" type="line"/>
      <point x="376" y="174"/>
      <point x="360" y="173"/>
      <point x="350" y="173" type="curve" smooth="yes"/>
      <point x="328" y="173"/>
      <point x="319" y="180"/>
    </contour>
  </outline>
</glyph>
<glyph name="Nacute" format="2">
  <advance width="729"/>
  <unicode hex="0143"/>
  <note>
Nacute
</note>
  <anchor x="365" y="0" name="bottom"/>
  <anchor x="365" y="990" name="top"/>
  <outline>
    <contour>
      <point x="260" y="710" type="line"/>
      <point x="40" y="710" type="line"/>
      <point x="40" y="0" type="line"/>
      <point x="272" y="0" type="line"/>
      <point x="272" y="313" type="line"/>
      <point x="297" y="313" type="line"/>
      <point x="469" y="0" type="line"/>
      <point x="689" y="0" type="line"/>
      <point x="689" y="710" type="line"/>
      <point x="457" y="710" type="line"/>
      <point x="457" y="406" type="line"/>
      <point x="432" y="406" type="line"/>
    </contour>
    <contour>
      <point x="479" y="990" type="line"/>
      <point x="192" y="870" type="line"/>
      <point x="232" y="751" type="line"/>
      <point x="538" y="830" type="line"/>
    </contour>
  </outline>
</glyph>
<glyph name="nacute" format="2">
  <advance width="583"/>
  <unicode hex="0144"/>
  <note>
nacute
</note>
  <anchor x="291" y="0" name="bottom"/>
  <anchor x="321" y="810" name="top"/>
  <outline>
    <contour>
      <point x="30" y="520" type="line"/>
      <point x="30" y="0" type="line"/>
      <point x="254" y="0" type="line"/>
      <point x="254" y="335" type="line"/>
      <point x="254" y="335"/>
      <point x="278" y="342"/>
      <point x="297" y="342" type="curve" smooth="yes"/>
      <point x="321" y="342"/>
      <point x="333" y="316"/>
      <point x="333" y="255" type="curve" smooth="yes"/>
      <point x="333" y="0" type="line"/>
      <point x="557" y="0" type="line"/>
      <point x="557" y="270" type="line" smooth="yes"/>
      <point x="557" y="468"/>
      <point x="506" y="535"/>
      <point x="399" y="535" type="curve" smooth="yes"/>
      <point x="316" y="535"/>
      <point x="253" y="494"/>
      <point x="253" y="494" type="curve"/>
      <point x="253" y="520" type="line"/>
    </contour>
    <contour>
      <point x="431" y="800" type="line"/>
      <point x="144" y="680" type="line"/>
      <point x="184" y="561" type="line"/>
      <point x="490" y="640" type="line"/>
    </contour>
  </outline>
</glyph>
<glyph name="uni0145" format="2">
  <advance width="729"/>
  <unicode hex="0145"/>
  <note>
uni0145
</note>
  <anchor x="365" y="-327" name="bottom"/>
  <anchor x="365" y="710" name="top"/>
  <outline>
    <contour>
      <point x="260" y="710" type="line"/>
      <point x="40" y="710" type="line"/>
      <point x="40" y="0" type="line"/>
      <point x="272" y="0" type="line"/>
      <point x="272" y="313" type="line"/>
      <point x="297" y="313" type="line"/>
      <point x="469" y="0" type="line"/>
      <point x="689" y="0" type="line"/>
      <point x="689" y="710" type="line"/>
      <point x="457" y="710" type="line"/>
      <point x="457" y="406" type="line"/>
      <point x="432" y="406" type="line"/>
    </contour>
    <contour>
      <point x="350" y="-54" type="line"/>
      <point x="238" y="-242" type="line"/>
      <point x="358" y="-327" type="line"/>
      <point x="495" y="-160" type="line"/>
    </contour>
  </outline>
</glyph>
<glyph name="uni0146" format="2">
  <advance width="583"/>
  <unicode hex="0146"/>
  <note>
uni0146
</note>
  <anchor x="291" y="-327" name="bottom"/>
  <anchor x="311" y="520" name="top"/>
  <outline>
    <contour>
      <point x="30" y="520" type="line"/>
      <point x="30" y="0" type="line"/>
      <point x="254" y="0" type="line"/>
      <point x="254" y="335" type="line"/>
      <point x="254" y="335"/>
      <point x="278" y="342"/>
      <point x="297" y="342" type="curve" smooth="yes"/>
      <point x="321" y="342"/>
      <point x="333" y="316"/>
      <point x="333" y="255" type="curve" smooth="yes"/>
      <point x="333" y="0" type="line"/>
      <point x="557" y="0" type="line"/>
      <point x="557" y="270" type="line" smooth="yes"/>
      <point x="557" y="468"/>
      <point x="506" y="535"/>
      <point x="399" y="535" type="curve" smooth="yes"/>
      <point x="316" y="535"/>
      <point x="253" y="494"/>
      <point x="253" y="494" type="curve"/>
      <point x="253" y="520" type="line"/>
    </contour>
    <contour>
      <point x="276" y="-54" type="line"/>
      <point x="164" y="-242" type="line"/>
      <point x="284" y="-327" type="line"/>
      <point x="421" y="-160" type="line"/>
    </contour>
  </outline>
</glyph>
<glyph name="Ncaron" format="2">
  <advance width="729"/>
  <unicode hex="0147"/>
  <note>
Ncaron
</note>
  <anchor x="365" y="0" name="bottom"/>
  <anchor x="365" y="937" name="top"/>
  <outline>
    <contour>
      <point x="260" y="710" type="line"/>
      <point x="40" y="710" type="line"/>
      <point x="40" y="0" type="line"/>
      <point x="272" y="0" type="line"/>
      <point x="272" y="313" type="line"/>
      <point x="297" y="313" type="line"/>
      <point x="469" y="0" type="line"/>
      <point x="689" y="0" type="line"/>
      <point x="689" y="710" type="line"/>
      <point x="457" y="710" type="line"/>
      <point x="457" y="406" type="line"/>
      <point x="432" y="406" type="line"/>
    </contour>
    <contour>
      <point x="334" y="937" type="line"/>
      <point x="172" y="937" type="line"/>
      <point x="253" y="757" type="line"/>
      <point x="477" y="757" type="line"/>
      <point x="558" y="937" type="line"/>
      <point x="396" y="937" type="line"/>
      <point x="365" y="854" type="line"/>
    </contour>
  </outline>
</glyph>
<glyph name="ncaron" format="2">
  <advance width="583"/>
  <unicode hex="0148"/>
  <note>
ncaron
</note>
  <anchor x="291" y="0" name="bottom"/>
  <anchor x="311" y="756" name="top"/>
  <outline>
    <contour>
      <point x="30" y="520" type="line"/>
      <point x="30" y="0" type="line"/>
      <point x="254" y="0" type="line"/>
      <point x="254" y="335" type="line"/>
      <point x="254" y="335"/>
      <point x="278" y="342"/>
      <point x="297" y="342" type="curve" smooth="yes"/>
      <point x="321" y="342"/>
      <point x="333" y="316"/>
      <point x="333" y="255" type="curve" smooth="yes"/>
      <point x="333" y="0" type="line"/>
      <point x="557" y="0" type="line"/>
      <point x="557" y="270" type="line" smooth="yes"/>
      <point x="557" y="468"/>
      <point x="506" y="535"/>
      <point x="399" y="535" type="curve" smooth="yes"/>
      <point x="316" y="535"/>
      <point x="253" y="494"/>
      <point x="253" y="494" type="curve"/>
      <point x="253" y="520" type="line"/>
    </contour>
    <contour>
      <point x="280" y="756" type="line"/>
      <point x="118" y="756" type="line"/>
      <point x="199" y="576" type="line"/>
      <point x="423" y="576" type="line"/>
      <point x="504" y="756" type="line"/>
      <point x="342" y="756" type="line"/>
      <point x="311" y="673" type="line"/>
    </contour>
  </outline>
</glyph>
<glyph name="napostrophe" format="2">
  <advance width="851"/>
  <unicode hex="0149"/>
  <note>
napostrophe
</note>
  <anchor x="559" y="0" name="bottom"/>
  <anchor x="579" y="520" name="top"/>
  <outline>
    <contour>
      <point x="272" y="730" type="line"/>
      <point x="30" y="730" type="line"/>
      <point x="8" y="427" type="line"/>
      <point x="193" y="427" type="line"/>
    </contour>
    <contour>
      <point x="298" y="520" type="line"/>
      <point x="298" y="0" type="line"/>
      <point x="522" y="0" type="line"/>
      <point x="522" y="335" type="line"/>
      <point x="522" y="335"/>
      <point x="546" y="342"/>
      <point x="565" y="342" type="curve" smooth="yes"/>
      <point x="589" y="342"/>
      <point x="601" y="316"/>
      <point x="601" y="255" type="curve" smooth="yes"/>
      <point x="601" y="0" type="line"/>
      <point x="825" y="0" type="line"/>
      <point x="825" y="270" type="line" smooth="yes"/>
      <point x="825" y="468"/>
      <point x="774" y="535"/>
      <point x="667" y="535" type="curve" smooth="yes"/>
      <point x="584" y="535"/>
      <point x="521" y="494"/>
      <point x="521" y="494" type="curve"/>
      <point x="521" y="520" type="line"/>
    </contour>
  </outline>
</glyph>
<glyph name="obreve" format="2">
  <advance width="566"/>
  <unicode hex="014F"/>
  <note>
obreve
</note>
  <anchor x="285" y="0" name="bottom"/>
  <anchor x="285" y="260" name="center"/>
  <anchor x="389" y="0" name="ogonek"/>
  <anchor x="285" y="756" name="top"/>
  <anchor x="547" y="520" name="topright"/>
  <outline>
    <contour>
      <point x="283" y="168" type="curve" smooth="yes"/>
      <point x="254" y="169"/>
      <point x="244" y="189"/>
      <point x="244" y="261" type="curve" smooth="yes"/>
      <point x="244" y="333"/>
      <point x="254" y="353"/>
      <point x="283" y="354" type="curve" smooth="yes"/>
      <point x="312" y="353"/>
      <point x="322" y="333"/>
      <point x="322" y="261" type="curve" smooth="yes"/>
      <point x="322" y="189"/>
      <point x="312" y="169"/>
    </contour>
    <contour>
      <point x="18" y="261" type="curve" smooth="yes"/>
      <point x="18" y="59"/>
      <point x="111" y="-13"/>
      <point x="283" y="-14" type="curve" smooth="yes"/>
      <point x="455" y="-13"/>
      <point x="548" y="59"/>
      <point x="548" y="261" type="curve" smooth="yes"/>
      <point x="548" y="461"/>
      <point x="455" y="534"/>
      <point x="283" y="535" type="curve" smooth="yes"/>
      <point x="111" y="534"/>
      <point x="18" y="461"/>
    </contour>
    <contour>
      <point x="241" y="756" type="curve"/>
      <point x="115" y="756" type="line"/>
      <point x="115" y="636"/>
      <point x="155" y="571"/>
      <point x="285" y="571" type="curve" smooth="yes"/>
      <point x="415" y="571"/>
      <point x="455" y="636"/>
      <point x="455" y="756" type="curve"/>
      <point x="329" y="756" type="line"/>
      <point x="326" y="716"/>
      <point x="315" y="702"/>
      <point x="285" y="702" type="curve" smooth="yes"/>
      <point x="255" y="702"/>
      <point x="244" y="716"/>
    </contour>
  </outline>
</glyph>
<glyph name="Ohungarumlaut" format="2">
  <advance width="684"/>
  <unicode hex="0150"/>
  <note>
Ohungarumlaut
</note>
  <anchor x="342" y="0" name="bottom"/>
  <anchor x="342" y="350" name="center"/>
  <anchor x="459" y="0" name="ogonek"/>
  <anchor x="371" y="1029" name="top"/>
  <anchor x="664" y="710" name="topright"/>
  <outline>
    <contour>
      <point x="342" y="538" type="curve" smooth="yes"/>
      <point x="412" y="538"/>
      <point x="423" y="487"/>
      <point x="423" y="358" type="curve" smooth="yes"/>
      <point x="423" y="222"/>
      <point x="412" y="175"/>
      <point x="342" y="175" type="curve" smooth="yes"/>
      <point x="272" y="175"/>
      <point x="261" y="222"/>
      <point x="261" y="358" type="curve" smooth="yes"/>
      <point x="261" y="487"/>
      <point x="272" y="538"/>
    </contour>
    <contour>
      <point x="25" y="358" type="curve" smooth="yes"/>
      <point x="25" y="90"/>
      <point x="115" y="-13"/>
      <point x="342" y="-13" type="curve" smooth="yes"/>
      <point x="569" y="-13"/>
      <point x="659" y="90"/>
      <point x="659" y="358" type="curve" smooth="yes"/>
      <point x="659" y="619"/>
      <point x="572" y="726"/>
      <point x="342" y="726" type="curve" smooth="yes"/>
      <point x="112" y="726"/>
      <point x="25" y="619"/>
    </contour>
    <contour>
      <point x="267" y="1029" type="line"/>
      <point x="109" y="853" type="line"/>
      <point x="203" y="751" type="line"/>
      <point x="373" y="899" type="line"/>
    </contour>
    <contour>
      <point x="527" y="1029" type="line"/>
      <point x="369" y="853" type="line"/>
      <point x="463" y="751" type="line"/>
      <point x="633" y="899" type="line"/>
    </contour>
  </outline>
</glyph>
<glyph name="ohungarumlaut" format="2">
  <advance width="566"/>
  <unicode hex="0151"/>
  <note>
ohungarumlaut
</note>
  <anchor x="285" y="0" name="bottom"/>
  <anchor x="285" y="260" name="center"/>
  <anchor x="389" y="0" name="ogonek"/>
  <anchor x="336" y="839" name="top"/>
  <anchor x="547" y="520" name="topright"/>
  <outline>
    <contour>
      <point x="283" y="168" type="curve" smooth="yes"/>
      <point x="254" y="169"/>
      <point x="244" y="189"/>
      <point x="244" y="261" type="curve" smooth="yes"/>
      <point x="244" y="333"/>
      <point x="254" y="353"/>
      <point x="283" y="354" type="curve" smooth="yes"/>
      <point x="312" y="353"/>
      <point x="322" y="333"/>
      <point x="322" y="261" type="curve" smooth="yes"/>
      <point x="322" y="189"/>
      <point x="312" y="169"/>
    </contour>
    <contour>
      <point x="18" y="261" type="curve" smooth="yes"/>
      <point x="18" y="59"/>
      <point x="111" y="-13"/>
      <point x="283" y="-14" type="curve" smooth="yes"/>
      <point x="455" y="-13"/>
      <point x="548" y="59"/>
      <point x="548" y="261" type="curve" smooth="yes"/>
      <point x="548" y="461"/>
      <point x="455" y="534"/>
      <point x="283" y="535" type="curve" smooth="yes"/>
      <point x="111" y="534"/>
      <point x="18" y="461"/>
    </contour>
    <contour>
      <point x="213" y="839" type="line"/>
      <point x="55" y="663" type="line"/>
      <point x="149" y="561" type="line"/>
      <point x="319" y="709" type="line"/>
    </contour>
    <contour>
      <point x="473" y="839" type="line"/>
      <point x="315" y="663" type="line"/>
      <point x="409" y="561" type="line"/>
      <point x="579" y="709" type="line"/>
    </contour>
  </outline>
</glyph>
<glyph name="racute" format="2">
  <advance width="374"/>
  <unicode hex="0155"/>
  <note>
racute
</note>
  <anchor x="143" y="0" name="bottom"/>
  <anchor x="196" y="810" name="top"/>
  <outline>
    <contour>
      <point x="249" y="520" type="line"/>
      <point x="30" y="520" type="line"/>
      <point x="30" y="0" type="line"/>
      <point x="254" y="0" type="line"/>
      <point x="254" y="289" type="line"/>
      <point x="254" y="289"/>
      <point x="314" y="320"/>
      <point x="360" y="328" type="curve"/>
      <point x="360" y="535" type="line"/>
      <point x="307" y="523"/>
      <point x="249" y="473"/>
      <point x="249" y="473" type="curve"/>
    </contour>
    <contour>
      <point x="306" y="800" type="line"/>
      <point x="19" y="680" type="line"/>
      <point x="59" y="561" type="line"/>
      <point x="365" y="640" type="line"/>
    </contour>
  </outline>
</glyph>
<glyph name="uni0157" format="2">
  <advance width="374"/>
  <unicode hex="0157"/>
  <note>
uni0157
</note>
  <anchor x="143" y="-327" name="bottom"/>
  <anchor x="186" y="520" name="top"/>
  <outline>
    <contour>
      <point x="249" y="520" type="line"/>
      <point x="30" y="520" type="line"/>
      <point x="30" y="0" type="line"/>
      <point x="254" y="0" type="line"/>
      <point x="254" y="289" type="line"/>
      <point x="254" y="289"/>
      <point x="314" y="320"/>
      <point x="360" y="328" type="curve"/>
      <point x="360" y="535" type="line"/>
      <point x="307" y="523"/>
      <point x="249" y="473"/>
      <point x="249" y="473" type="curve"/>
    </contour>
    <contour>
      <point x="128" y="-54" type="line"/>
      <point x="16" y="-242" type="line"/>
      <point x="136" y="-327" type="line"/>
      <point x="273" y="-160" type="line"/>
    </contour>
  </outline>
</glyph>
<glyph name="rcaron" format="2">
  <advance width="374"/>
  <unicode hex="0159"/>
  <note>
rcaron
</note>
  <anchor x="143" y="0" name="bottom"/>
  <anchor x="186" y="756" name="top"/>
  <outline>
    <contour>
      <point x="249" y="520" type="line"/>
      <point x="30" y="520" type="line"/>
      <point x="30" y="0" type="line"/>
      <point x="254" y="0" type="line"/>
      <point x="254" y="289" type="line"/>
      <point x="254" y="289"/>
      <point x="314" y="320"/>
      <point x="360" y="328" type="curve"/>
      <point x="360" y="535" type="line"/>
      <point x="307" y="523"/>
      <point x="249" y="473"/>
      <point x="249" y="473" type="curve"/>
    </contour>
    <contour>
      <point x="155" y="756" type="line"/>
      <point x="-7" y="756" type="line"/>
      <point x="74" y="576" type="line"/>
      <point x="298" y="576" type="line"/>
      <point x="379" y="756" type="line"/>
      <point x="217" y="756" type="line"/>
      <point x="186" y="673" type="line"/>
    </contour>
  </outline>
</glyph>
<glyph name="Scedilla" format="2">
  <advance width="590"/>
  <unicode hex="015E"/>
  <note>
Scedilla
</note>
  <anchor x="285" y="-240" name="bottom"/>
  <anchor x="296" y="700" name="top"/>
  <outline>
    <contour>
      <point x="528" y="521" type="curve"/>
      <point x="544" y="701" type="line"/>
      <point x="544" y="701"/>
      <point x="394" y="726"/>
      <point x="283" y="726" type="curve" smooth="yes"/>
      <point x="123" y="726"/>
      <point x="24" y="664"/>
      <point x="24" y="491" type="curve" smooth="yes"/>
      <point x="24" y="373"/>
      <point x="71" y="323"/>
      <point x="168" y="290" type="curve" smooth="yes"/>
      <point x="281" y="252" type="line" smooth="yes"/>
      <point x="330" y="236"/>
      <point x="340" y="233"/>
      <point x="340" y="210" type="curve" smooth="yes"/>
      <point x="340" y="191"/>
      <point x="328" y="178"/>
      <point x="268" y="178" type="curve" smooth="yes"/>
      <point x="190" y="178"/>
      <point x="44" y="192"/>
      <point x="44" y="192" type="curve"/>
      <point x="24" y="15" type="line"/>
      <point x="24" y="15"/>
      <point x="113" y="-4"/>
      <point x="219" y="-11" type="curve"/>
      <point x="201" y="-109" type="line"/>
      <point x="210" y="-109" type="line" smooth="yes"/>
      <point x="239" y="-109"/>
      <point x="248" y="-112"/>
      <point x="248" y="-129" type="curve" smooth="yes"/>
      <point x="248" y="-144"/>
      <point x="240" y="-151"/>
      <point x="210" y="-151" type="curve" smooth="yes"/>
      <point x="193" y="-151"/>
      <point x="162" y="-150"/>
      <point x="162" y="-150" type="curve"/>
      <point x="158" y="-231" type="line"/>
      <point x="158" y="-231"/>
      <point x="218" y="-240"/>
      <point x="275" y="-240" type="curve" smooth="yes"/>
      <point x="379" y="-240"/>
      <point x="412" y="-210"/>
      <point x="412" y="-137" type="curve" smooth="yes"/>
      <point x="412" y="-59"/>
      <point x="374" y="-42"/>
      <point x="289" y="-41" type="curve"/>
      <point x="294" y="-13" type="line"/>
      <point x="472" y="-12"/>
      <point x="574" y="47"/>
      <point x="574" y="243" type="curve" smooth="yes"/>
      <point x="574" y="344"/>
      <point x="545" y="387"/>
      <point x="409" y="437" type="curve" smooth="yes"/>
      <point x="308" y="474" type="line" smooth="yes"/>
      <point x="263" y="490"/>
      <point x="256" y="494"/>
      <point x="256" y="509" type="curve" smooth="yes"/>
      <point x="256" y="532"/>
      <point x="266" y="536"/>
      <point x="313" y="536" type="curve" smooth="yes"/>
      <point x="405" y="536"/>
      <point x="528" y="521"/>
    </contour>
  </outline>
</glyph>
<glyph name="scedilla" format="2">
  <advance width="488"/>
  <unicode hex="015F"/>
  <note>
scedilla
</note>
  <anchor x="241" y="-240" name="bottom"/>
  <anchor x="256" y="520" name="top"/>
  <outline>
    <contour>
      <point x="451" y="358" type="curve"/>
      <point x="453" y="512" type="line"/>
      <point x="453" y="512"/>
      <point x="374" y="535"/>
      <point x="259" y="535" type="curve" smooth="yes"/>
      <point x="116" y="535"/>
      <point x="20" y="499"/>
      <point x="20" y="344" type="curve" smooth="yes"/>
      <point x="20" y="254"/>
      <point x="53" y="218"/>
      <point x="148" y="197" type="curve" smooth="yes"/>
      <point x="221" y="181" type="line" smooth="yes"/>
      <point x="243" y="176"/>
      <point x="251" y="173"/>
      <point x="251" y="161" type="curve" smooth="yes"/>
      <point x="251" y="148"/>
      <point x="241" y="143"/>
      <point x="216" y="143" type="curve" smooth="yes"/>
      <point x="154" y="143"/>
      <point x="25" y="159"/>
      <point x="25" y="159" type="curve"/>
      <point x="21" y="6" type="line"/>
      <point x="21" y="6"/>
      <point x="82" y="-7"/>
      <point x="174" y="-11" type="curve"/>
      <point x="157" y="-109" type="line"/>
      <point x="166" y="-109" type="line" smooth="yes"/>
      <point x="195" y="-109"/>
      <point x="204" y="-112"/>
      <point x="204" y="-129" type="curve" smooth="yes"/>
      <point x="204" y="-144"/>
      <point x="196" y="-151"/>
      <point x="166" y="-151" type="curve" smooth="yes"/>
      <point x="149" y="-151"/>
      <point x="118" y="-150"/>
      <point x="118" y="-150" type="curve"/>
      <point x="114" y="-231" type="line"/>
      <point x="114" y="-231"/>
      <point x="174" y="-240"/>
      <point x="231" y="-240" type="curve" smooth="yes"/>
      <point x="335" y="-240"/>
      <point x="368" y="-210"/>
      <point x="368" y="-137" type="curve" smooth="yes"/>
      <point x="368" y="-59"/>
      <point x="330" y="-42"/>
      <point x="245" y="-41" type="curve"/>
      <point x="250" y="-13" type="line"/>
      <point x="412" y="-11"/>
      <point x="475" y="33"/>
      <point x="475" y="173" type="curve" smooth="yes"/>
      <point x="475" y="246"/>
      <point x="455" y="300"/>
      <point x="348" y="325" type="curve" smooth="yes"/>
      <point x="283" y="340" type="line" smooth="yes"/>
      <point x="251" y="347"/>
      <point x="245" y="348"/>
      <point x="245" y="360" type="curve" smooth="yes"/>
      <point x="245" y="374"/>
      <point x="257" y="376"/>
      <point x="275" y="376" type="curve" smooth="yes"/>
      <point x="338" y="376"/>
      <point x="451" y="358"/>
    </contour>
  </outline>
</glyph>
<glyph name="uni0162" format="2">
  <advance width="556"/>
  <unicode hex="0162"/>
  <note>
uni0162
</note>
  <anchor x="292" y="-240" name="bottom"/>
  <anchor x="278" y="326" name="center"/>
  <anchor x="278" y="710" name="top"/>
  <outline>
    <contour>
      <point x="544" y="710" type="line"/>
      <point x="12" y="710" type="line"/>
      <point x="12" y="520" type="line"/>
      <point x="162" y="520" type="line"/>
      <point x="162" y="0" type="line"/>
      <point x="227" y="0" type="line"/>
      <point x="208" y="-109" type="line"/>
      <point x="217" y="-109" type="line" smooth="yes"/>
      <point x="246" y="-109"/>
      <point x="255" y="-112"/>
      <point x="255" y="-129" type="curve" smooth="yes"/>
      <point x="255" y="-144"/>
      <point x="247" y="-151"/>
      <point x="217" y="-151" type="curve" smooth="yes"/>
      <point x="200" y="-151"/>
      <point x="169" y="-150"/>
      <point x="169" y="-150" type="curve"/>
      <point x="165" y="-231" type="line"/>
      <point x="165" y="-231"/>
      <point x="225" y="-240"/>
      <point x="282" y="-240" type="curve" smooth="yes"/>
      <point x="386" y="-240"/>
      <point x="419" y="-210"/>
      <point x="419" y="-137" type="curve" smooth="yes"/>
      <point x="419" y="-59"/>
      <point x="381" y="-42"/>
      <point x="296" y="-41" type="curve"/>
      <point x="303" y="0" type="line"/>
      <point x="394" y="0" type="line"/>
      <point x="394" y="520" type="line"/>
      <point x="544" y="520" type="line"/>
    </contour>
  </outline>
</glyph>
<glyph name="uni0163" format="2">
  <advance width="386"/>
  <unicode hex="0163"/>
  <note>
uni0163
</note>
  <anchor x="221" y="-240" name="bottom"/>
  <anchor x="197" y="260" name="center"/>
  <anchor x="170" y="653" name="top"/>
  <anchor x="310" y="730" name="topright"/>
  <outline>
    <contour>
      <point x="283" y="220" type="curve" smooth="yes"/>
      <point x="283" y="340" type="line"/>
      <point x="363" y="340" type="line"/>
      <point x="363" y="520" type="line"/>
      <point x="279" y="520" type="line"/>
      <point x="279" y="653" type="line"/>
      <point x="59" y="653" type="line"/>
      <point x="59" y="520" type="line"/>
      <point x="19" y="520" type="line"/>
      <point x="19" y="340" type="line"/>
      <point x="59" y="340" type="line"/>
      <point x="59" y="168" type="line" smooth="yes"/>
      <point x="59" y="60"/>
      <point x="89" y="12"/>
      <point x="156" y="-5" type="curve"/>
      <point x="137" y="-109" type="line"/>
      <point x="146" y="-109" type="line" smooth="yes"/>
      <point x="175" y="-109"/>
      <point x="184" y="-112"/>
      <point x="184" y="-129" type="curve" smooth="yes"/>
      <point x="184" y="-144"/>
      <point x="176" y="-151"/>
      <point x="146" y="-151" type="curve" smooth="yes"/>
      <point x="129" y="-151"/>
      <point x="98" y="-150"/>
      <point x="98" y="-150" type="curve"/>
      <point x="94" y="-231" type="line"/>
      <point x="94" y="-231"/>
      <point x="154" y="-240"/>
      <point x="211" y="-240" type="curve" smooth="yes"/>
      <point x="315" y="-240"/>
      <point x="348" y="-210"/>
      <point x="348" y="-137" type="curve" smooth="yes"/>
      <point x="348" y="-59"/>
      <point x="310" y="-42"/>
      <point x="225" y="-41" type="curve"/>
      <point x="230" y="-13" type="line"/>
      <point x="232" y="-13" type="line" smooth="yes"/>
      <point x="278" y="-13"/>
      <point x="364" y="2"/>
      <point x="364" y="2" type="curve"/>
      <point x="361" y="179" type="line"/>
      <point x="361" y="179"/>
      <point x="336" y="178"/>
      <point x="316" y="178" type="curve" smooth="yes"/>
      <point x="288" y="178"/>
      <point x="283" y="188"/>
    </contour>
  </outline>
</glyph>
<glyph name="Tcaron" format="2">
  <advance width="556"/>
  <unicode hex="0164"/>
  <note>
Tcaron
</note>
  <anchor x="278" y="0" name="bottom"/>
  <anchor x="278" y="326" name="center"/>
  <anchor x="278" y="937" name="top"/>
  <outline>
    <contour>
      <point x="544" y="710" type="line"/>
      <point x="12" y="710" type="line"/>
      <point x="12" y="520" type="line"/>
      <point x="162" y="520" type="line"/>
      <point x="162" y="0" type="line"/>
      <point x="394" y="0" type="line"/>
      <point x="394" y="520" type="line"/>
      <point x="544" y="520" type="line"/>
    </contour>
    <contour>
      <point x="247" y="937" type="line"/>
      <point x="85" y="937" type="line"/>
      <point x="166" y="757" type="line"/>
      <point x="390" y="757" type="line"/>
      <point x="471" y="937" type="line"/>
      <point x="309" y="937" type="line"/>
      <point x="278" y="854" type="line"/>
    </contour>
  </outline>
</glyph>
<glyph name="tcaron" format="2">
  <advance width="386"/>
  <unicode hex="0165"/>
  <note>
tcaron
</note>
  <anchor x="207" y="0" name="bottom"/>
  <anchor x="197" y="260" name="center"/>
  <anchor x="170" y="653" name="top"/>
  <anchor x="310" y="730" name="topright"/>
  <outline>
    <contour>
      <point x="283" y="220" type="curve" smooth="yes"/>
      <point x="283" y="340" type="line"/>
      <point x="363" y="340" type="line"/>
      <point x="363" y="520" type="line"/>
      <point x="279" y="520" type="line"/>
      <point x="279" y="653" type="line"/>
      <point x="59" y="653" type="line"/>
      <point x="59" y="520" type="line"/>
      <point x="19" y="520" type="line"/>
      <point x="19" y="340" type="line"/>
      <point x="59" y="340" type="line"/>
      <point x="59" y="168" type="line" smooth="yes"/>
      <point x="59" y="25"/>
      <point x="112" y="-13"/>
      <point x="232" y="-13" type="curve" smooth="yes"/>
      <point x="278" y="-13"/>
      <point x="364" y="2"/>
      <point x="364" y="2" type="curve"/>
      <point x="361" y="179" type="line"/>
      <point x="361" y="179"/>
      <point x="336" y="178"/>
      <point x="316" y="178" type="curve" smooth="yes"/>
      <point x="288" y="178"/>
      <point x="283" y="188"/>
    </contour>
    <contour>
      <point x="300" y="574" type="curve"/>
      <point x="450" y="546" type="line"/>
      <point x="450" y="546"/>
      <point x="505" y="603"/>
      <point x="505" y="648" type="curve" smooth="yes"/>
      <point x="505" y="679"/>
      <point x="502" y="730"/>
      <point x="502" y="730" type="curve"/>
      <point x="321" y="730" type="line"/>
      <point x="321" y="730"/>
      <point x="324" y="675"/>
      <point x="324" y="659" type="curve" smooth="yes"/>
      <point x="324" y="637"/>
      <point x="300" y="574"/>
    </contour>
  </outline>
</glyph>
<glyph name="Tbar" format="2">
  <advance width="562"/>
  <unicode hex="0166"/>
  <note>
Tbar
</note>
  <anchor x="281" y="0" name="bottom"/>
  <anchor x="281" y="326" name="center"/>
  <anchor x="281" y="710" name="top"/>
  <outline>
    <contour>
      <point x="547" y="710" type="line"/>
      <point x="15" y="710" type="line"/>
      <point x="15" y="520" type="line"/>
      <point x="165" y="520" type="line"/>
      <point x="165" y="363" type="line"/>
      <point x="83" y="363" type="line"/>
      <point x="83" y="199" type="line"/>
      <point x="165" y="199" type="line"/>
      <point x="165" y="0" type="line"/>
      <point x="397" y="0" type="line"/>
      <point x="397" y="199" type="line"/>
      <point x="479" y="199" type="line"/>
      <point x="479" y="363" type="line"/>
      <point x="397" y="363" type="line"/>
      <point x="397" y="520" type="line"/>
      <point x="547" y="520" type="line"/>
    </contour>
  </outline>
</glyph>
<glyph name="tbar" format="2">
  <advance width="388"/>
  <unicode hex="0167"/>
  <note>
tbar
</note>
  <anchor x="208" y="0" name="bottom"/>
  <anchor x="198" y="260" name="center"/>
  <anchor x="171" y="653" name="top"/>
  <anchor x="311" y="730" name="topright"/>
  <outline>
    <contour>
      <point x="60" y="310" type="line"/>
      <point x="19" y="310" type="line"/>
      <point x="19" y="219" type="line"/>
      <point x="60" y="219" type="line"/>
      <point x="60" y="168" type="line" smooth="yes"/>
      <point x="60" y="25"/>
      <point x="113" y="-13"/>
      <point x="233" y="-13" type="curve" smooth="yes"/>
      <point x="279" y="-13"/>
      <point x="365" y="2"/>
      <point x="365" y="2" type="curve"/>
      <point x="362" y="179" type="line"/>
      <point x="362" y="179"/>
      <point x="337" y="178"/>
      <point x="317" y="178" type="curve" smooth="yes"/>
      <point x="289" y="178"/>
      <point x="284" y="188"/>
      <point x="284" y="219" type="curve"/>
      <point x="364" y="219" type="line"/>
      <point x="364" y="310" type="line"/>
      <point x="284" y="310" type="line"/>
      <point x="284" y="340" type="line"/>
      <point x="364" y="340" type="line"/>
      <point x="364" y="520" type="line"/>
      <point x="280" y="520" type="line"/>
      <point x="280" y="653" type="line"/>
      <point x="60" y="653" type="line"/>
      <point x="60" y="520" type="line"/>
      <point x="20" y="520" type="line"/>
      <point x="20" y="340" type="line"/>
      <point x="60" y="340" type="line"/>
    </contour>
  </outline>
</glyph>
<glyph name="Utilde" format="2">
  <advance width="638"/>
  <unicode hex="0168"/>
  <note>
Utilde
</note>
  <anchor x="319" y="0" name="bottom"/>
  <anchor x="445" y="0" name="ogonek"/>
  <anchor x="319" y="945" name="top"/>
  <anchor x="612" y="710" name="topright"/>
  <outline>
    <contour>
      <point x="268" y="230" type="curve" smooth="yes"/>
      <point x="268" y="710" type="line"/>
      <point x="36" y="710" type="line"/>
      <point x="36" y="239" type="line" smooth="yes"/>
      <point x="36" y="45"/>
      <point x="135" y="-14"/>
      <point x="319" y="-14" type="curve" smooth="yes"/>
      <point x="503" y="-14"/>
      <point x="602" y="45"/>
      <point x="602" y="239" type="curve" smooth="yes"/>
      <point x="602" y="710" type="line"/>
      <point x="370" y="710" type="line"/>
      <point x="370" y="230" type="line" smooth="yes"/>
      <point x="370" y="193"/>
      <point x="354" y="177"/>
      <point x="319" y="177" type="curve" smooth="yes"/>
      <point x="284" y="177"/>
      <point x="268" y="193"/>
    </contour>
    <contour>
      <point x="105" y="867" type="curve"/>
      <point x="169" y="764" type="line"/>
      <point x="169" y="764"/>
      <point x="221" y="801"/>
      <point x="249" y="801" type="curve" smooth="yes"/>
      <point x="282" y="801"/>
      <point x="326" y="757"/>
      <point x="378" y="757" type="curve" smooth="yes"/>
      <point x="432" y="757"/>
      <point x="533" y="839"/>
      <point x="533" y="839" type="curve"/>
      <point x="470" y="945" type="line"/>
      <point x="470" y="945"/>
      <point x="399" y="898"/>
      <point x="373" y="898" type="curve" smooth="yes"/>
      <point x="345" y="898"/>
      <point x="308" y="941"/>
      <point x="247" y="941" type="curve" smooth="yes"/>
      <point x="194" y="941"/>
      <point x="105" y="867"/>
    </contour>
  </outline>
</glyph>
<glyph name="utilde" format="2">
  <advance width="583"/>
  <unicode hex="0169"/>
  <note>
utilde
</note>
  <anchor x="293" y="0" name="bottom"/>
  <anchor x="486" y="0" name="ogonek"/>
  <anchor x="293" y="766" name="top"/>
  <anchor x="561" y="520" name="topright"/>
  <outline>
    <contour>
      <point x="553" y="0" type="line"/>
      <point x="553" y="520" type="line"/>
      <point x="329" y="520" type="line"/>
      <point x="329" y="185" type="line"/>
      <point x="329" y="185"/>
      <point x="308" y="178"/>
      <point x="286" y="178" type="curve" smooth="yes"/>
      <point x="265" y="178"/>
      <point x="251" y="188"/>
      <point x="251" y="229" type="curve" smooth="yes"/>
      <point x="251" y="520" type="line"/>
      <point x="27" y="520" type="line"/>
      <point x="27" y="203" type="line" smooth="yes"/>
      <point x="27" y="61"/>
      <point x="72" y="-13"/>
      <point x="191" y="-13" type="curve" smooth="yes"/>
      <point x="276" y="-13"/>
      <point x="331" y="26"/>
      <point x="331" y="26" type="curve"/>
      <point x="331" y="0" type="line"/>
    </contour>
    <contour>
      <point x="69" y="688" type="curve"/>
      <point x="133" y="585" type="line"/>
      <point x="133" y="585"/>
      <point x="185" y="622"/>
      <point x="213" y="622" type="curve" smooth="yes"/>
      <point x="246" y="622"/>
      <point x="310" y="578"/>
      <point x="362" y="578" type="curve" smooth="yes"/>
      <point x="416" y="578"/>
      <point x="517" y="660"/>
      <point x="517" y="660" type="curve"/>
      <point x="454" y="766" type="line"/>
      <point x="454" y="766"/>
      <point x="383" y="719"/>
      <point x="357" y="719" type="curve" smooth="yes"/>
      <point x="329" y="719"/>
      <point x="272" y="762"/>
      <point x="211" y="762" type="curve" smooth="yes"/>
      <point x="158" y="762"/>
      <point x="69" y="688"/>
    </contour>
  </outline>
</glyph>
<glyph name="Umacron" format="2">
  <advance width="638"/>
  <unicode hex="016A"/>
  <note>
Umacron
</note>
  <anchor x="319" y="0" name="bottom"/>
  <anchor x="445" y="0" name="ogonek"/>
  <anchor x="319" y="896" name="top"/>
  <anchor x="612" y="710" name="topright"/>
  <outline>
    <contour>
      <point x="268" y="230" type="curve" smooth="yes"/>
      <point x="268" y="710" type="line"/>
      <point x="36" y="710" type="line"/>
      <point x="36" y="239" type="line" smooth="yes"/>
      <point x="36" y="45"/>
      <point x="135" y="-14"/>
      <point x="319" y="-14" type="curve" smooth="yes"/>
      <point x="503" y="-14"/>
      <point x="602" y="45"/>
      <point x="602" y="239" type="curve" smooth="yes"/>
      <point x="602" y="710" type="line"/>
      <point x="370" y="710" type="line"/>
      <point x="370" y="230" type="line" smooth="yes"/>
      <point x="370" y="193"/>
      <point x="354" y="177"/>
      <point x="319" y="177" type="curve" smooth="yes"/>
      <point x="284" y="177"/>
      <point x="268" y="193"/>
    </contour>
    <contour>
      <point x="155" y="896" type="line"/>
      <point x="155" y="766" type="line"/>
      <point x="482" y="766" type="line"/>
      <point x="482" y="896" type="line"/>
    </contour>
  </outline>
</glyph>
<glyph name="Ubreve" format="2">
  <advance width="638"/>
  <unicode hex="016C"/>
  <note>
Ubreve
</note>
  <anchor x="319" y="0" name="bottom"/>
  <anchor x="445" y="0" name="ogonek"/>
  <anchor x="319" y="937" name="top"/>
  <anchor x="612" y="710" name="topright"/>
  <outline>
    <contour>
      <point x="268" y="230" type="curve" smooth="yes"/>
      <point x="268" y="710" type="line"/>
      <point x="36" y="710" type="line"/>
      <point x="36" y="239" type="line" smooth="yes"/>
      <point x="36" y="45"/>
      <point x="135" y="-14"/>
      <point x="319" y="-14" type="curve" smooth="yes"/>
      <point x="503" y="-14"/>
      <point x="602" y="45"/>
      <point x="602" y="239" type="curve" smooth="yes"/>
      <point x="602" y="710" type="line"/>
      <point x="370" y="710" type="line"/>
      <point x="370" y="230" type="line" smooth="yes"/>
      <point x="370" y="193"/>
      <point x="354" y="177"/>
      <point x="319" y="177" type="curve" smooth="yes"/>
      <point x="284" y="177"/>
      <point x="268" y="193"/>
    </contour>
    <contour>
      <point x="275" y="937" type="curve"/>
      <point x="149" y="937" type="line"/>
      <point x="149" y="817"/>
      <point x="189" y="752"/>
      <point x="319" y="752" type="curve" smooth="yes"/>
      <point x="449" y="752"/>
      <point x="489" y="817"/>
      <point x="489" y="937" type="curve"/>
      <point x="363" y="937" type="line"/>
      <point x="360" y="897"/>
      <point x="349" y="883"/>
      <point x="319" y="883" type="curve" smooth="yes"/>
      <point x="289" y="883"/>
      <point x="278" y="897"/>
    </contour>
  </outline>
</glyph>
<glyph name="ubreve" format="2">
  <advance width="583"/>
  <unicode hex="016D"/>
  <note>
ubreve
</note>
  <anchor x="293" y="0" name="bottom"/>
  <anchor x="486" y="0" name="ogonek"/>
  <anchor x="293" y="756" name="top"/>
  <anchor x="561" y="520" name="topright"/>
  <outline>
    <contour>
      <point x="553" y="0" type="line"/>
      <point x="553" y="520" type="line"/>
      <point x="329" y="520" type="line"/>
      <point x="329" y="185" type="line"/>
      <point x="329" y="185"/>
      <point x="308" y="178"/>
      <point x="286" y="178" type="curve" smooth="yes"/>
      <point x="265" y="178"/>
      <point x="251" y="188"/>
      <point x="251" y="229" type="curve" smooth="yes"/>
      <point x="251" y="520" type="line"/>
      <point x="27" y="520" type="line"/>
      <point x="27" y="203" type="line" smooth="yes"/>
      <point x="27" y="61"/>
      <point x="72" y="-13"/>
      <point x="191" y="-13" type="curve" smooth="yes"/>
      <point x="276" y="-13"/>
      <point x="331" y="26"/>
      <point x="331" y="26" type="curve"/>
      <point x="331" y="0" type="line"/>
    </contour>
    <contour>
      <point x="249" y="756" type="curve"/>
      <point x="123" y="756" type="line"/>
      <point x="123" y="636"/>
      <point x="163" y="571"/>
      <point x="293" y="571" type="curve" smooth="yes"/>
      <point x="423" y="571"/>
      <point x="463" y="636"/>
      <point x="463" y="756" type="curve"/>
      <point x="337" y="756" type="line"/>
      <point x="334" y="716"/>
      <point x="323" y="702"/>
      <point x="293" y="702" type="curve" smooth="yes"/>
      <point x="263" y="702"/>
      <point x="252" y="716"/>
    </contour>
  </outline>
</glyph>
<glyph name="Uring" format="2">
  <advance width="638"/>
  <unicode hex="016E"/>
  <note>
Uring
</note>
  <anchor x="319" y="0" name="bottom"/>
  <anchor x="445" y="0" name="ogonek"/>
  <anchor x="319" y="930" name="top"/>
  <anchor x="612" y="710" name="topright"/>
  <outline>
    <contour>
      <point x="268" y="230" type="curve" smooth="yes"/>
      <point x="268" y="710" type="line"/>
      <point x="36" y="710" type="line"/>
      <point x="36" y="239" type="line" smooth="yes"/>
      <point x="36" y="45"/>
      <point x="135" y="-14"/>
      <point x="319" y="-14" type="curve" smooth="yes"/>
      <point x="503" y="-14"/>
      <point x="602" y="45"/>
      <point x="602" y="239" type="curve" smooth="yes"/>
      <point x="602" y="710" type="line"/>
      <point x="370" y="710" type="line"/>
      <point x="370" y="230" type="line" smooth="yes"/>
      <point x="370" y="193"/>
      <point x="354" y="177"/>
      <point x="319" y="177" type="curve" smooth="yes"/>
      <point x="284" y="177"/>
      <point x="268" y="193"/>
    </contour>
    <contour>
      <point x="165" y="831" type="curve" smooth="yes"/>
      <point x="165" y="762"/>
      <point x="220" y="732"/>
      <point x="319" y="732" type="curve" smooth="yes"/>
      <point x="418" y="732"/>
      <point x="473" y="762"/>
      <point x="473" y="831" type="curve" smooth="yes"/>
      <point x="473" y="900"/>
      <point x="418" y="930"/>
      <point x="319" y="930" type="curve" smooth="yes"/>
      <point x="220" y="930"/>
      <point x="165" y="900"/>
    </contour>
    <contour>
      <point x="289" y="831" type="curve" smooth="yes"/>
      <point x="289" y="843"/>
      <point x="299" y="847"/>
      <point x="319" y="847" type="curve" smooth="yes"/>
      <point x="338" y="847"/>
      <point x="349" y="843"/>
      <point x="349" y="831" type="curve" smooth="yes"/>
      <point x="349" y="818"/>
      <point x="338" y="814"/>
      <point x="319" y="814" type="curve" smooth="yes"/>
      <point x="299" y="814"/>
      <point x="289" y="818"/>
    </contour>
  </outline>
</glyph>
<glyph name="uring" format="2">
  <advance width="583"/>
  <unicode hex="016F"/>
  <note>
uring
</note>
  <anchor x="293" y="0" name="bottom"/>
  <anchor x="486" y="0" name="ogonek"/>
  <anchor x="293" y="790" name="top"/>
  <anchor x="561" y="520" name="topright"/>
  <outline>
    <contour>
      <point x="553" y="0" type="line"/>
      <point x="553" y="520" type="line"/>
      <point x="329" y="520" type="line"/>
      <point x="329" y="185" type="line"/>
      <point x="329" y="185"/>
      <point x="308" y="178"/>
      <point x="286" y="178" type="curve" smooth="yes"/>
      <point x="265" y="178"/>
      <point x="251" y="188"/>
      <point x="251" y="229" type="curve" smooth="yes"/>
      <point x="251" y="520" type="line"/>
      <point x="27" y="520" type="line"/>
      <point x="27" y="203" type="line" smooth="yes"/>
      <point x="27" y="61"/>
      <point x="72" y="-13"/>
      <point x="191" y="-13" type="curve" smooth="yes"/>
      <point x="276" y="-13"/>
      <point x="331" y="26"/>
      <point x="331" y="26" type="curve"/>
      <point x="331" y="0" type="line"/>
    </contour>
    <contour>
      <point x="148" y="678" type="curve" smooth="yes"/>
      <point x="148" y="598"/>
      <point x="208" y="566"/>
      <point x="293" y="566" type="curve" smooth="yes"/>
      <point x="378" y="566"/>
      <point x="438" y="598"/>
      <point x="438" y="678" type="curve" smooth="yes"/>
      <point x="438" y="758"/>
      <point x="378" y="790"/>
      <point x="293" y="790" type="curve" smooth="yes"/>
      <point x="208" y="790"/>
      <point x="148" y="758"/>
    </contour>
    <contour>
      <point x="261" y="678" type="curve" smooth="yes"/>
      <point x="261" y="693"/>
      <point x="273" y="700"/>
      <point x="293" y="700" type="curve" smooth="yes"/>
      <point x="312" y="700"/>
      <point x="325" y="693"/>
      <point x="325" y="678" type="curve" smooth="yes"/>
      <point x="325" y="662"/>
      <point x="312" y="655"/>
      <point x="293" y="655" type="curve" smooth="yes"/>
      <point x="273" y="655"/>
      <point x="261" y="662"/>
    </contour>
  </outline>
</glyph>
<glyph name="uhungarumlaut" format="2">
  <advance width="583"/>
  <unicode hex="0171"/>
  <note>
uhungarumlaut
</note>
  <anchor x="293" y="0" name="bottom"/>
  <anchor x="486" y="0" name="ogonek"/>
  <anchor x="344" y="839" name="top"/>
  <anchor x="561" y="520" name="topright"/>
  <outline>
    <contour>
      <point x="553" y="0" type="line"/>
      <point x="553" y="520" type="line"/>
      <point x="329" y="520" type="line"/>
      <point x="329" y="185" type="line"/>
      <point x="329" y="185"/>
      <point x="308" y="178"/>
      <point x="286" y="178" type="curve" smooth="yes"/>
      <point x="265" y="178"/>
      <point x="251" y="188"/>
      <point x="251" y="229" type="curve" smooth="yes"/>
      <point x="251" y="520" type="line"/>
      <point x="27" y="520" type="line"/>
      <point x="27" y="203" type="line" smooth="yes"/>
      <point x="27" y="61"/>
      <point x="72" y="-13"/>
      <point x="191" y="-13" type="curve" smooth="yes"/>
      <point x="276" y="-13"/>
      <point x="331" y="26"/>
      <point x="331" y="26" type="curve"/>
      <point x="331" y="0" type="line"/>
    </contour>
    <contour>
      <point x="221" y="839" type="line"/>
      <point x="63" y="663" type="line"/>
      <point x="157" y="561" type="line"/>
      <point x="327" y="709" type="line"/>
    </contour>
    <contour>
      <point x="481" y="839" type="line"/>
      <point x="323" y="663" type="line"/>
      <point x="417" y="561" type="line"/>
      <point x="587" y="709" type="line"/>
    </contour>
  </outline>
</glyph>
<glyph name="Uogonek" format="2">
  <advance width="638"/>
  <unicode hex="0172"/>
  <note>
Uogonek
</note>
  <anchor x="319" y="0" name="bottom"/>
  <anchor x="445" y="0" name="ogonek"/>
  <anchor x="319" y="710" name="top"/>
  <anchor x="612" y="710" name="topright"/>
  <outline>
    <contour>
      <point x="268" y="230" type="curve" smooth="yes"/>
      <point x="268" y="710" type="line"/>
      <point x="36" y="710" type="line"/>
      <point x="36" y="239" type="line" smooth="yes"/>
      <point x="36" y="60"/>
      <point x="120" y="-4"/>
      <point x="278" y="-13" type="curve"/>
      <point x="251" y="-43"/>
      <point x="219" y="-88"/>
      <point x="219" y="-133" type="curve" smooth="yes"/>
      <point x="219" y="-199"/>
      <point x="273" y="-230"/>
      <point x="368" y="-230" type="curve" smooth="yes"/>
      <point x="429" y="-230"/>
      <point x="478" y="-215"/>
      <point x="478" y="-215" type="curve"/>
      <point x="465" y="-107" type="line"/>
      <point x="465" y="-107"/>
      <point x="440" y="-111"/>
      <point x="419" y="-111" type="curve" smooth="yes"/>
      <point x="403" y="-111"/>
      <point x="397" y="-102"/>
      <point x="397" y="-89" type="curve" smooth="yes"/>
      <point x="397" y="-57"/>
      <point x="438" y="-8"/>
      <point x="444" y="-1" type="curve"/>
      <point x="547" y="25"/>
      <point x="602" y="95"/>
      <point x="602" y="239" type="curve" smooth="yes"/>
      <point x="602" y="710" type="line"/>
      <point x="370" y="710" type="line"/>
      <point x="370" y="230" type="line" smooth="yes"/>
      <point x="370" y="193"/>
      <point x="354" y="177"/>
      <point x="319" y="177" type="curve" smooth="yes"/>
      <point x="284" y="177"/>
      <point x="268" y="193"/>
    </contour>
  </outline>
</glyph>
<glyph name="uogonek" format="2">
  <advance width="583"/>
  <unicode hex="0173"/>
  <note>
uogonek
</note>
  <anchor x="293" y="0" name="bottom"/>
  <anchor x="486" y="0" name="ogonek"/>
  <anchor x="293" y="520" name="top"/>
  <anchor x="561" y="520" name="topright"/>
  <outline>
    <contour>
      <point x="553" y="0" type="line"/>
      <point x="553" y="520" type="line"/>
      <point x="329" y="520" type="line"/>
      <point x="329" y="185" type="line"/>
      <point x="329" y="185"/>
      <point x="308" y="178"/>
      <point x="286" y="178" type="curve" smooth="yes"/>
      <point x="265" y="178"/>
      <point x="251" y="188"/>
      <point x="251" y="229" type="curve" smooth="yes"/>
      <point x="251" y="520" type="line"/>
      <point x="27" y="520" type="line"/>
      <point x="27" y="203" type="line" smooth="yes"/>
      <point x="27" y="61"/>
      <point x="72" y="-13"/>
      <point x="191" y="-13" type="curve" smooth="yes"/>
      <point x="276" y="-13"/>
      <point x="331" y="26"/>
      <point x="331" y="26" type="curve"/>
      <point x="331" y="0" type="line"/>
      <point x="304" y="-28"/>
      <point x="260" y="-81"/>
      <point x="260" y="-133" type="curve" smooth="yes"/>
      <point x="260" y="-199"/>
      <point x="314" y="-230"/>
      <point x="409" y="-230" type="curve" smooth="yes"/>
      <point x="470" y="-230"/>
      <point x="519" y="-215"/>
      <point x="519" y="-215" type="curve"/>
      <point x="506" y="-107" type="line"/>
      <point x="506" y="-107"/>
      <point x="481" y="-111"/>
      <point x="460" y="-111" type="curve" smooth="yes"/>
      <point x="444" y="-111"/>
      <point x="438" y="-102"/>
      <point x="438" y="-89" type="curve" smooth="yes"/>
      <point x="438" y="-54"/>
      <point x="486" y="0"/>
      <point x="486" y="0" type="curve"/>
    </contour>
  </outline>
</glyph>
<glyph name="Wcircumflex" format="2">
  <advance width="951"/>
  <unicode hex="0174"/>
  <note>
Wcircumflex
</note>
  <anchor x="473" y="0" name="bottom"/>
  <anchor x="473" y="937" name="top"/>
  <outline>
    <contour>
      <point x="280" y="234" type="line"/>
      <point x="248" y="710" type="line"/>
      <point x="18" y="710" type="line"/>
      <point x="96" y="0" type="line"/>
      <point x="424" y="0" type="line"/>
      <point x="470" y="439" type="line"/>
      <point x="523" y="0" type="line"/>
      <point x="857" y="0" type="line"/>
      <point x="928" y="710" type="line"/>
      <point x="698" y="710" type="line"/>
      <point x="678" y="234" type="line"/>
      <point x="653" y="234" type="line"/>
      <point x="595" y="700" type="line"/>
      <point x="352" y="700" type="line"/>
      <point x="305" y="234" type="line"/>
    </contour>
    <contour>
      <point x="361" y="937" type="line"/>
      <point x="280" y="757" type="line"/>
      <point x="442" y="757" type="line"/>
      <point x="473" y="840" type="line"/>
      <point x="504" y="757" type="line"/>
      <point x="666" y="757" type="line"/>
      <point x="585" y="937" type="line"/>
    </contour>
  </outline>
</glyph>
<glyph name="Ycircumflex" format="2">
  <advance width="595"/>
  <unicode hex="0176"/>
  <note>
Ycircumflex
</note>
  <anchor x="300" y="0" name="bottom"/>
  <anchor x="300" y="937" name="top"/>
  <outline>
    <contour>
      <point x="181" y="0" type="line"/>
      <point x="413" y="0" type="line"/>
      <point x="413" y="240" type="line"/>
      <point x="609" y="710" type="line"/>
      <point x="364" y="710" type="line"/>
      <point x="299" y="483" type="line"/>
      <point x="236" y="710" type="line"/>
      <point x="-10" y="710" type="line"/>
      <point x="181" y="240" type="line"/>
    </contour>
    <contour>
      <point x="188" y="937" type="line"/>
      <point x="107" y="757" type="line"/>
      <point x="269" y="757" type="line"/>
      <point x="300" y="840" type="line"/>
      <point x="331" y="757" type="line"/>
      <point x="493" y="757" type="line"/>
      <point x="412" y="937" type="line"/>
    </contour>
  </outline>
</glyph>
<glyph name="ycircumflex" format="2">
  <advance width="559"/>
  <unicode hex="0177"/>
  <note>
ycircumflex
</note>
  <anchor x="280" y="0" name="bottom"/>
  <anchor x="286" y="756" name="top"/>
  <outline>
    <contour>
      <point x="245" y="520" type="line"/>
      <point x="7" y="520" type="line"/>
      <point x="92" y="0" type="line"/>
      <point x="245" y="0" type="line"/>
      <point x="201" y="-200" type="line"/>
      <point x="437" y="-200" type="line"/>
      <point x="552" y="520" type="line"/>
      <point x="327" y="520" type="line"/>
      <point x="296" y="187" type="line"/>
      <point x="271" y="187" type="line"/>
    </contour>
    <contour>
      <point x="174" y="756" type="line"/>
      <point x="93" y="576" type="line"/>
      <point x="255" y="576" type="line"/>
      <point x="286" y="659" type="line"/>
      <point x="317" y="576" type="line"/>
      <point x="479" y="576" type="line"/>
      <point x="398" y="756" type="line"/>
    </contour>
  </outline>
</glyph>
<glyph name="Zacute" format="2">
  <advance width="605"/>
  <unicode hex="0179"/>
  <note>
Zacute
</note>
  <anchor x="302" y="0" name="bottom"/>
  <anchor x="302" y="350" name="center"/>
  <anchor x="302" y="990" name="top"/>
  <outline>
    <contour>
      <point x="565" y="710" type="line"/>
      <point x="35" y="710" type="line"/>
      <point x="35" y="520" type="line"/>
      <point x="257" y="520" type="line"/>
      <point x="257" y="495" type="line"/>
      <point x="26" y="190" type="line"/>
      <point x="26" y="0" type="line"/>
      <point x="582" y="0" type="line"/>
      <point x="582" y="190" type="line"/>
      <point x="339" y="190" type="line"/>
      <point x="339" y="215" type="line"/>
      <point x="565" y="511" type="line"/>
    </contour>
    <contour>
      <point x="416" y="990" type="line"/>
      <point x="129" y="870" type="line"/>
      <point x="169" y="751" type="line"/>
      <point x="475" y="830" type="line"/>
    </contour>
  </outline>
</glyph>
<glyph name="zacute" format="2">
  <advance width="515"/>
  <unicode hex="017A"/>
  <note>
zacute
</note>
  <anchor x="256" y="0" name="bottom"/>
  <anchor x="256" y="260" name="center"/>
  <anchor x="266" y="810" name="top"/>
  <outline>
    <contour>
      <point x="482" y="520" type="line"/>
      <point x="28" y="520" type="line"/>
      <point x="28" y="340" type="line"/>
      <point x="171" y="340" type="line"/>
      <point x="171" y="325" type="line"/>
      <point x="26" y="185" type="line"/>
      <point x="26" y="0" type="line"/>
      <point x="493" y="0" type="line"/>
      <point x="493" y="190" type="line"/>
      <point x="333" y="190" type="line"/>
      <point x="333" y="205" type="line"/>
      <point x="482" y="335" type="line"/>
    </contour>
    <contour>
      <point x="376" y="800" type="line"/>
      <point x="89" y="680" type="line"/>
      <point x="129" y="561" type="line"/>
      <point x="435" y="640" type="line"/>
    </contour>
  </outline>
</glyph>
<glyph name="zdotaccent" format="2">
  <advance width="515"/>
  <unicode hex="017C"/>
  <note>
zdotaccent
</note>
  <anchor x="256" y="0" name="bottom"/>
  <anchor x="256" y="260" name="center"/>
  <anchor x="256" y="730" name="top"/>
  <outline>
    <contour>
      <point x="482" y="520" type="line"/>
      <point x="28" y="520" type="line"/>
      <point x="28" y="340" type="line"/>
      <point x="171" y="340" type="line"/>
      <point x="171" y="325" type="line"/>
      <point x="26" y="185" type="line"/>
      <point x="26" y="0" type="line"/>
      <point x="493" y="0" type="line"/>
      <point x="493" y="190" type="line"/>
      <point x="333" y="190" type="line"/>
      <point x="333" y="205" type="line"/>
      <point x="482" y="335" type="line"/>
    </contour>
    <contour>
      <point x="160" y="730" type="line"/>
      <point x="160" y="576" type="line"/>
      <point x="352" y="576" type="line"/>
      <point x="352" y="730" type="line"/>
    </contour>
  </outline>
</glyph>
<glyph name="Zcaron" format="2">
  <advance width="605"/>
  <unicode hex="017D"/>
  <note>
Zcaron
</note>
  <anchor x="302" y="0" name="bottom"/>
  <anchor x="302" y="350" name="center"/>
  <anchor x="302" y="937" name="top"/>
  <outline>
    <contour>
      <point x="565" y="710" type="line"/>
      <point x="35" y="710" type="line"/>
      <point x="35" y="520" type="line"/>
      <point x="257" y="520" type="line"/>
      <point x="257" y="495" type="line"/>
      <point x="26" y="190" type="line"/>
      <point x="26" y="0" type="line"/>
      <point x="582" y="0" type="line"/>
      <point x="582" y="190" type="line"/>
      <point x="339" y="190" type="line"/>
      <point x="339" y="215" type="line"/>
      <point x="565" y="511" type="line"/>
    </contour>
    <contour>
      <point x="271" y="937" type="line"/>
      <point x="109" y="937" type="line"/>
      <point x="190" y="757" type="line"/>
      <point x="414" y="757" type="line"/>
      <point x="495" y="937" type="line"/>
      <point x="333" y="937" type="line"/>
      <point x="302" y="854" type="line"/>
    </contour>
  </outline>
</glyph>
<glyph name="zcaron" format="2">
  <advance width="515"/>
  <unicode hex="017E"/>
  <note>
zcaron
</note>
  <anchor x="256" y="0" name="bottom"/>
  <anchor x="256" y="260" name="center"/>
  <anchor x="256" y="756" name="top"/>
  <outline>
    <contour>
      <point x="482" y="520" type="line"/>
      <point x="28" y="520" type="line"/>
      <point x="28" y="340" type="line"/>
      <point x="171" y="340" type="line"/>
      <point x="171" y="325" type="line"/>
      <point x="26" y="185" type="line"/>
      <point x="26" y="0" type="line"/>
      <point x="493" y="0" type="line"/>
      <point x="493" y="190" type="line"/>
      <point x="333" y="190" type="line"/>
      <point x="333" y="205" type="line"/>
      <point x="482" y="335" type="line"/>
    </contour>
    <contour>
      <point x="225" y="756" type="line"/>
      <point x="63" y="756" type="line"/>
      <point x="144" y="576" type="line"/>
      <point x="368" y="576" type="line"/>
      <point x="449" y="756" type="line"/>
      <point x="287" y="756" type="line"/>
      <point x="256" y="673" type="line"/>
    </contour>
  </outline>
</glyph>
<glyph name="uni0197" format="2">
  <advance width="388"/>
  <unicode hex="0197"/>
  <note>
uni0197
</note>
  <anchor x="194" y="0" name="bottom"/>
  <anchor x="194" y="353" name="center"/>
  <anchor x="309" y="0" name="ogonek"/>
  <anchor x="194" y="710" name="top"/>
  <outline>
    <contour>
      <point x="310" y="710" type="line"/>
      <point x="78" y="710" type="line"/>
      <point x="78" y="424" type="line"/>
      <point x="16" y="424" type="line"/>
      <point x="16" y="272" type="line"/>
      <point x="78" y="272" type="line"/>
      <point x="78" y="0" type="line"/>
      <point x="310" y="0" type="line"/>
      <point x="310" y="272" type="line"/>
      <point x="372" y="272" type="line"/>
      <point x="372" y="424" type="line"/>
      <point x="310" y="424" type="line"/>
    </contour>
  </outline>
</glyph>
<glyph name="uni019D" format="2">
  <advance width="729"/>
  <unicode hex="019D"/>
  <note>
uni019D
</note>
  <anchor x="365" y="0" name="bottom"/>
  <anchor x="365" y="710" name="top"/>
  <outline>
    <contour>
      <point x="272" y="-27" type="curve" smooth="yes"/>
      <point x="272" y="313" type="line"/>
      <point x="297" y="313" type="line"/>
      <point x="469" y="0" type="line"/>
      <point x="689" y="0" type="line"/>
      <point x="689" y="710" type="line"/>
      <point x="457" y="710" type="line"/>
      <point x="457" y="406" type="line"/>
      <point x="432" y="406" type="line"/>
      <point x="260" y="710" type="line"/>
      <point x="40" y="710" type="line"/>
      <point x="40" y="29" type="line" smooth="yes"/>
      <point x="40" y="-28"/>
      <point x="15" y="-42"/>
      <point x="-36" y="-42" type="curve"/>
      <point x="-36" y="-230" type="line"/>
      <point x="209" y="-230"/>
      <point x="272" y="-195"/>
    </contour>
  </outline>
</glyph>
<glyph name="uni01CD" format="2">
  <advance width="657"/>
  <unicode hex="01CD"/>
  <note>
uni01CD
</note>
  <anchor x="329" y="0" name="bottom"/>
  <anchor x="654" y="0" name="ogonek"/>
  <anchor x="329" y="937" name="top"/>
  <outline>
    <contour>
      <point x="316" y="528" type="line"/>
      <point x="341" y="528" type="line"/>
      <point x="377" y="290" type="line"/>
      <point x="278" y="290" type="line"/>
    </contour>
    <contour>
      <point x="152" y="710" type="line"/>
      <point x="4" y="0" type="line"/>
      <point x="232" y="0" type="line"/>
      <point x="248" y="113" type="line"/>
      <point x="401" y="113" type="line"/>
      <point x="420" y="0" type="line"/>
      <point x="654" y="0" type="line"/>
      <point x="503" y="710" type="line"/>
    </contour>
    <contour>
      <point x="298" y="937" type="line"/>
      <point x="136" y="937" type="line"/>
      <point x="217" y="757" type="line"/>
      <point x="441" y="757" type="line"/>
      <point x="522" y="937" type="line"/>
      <point x="360" y="937" type="line"/>
      <point x="329" y="854" type="line"/>
    </contour>
  </outline>
</glyph>
<glyph name="uni01CF" format="2">
  <advance width="312"/>
  <unicode hex="01CF"/>
  <note>
uni01CF
</note>
  <anchor x="156" y="0" name="bottom"/>
  <anchor x="156" y="353" name="center"/>
  <anchor x="271" y="0" name="ogonek"/>
  <anchor x="156" y="937" name="top"/>
  <outline>
    <contour>
      <point x="272" y="710" type="line"/>
      <point x="40" y="710" type="line"/>
      <point x="40" y="0" type="line"/>
      <point x="272" y="0" type="line"/>
    </contour>
    <contour>
      <point x="125" y="937" type="line"/>
      <point x="-37" y="937" type="line"/>
      <point x="44" y="757" type="line"/>
      <point x="268" y="757" type="line"/>
      <point x="349" y="937" type="line"/>
      <point x="187" y="937" type="line"/>
      <point x="156" y="854" type="line"/>
    </contour>
  </outline>
</glyph>
<glyph name="uni01D0" format="2">
  <advance width="284"/>
  <unicode hex="01D0"/>
  <note>
uni01D0
</note>
  <anchor x="142" y="0" name="bottom"/>
  <anchor x="254" y="0" name="ogonek"/>
  <anchor x="142" y="756" name="top"/>
  <outline>
    <contour>
      <point x="254" y="520" type="line"/>
      <point x="30" y="520" type="line"/>
      <point x="30" y="0" type="line"/>
      <point x="254" y="0" type="line"/>
    </contour>
    <contour>
      <point x="111" y="756" type="line"/>
      <point x="-51" y="756" type="line"/>
      <point x="30" y="576" type="line"/>
      <point x="254" y="576" type="line"/>
      <point x="335" y="756" type="line"/>
      <point x="173" y="756" type="line"/>
      <point x="142" y="673" type="line"/>
    </contour>
  </outline>
</glyph>
<glyph name="uni01D2" format="2">
  <advance width="566"/>
  <unicode hex="01D2"/>
  <note>
uni01D2
</note>
  <anchor x="285" y="0" name="bottom"/>
  <anchor x="285" y="260" name="center"/>
  <anchor x="389" y="0" name="ogonek"/>
  <anchor x="285" y="756" name="top"/>
  <anchor x="547" y="520" name="topright"/>
  <outline>
    <contour>
      <point x="283" y="168" type="curve" smooth="yes"/>
      <point x="254" y="169"/>
      <point x="244" y="189"/>
      <point x="244" y="261" type="curve" smooth="yes"/>
      <point x="244" y="333"/>
      <point x="254" y="353"/>
      <point x="283" y="354" type="curve" smooth="yes"/>
      <point x="312" y="353"/>
      <point x="322" y="333"/>
      <point x="322" y="261" type="curve" smooth="yes"/>
      <point x="322" y="189"/>
      <point x="312" y="169"/>
    </contour>
    <contour>
      <point x="18" y="261" type="curve" smooth="yes"/>
      <point x="18" y="59"/>
      <point x="111" y="-13"/>
      <point x="283" y="-14" type="curve" smooth="yes"/>
      <point x="455" y="-13"/>
      <point x="548" y="59"/>
      <point x="548" y="261" type="curve" smooth="yes"/>
      <point x="548" y="461"/>
      <point x="455" y="534"/>
      <point x="283" y="535" type="curve" smooth="yes"/>
      <point x="111" y="534"/>
      <point x="18" y="461"/>
    </contour>
    <contour>
      <point x="254" y="756" type="line"/>
      <point x="92" y="756" type="line"/>
      <point x="173" y="576" type="line"/>
      <point x="397" y="576" type="line"/>
      <point x="478" y="756" type="line"/>
      <point x="316" y="756" type="line"/>
      <point x="285" y="673" type="line"/>
    </contour>
  </outline>
</glyph>
<glyph name="uni01D3" format="2">
  <advance width="638"/>
  <unicode hex="01D3"/>
  <note>
uni01D3
</note>
  <anchor x="319" y="0" name="bottom"/>
  <anchor x="445" y="0" name="ogonek"/>
  <anchor x="319" y="937" name="top"/>
  <anchor x="612" y="710" name="topright"/>
  <outline>
    <contour>
      <point x="268" y="230" type="curve" smooth="yes"/>
      <point x="268" y="710" type="line"/>
      <point x="36" y="710" type="line"/>
      <point x="36" y="239" type="line" smooth="yes"/>
      <point x="36" y="45"/>
      <point x="135" y="-14"/>
      <point x="319" y="-14" type="curve" smooth="yes"/>
      <point x="503" y="-14"/>
      <point x="602" y="45"/>
      <point x="602" y="239" type="curve" smooth="yes"/>
      <point x="602" y="710" type="line"/>
      <point x="370" y="710" type="line"/>
      <point x="370" y="230" type="line" smooth="yes"/>
      <point x="370" y="193"/>
      <point x="354" y="177"/>
      <point x="319" y="177" type="curve" smooth="yes"/>
      <point x="284" y="177"/>
      <point x="268" y="193"/>
    </contour>
    <contour>
      <point x="288" y="937" type="line"/>
      <point x="126" y="937" type="line"/>
      <point x="207" y="757" type="line"/>
      <point x="431" y="757" type="line"/>
      <point x="512" y="937" type="line"/>
      <point x="350" y="937" type="line"/>
      <point x="319" y="854" type="line"/>
    </contour>
  </outline>
</glyph>
<glyph name="uni01E8" format="2">
  <advance width="629"/>
  <unicode hex="01E8"/>
  <note>
uni01E8
</note>
  <anchor x="316" y="0" name="bottom"/>
  <anchor x="320" y="937" name="top"/>
  <outline>
    <contour>
      <point x="272" y="251" type="line"/>
      <point x="313" y="251" type="line"/>
      <point x="386" y="0" type="line"/>
      <point x="627" y="0" type="line"/>
      <point x="510" y="374" type="line"/>
      <point x="617" y="710" type="line"/>
      <point x="387" y="710" type="line"/>
      <point x="312" y="461" type="line"/>
      <point x="272" y="461" type="line"/>
      <point x="272" y="710" type="line"/>
      <point x="40" y="710" type="line"/>
      <point x="40" y="0" type="line"/>
      <point x="272" y="0" type="line"/>
    </contour>
    <contour>
      <point x="289" y="937" type="line"/>
      <point x="127" y="937" type="line"/>
      <point x="208" y="757" type="line"/>
      <point x="432" y="757" type="line"/>
      <point x="513" y="937" type="line"/>
      <point x="351" y="937" type="line"/>
      <point x="320" y="854" type="line"/>
    </contour>
  </outline>
</glyph>
<glyph name="uni01E9" format="2">
  <advance width="558"/>
  <unicode hex="01E9"/>
  <note>
uni01E9
</note>
  <anchor x="279" y="0" name="bottom"/>
  <anchor x="141" y="957" name="top"/>
  <outline>
    <contour>
      <point x="30" y="730" type="line"/>
      <point x="30" y="0" type="line"/>
      <point x="254" y="0" type="line"/>
      <point x="254" y="172" type="line"/>
      <point x="284" y="172" type="line"/>
      <point x="331" y="0" type="line"/>
      <point x="558" y="0" type="line"/>
      <point x="480" y="285" type="line"/>
      <point x="552" y="520" type="line"/>
      <point x="328" y="520" type="line"/>
      <point x="283" y="367" type="line"/>
      <point x="254" y="367" type="line"/>
      <point x="254" y="730" type="line"/>
    </contour>
    <contour>
      <point x="110" y="957" type="line"/>
      <point x="-52" y="957" type="line"/>
      <point x="29" y="777" type="line"/>
      <point x="253" y="777" type="line"/>
      <point x="334" y="957" type="line"/>
      <point x="172" y="957" type="line"/>
      <point x="141" y="874" type="line"/>
    </contour>
  </outline>
</glyph>
<glyph name="uni01EA" format="2">
  <advance width="684"/>
  <unicode hex="01EA"/>
  <note>
uni01EA
</note>
  <anchor x="342" y="0" name="bottom"/>
  <anchor x="342" y="350" name="center"/>
  <anchor x="459" y="0" name="ogonek"/>
  <anchor x="342" y="710" name="top"/>
  <anchor x="664" y="710" name="topright"/>
  <outline>
    <contour>
      <point x="342" y="538" type="curve" smooth="yes"/>
      <point x="412" y="538"/>
      <point x="423" y="487"/>
      <point x="423" y="358" type="curve" smooth="yes"/>
      <point x="423" y="222"/>
      <point x="412" y="175"/>
      <point x="342" y="175" type="curve" smooth="yes"/>
      <point x="272" y="175"/>
      <point x="261" y="222"/>
      <point x="261" y="358" type="curve" smooth="yes"/>
      <point x="261" y="487"/>
      <point x="272" y="538"/>
    </contour>
    <contour>
      <point x="25" y="358" type="curve" smooth="yes"/>
      <point x="25" y="110"/>
      <point x="102" y="3"/>
      <point x="293" y="-11" type="curve"/>
      <point x="267" y="-41"/>
      <point x="233" y="-87"/>
      <point x="233" y="-133" type="curve" smooth="yes"/>
      <point x="233" y="-199"/>
      <point x="287" y="-230"/>
      <point x="382" y="-230" type="curve" smooth="yes"/>
      <point x="443" y="-230"/>
      <point x="492" y="-215"/>
      <point x="492" y="-215" type="curve"/>
      <point x="479" y="-107" type="line"/>
      <point x="479" y="-107"/>
      <point x="454" y="-111"/>
      <point x="433" y="-111" type="curve" smooth="yes"/>
      <point x="417" y="-111"/>
      <point x="411" y="-102"/>
      <point x="411" y="-89" type="curve" smooth="yes"/>
      <point x="411" y="-57"/>
      <point x="451" y="-9"/>
      <point x="458" y="-1" type="curve"/>
      <point x="600" y="33"/>
      <point x="659" y="141"/>
      <point x="659" y="358" type="curve" smooth="yes"/>
      <point x="659" y="619"/>
      <point x="572" y="726"/>
      <point x="342" y="726" type="curve" smooth="yes"/>
      <point x="112" y="726"/>
      <point x="25" y="619"/>
    </contour>
  </outline>
</glyph>
<glyph name="uni01EB" format="2">
  <advance width="566"/>
  <unicode hex="01EB"/>
  <note>
uni01EB
</note>
  <anchor x="285" y="0" name="bottom"/>
  <anchor x="285" y="260" name="center"/>
  <anchor x="389" y="0" name="ogonek"/>
  <anchor x="285" y="520" name="top"/>
  <anchor x="547" y="520" name="topright"/>
  <outline>
    <contour>
      <point x="283" y="168" type="curve" smooth="yes"/>
      <point x="254" y="169"/>
      <point x="244" y="189"/>
      <point x="244" y="261" type="curve" smooth="yes"/>
      <point x="244" y="333"/>
      <point x="254" y="353"/>
      <point x="283" y="354" type="curve" smooth="yes"/>
      <point x="312" y="353"/>
      <point x="322" y="333"/>
      <point x="322" y="261" type="curve" smooth="yes"/>
      <point x="322" y="189"/>
      <point x="312" y="169"/>
    </contour>
    <contour>
      <point x="18" y="261" type="curve" smooth="yes"/>
      <point x="18" y="83"/>
      <point x="90" y="6"/>
      <point x="224" y="-10" type="curve"/>
      <point x="197" y="-40"/>
      <point x="163" y="-87"/>
      <point x="163" y="-133" type="curve" smooth="yes"/>
      <point x="163" y="-199"/>
      <point x="217" y="-230"/>
      <point x="312" y="-230" type="curve" smooth="yes"/>
      <point x="373" y="-230"/>
      <point x="422" y="-215"/>
      <point x="422" y="-215" type="curve"/>
      <point x="409" y="-107" type="line"/>
      <point x="409" y="-107"/>
      <point x="384" y="-111"/>
      <point x="363" y="-111" type="curve" smooth="yes"/>
      <point x="347" y="-111"/>
      <point x="341" y="-102"/>
      <point x="341" y="-89" type="curve" smooth="yes"/>
      <point x="341" y="-58"/>
      <point x="379" y="-11"/>
      <point x="388" y="-2" type="curve"/>
      <point x="492" y="26"/>
      <point x="548" y="105"/>
      <point x="548" y="261" type="curve" smooth="yes"/>
      <point x="548" y="461"/>
      <point x="455" y="534"/>
      <point x="283" y="535" type="curve" smooth="yes"/>
      <point x="111" y="534"/>
      <point x="18" y="461"/>
    </contour>
  </outline>
</glyph>
<glyph name="uni01F8" format="2">
  <advance width="729"/>
  <unicode hex="01F8"/>
  <note>
uni01F8
</note>
  <anchor x="365" y="0" name="bottom"/>
  <anchor x="365" y="990" name="top"/>
  <outline>
    <contour>
      <point x="260" y="710" type="line"/>
      <point x="40" y="710" type="line"/>
      <point x="40" y="0" type="line"/>
      <point x="272" y="0" type="line"/>
      <point x="272" y="313" type="line"/>
      <point x="297" y="313" type="line"/>
      <point x="469" y="0" type="line"/>
      <point x="689" y="0" type="line"/>
      <point x="689" y="710" type="line"/>
      <point x="457" y="710" type="line"/>
      <point x="457" y="406" type="line"/>
      <point x="432" y="406" type="line"/>
    </contour>
    <contour>
      <point x="251" y="990" type="line"/>
      <point x="192" y="830" type="line"/>
      <point x="498" y="751" type="line"/>
      <point x="538" y="870" type="line"/>
    </contour>
  </outline>
</glyph>
<glyph name="uni01F9" format="2">
  <advance width="583"/>
  <unicode hex="01F9"/>
  <note>
uni01F9
</note>
  <anchor x="291" y="0" name="bottom"/>
  <anchor x="311" y="810" name="top"/>
  <outline>
    <contour>
      <point x="30" y="520" type="line"/>
      <point x="30" y="0" type="line"/>
      <point x="254" y="0" type="line"/>
      <point x="254" y="335" type="line"/>
      <point x="254" y="335"/>
      <point x="278" y="342"/>
      <point x="297" y="342" type="curve" smooth="yes"/>
      <point x="321" y="342"/>
      <point x="333" y="316"/>
      <point x="333" y="255" type="curve" smooth="yes"/>
      <point x="333" y="0" type="line"/>
      <point x="557" y="0" type="line"/>
      <point x="557" y="270" type="line" smooth="yes"/>
      <point x="557" y="468"/>
      <point x="506" y="535"/>
      <point x="399" y="535" type="curve" smooth="yes"/>
      <point x="316" y="535"/>
      <point x="253" y="494"/>
      <point x="253" y="494" type="curve"/>
      <point x="253" y="520" type="line"/>
    </contour>
    <contour>
      <point x="195" y="800" type="line"/>
      <point x="136" y="640" type="line"/>
      <point x="442" y="561" type="line"/>
      <point x="482" y="680" type="line"/>
    </contour>
  </outline>
</glyph>
<glyph name="AEacute" format="2">
  <advance width="892"/>
  <unicode hex="01FC"/>
  <note>
AEacute
</note>
  <anchor x="435" y="0" name="bottom"/>
  <anchor x="527" y="980" name="top"/>
  <outline>
    <contour>
      <point x="305" y="515" type="line"/>
      <point x="365" y="515" type="line"/>
      <point x="365" y="289" type="line"/>
      <point x="269" y="289" type="line"/>
    </contour>
    <contour>
      <point x="141" y="700" type="line"/>
      <point x="-6" y="0" type="line"/>
      <point x="222" y="0" type="line"/>
      <point x="240" y="110" type="line"/>
      <point x="365" y="110" type="line"/>
      <point x="365" y="0" type="line"/>
      <point x="864" y="0" type="line"/>
      <point x="864" y="185" type="line"/>
      <point x="591" y="185" type="line"/>
      <point x="591" y="265" type="line"/>
      <point x="804" y="265" type="line"/>
      <point x="804" y="435" type="line"/>
      <point x="591" y="435" type="line"/>
      <point x="591" y="515" type="line"/>
      <point x="864" y="515" type="line"/>
      <point x="864" y="700" type="line"/>
    </contour>
    <contour>
      <point x="641" y="980" type="line"/>
      <point x="354" y="860" type="line"/>
      <point x="394" y="741" type="line"/>
      <point x="700" y="820" type="line"/>
    </contour>
  </outline>
</glyph>
<glyph name="Oslashacute" format="2">
  <advance width="684"/>
  <unicode hex="01FE"/>
  <note>
Oslashacute
</note>
  <anchor x="342" y="0" name="bottom"/>
  <anchor x="342" y="350" name="center"/>
  <anchor x="459" y="0" name="ogonek"/>
  <anchor x="342" y="980" name="top"/>
  <anchor x="664" y="710" name="topright"/>
  <outline>
    <contour>
      <point x="342" y="538" type="curve" smooth="yes"/>
      <point x="355" y="538"/>
      <point x="366" y="536"/>
      <point x="375" y="532" type="curve"/>
      <point x="262" y="304" type="line"/>
      <point x="261" y="320"/>
      <point x="261" y="338"/>
      <point x="261" y="358" type="curve" smooth="yes"/>
      <point x="261" y="487"/>
      <point x="272" y="538"/>
    </contour>
    <contour>
      <point x="25" y="358" type="curve" smooth="yes"/>
      <point x="25" y="198"/>
      <point x="57" y="97"/>
      <point x="131" y="41" type="curve"/>
      <point x="103" y="-16" type="line"/>
      <point x="195" y="-60" type="line"/>
      <point x="224" y="-1" type="line"/>
      <point x="259" y="-9"/>
      <point x="298" y="-13"/>
      <point x="342" y="-13" type="curve" smooth="yes"/>
      <point x="569" y="-13"/>
      <point x="659" y="90"/>
      <point x="659" y="358" type="curve" smooth="yes"/>
      <point x="659" y="512"/>
      <point x="629" y="612"/>
      <point x="557" y="669" type="curve"/>
      <point x="580" y="715" type="line"/>
      <point x="488" y="759" type="line"/>
      <point x="465" y="712" type="line"/>
      <point x="429" y="722"/>
      <point x="389" y="726"/>
      <point x="342" y="726" type="curve" smooth="yes"/>
      <point x="112" y="726"/>
      <point x="25" y="619"/>
    </contour>
    <contour>
      <point x="456" y="980" type="line"/>
      <point x="169" y="860" type="line"/>
      <point x="209" y="741" type="line"/>
      <point x="515" y="820" type="line"/>
    </contour>
    <contour>
      <point x="314" y="179" type="curve"/>
      <point x="423" y="398" type="line"/>
      <point x="423" y="358" type="line" smooth="yes"/>
      <point x="423" y="222"/>
      <point x="412" y="175"/>
      <point x="342" y="175" type="curve" smooth="yes"/>
      <point x="331" y="175"/>
      <point x="322" y="176"/>
    </contour>
  </outline>
</glyph>
<glyph name="oslashacute" format="2">
  <advance width="566"/>
  <unicode hex="01FF"/>
  <note>
oslashacute
</note>
  <anchor x="285" y="0" name="bottom"/>
  <anchor x="285" y="260" name="center"/>
  <anchor x="389" y="0" name="ogonek"/>
  <anchor x="295" y="810" name="top"/>
  <anchor x="547" y="520" name="topright"/>
  <outline>
    <contour>
      <point x="283" y="168" type="curve" smooth="yes"/>
      <point x="254" y="169"/>
      <point x="244" y="189"/>
      <point x="244" y="261" type="curve" smooth="yes"/>
      <point x="244" y="333"/>
      <point x="254" y="353"/>
      <point x="283" y="354" type="curve" smooth="yes"/>
      <point x="312" y="353"/>
      <point x="322" y="333"/>
      <point x="322" y="261" type="curve" smooth="yes"/>
      <point x="322" y="189"/>
      <point x="312" y="169"/>
    </contour>
    <contour>
      <point x="18" y="261" type="curve" smooth="yes"/>
      <point x="18" y="162"/>
      <point x="40" y="94"/>
      <point x="84" y="50" type="curve"/>
      <point x="52" y="-9" type="line"/>
      <point x="152" y="-65" type="line"/>
      <point x="185" y="-3" type="line"/>
      <point x="214" y="-10"/>
      <point x="247" y="-14"/>
      <point x="283" y="-14" type="curve" smooth="yes"/>
      <point x="455" y="-13"/>
      <point x="548" y="59"/>
      <point x="548" y="261" type="curve" smooth="yes"/>
      <point x="548" y="366"/>
      <point x="522" y="436"/>
      <point x="473" y="479" type="curve"/>
      <point x="503" y="535" type="line"/>
      <point x="401" y="589" type="line"/>
      <point x="367" y="527" type="line"/>
      <point x="342" y="532"/>
      <point x="314" y="535"/>
      <point x="283" y="535" type="curve" smooth="yes"/>
      <point x="111" y="534"/>
      <point x="18" y="461"/>
    </contour>
    <contour>
      <point x="405" y="800" type="line"/>
      <point x="118" y="680" type="line"/>
      <point x="158" y="561" type="line"/>
      <point x="464" y="640" type="line"/>
    </contour>
  </outline>
</glyph>
<glyph name="uni021A" format="2">
  <advance width="556"/>
  <unicode hex="021A"/>
  <note>
uni021A
</note>
  <anchor x="278" y="-327" name="bottom"/>
  <anchor x="278" y="326" name="center"/>
  <anchor x="278" y="710" name="top"/>
  <outline>
    <contour>
      <point x="544" y="710" type="line"/>
      <point x="12" y="710" type="line"/>
      <point x="12" y="520" type="line"/>
      <point x="162" y="520" type="line"/>
      <point x="162" y="0" type="line"/>
      <point x="394" y="0" type="line"/>
      <point x="394" y="520" type="line"/>
      <point x="544" y="520" type="line"/>
    </contour>
    <contour>
      <point x="263" y="-54" type="line"/>
      <point x="151" y="-242" type="line"/>
      <point x="271" y="-327" type="line"/>
      <point x="408" y="-160" type="line"/>
    </contour>
  </outline>
</glyph>
<glyph name="uni021B" format="2">
  <advance width="386"/>
  <unicode hex="021B"/>
  <note>
uni021B
</note>
  <anchor x="207" y="-327" name="bottom"/>
  <anchor x="197" y="260" name="center"/>
  <anchor x="170" y="653" name="top"/>
  <anchor x="310" y="730" name="topright"/>
  <outline>
    <contour>
      <point x="283" y="220" type="curve" smooth="yes"/>
      <point x="283" y="340" type="line"/>
      <point x="363" y="340" type="line"/>
      <point x="363" y="520" type="line"/>
      <point x="279" y="520" type="line"/>
      <point x="279" y="653" type="line"/>
      <point x="59" y="653" type="line"/>
      <point x="59" y="520" type="line"/>
      <point x="19" y="520" type="line"/>
      <point x="19" y="340" type="line"/>
      <point x="59" y="340" type="line"/>
      <point x="59" y="168" type="line" smooth="yes"/>
      <point x="59" y="25"/>
      <point x="112" y="-13"/>
      <point x="232" y="-13" type="curve" smooth="yes"/>
      <point x="278" y="-13"/>
      <point x="364" y="2"/>
      <point x="364" y="2" type="curve"/>
      <point x="361" y="179" type="line"/>
      <point x="361" y="179"/>
      <point x="336" y="178"/>
      <point x="316" y="178" type="curve" smooth="yes"/>
      <point x="288" y="178"/>
      <point x="283" y="188"/>
    </contour>
    <contour>
      <point x="192" y="-54" type="line"/>
      <point x="80" y="-242" type="line"/>
      <point x="200" y="-327" type="line"/>
      <point x="337" y="-160" type="line"/>
    </contour>
  </outline>
</glyph>
